<svg xmlns="http://www.w3.org/2000/svg" width="64" height="64" viewBox="0 0 64 64" fill="#1FA28F"><path d="M1.6,38.29l.85.13.56.07.57.07,1.13.11.86.07,1.13.08,1.14.06,1.16,0h1.16l3.46,0h2.29l.85,0,1.14,0L19,39l2.06.14.81,0,.81,0,.81,0,2.43,0h.82l1.62,0,2,0L32,39.15l2.43-.09,5.64-.25,1.61-.05,1.2,0,1.59,0,1.55,0h1.42l3.27.06h3.34l.74,0,.75,0,.75-.06.56-.06.55-.07.26,0,4.11-.25L63,38.09l.15,0,.4-.11.44-.84.41-.93-1-.13H58.87l-1,0-.62,0-.51,0H55.4l-1.39,0-1,0,.12-.56.08-.55,0-.52V34l0-.44-.06-.66-.08-.59,0-.39,0-.39,0-.39,0-.83,0-.45-.24-.42,3.81-.11.92,0h.83l.72.05.42,0h.57l.22,0,.14,0,.16,0,.19-.08.29-.16.29-.22a3.58,3.58,0,0,0,.31-.33l.25-.38.14-.32.06-.23,0-.16,0-.29,0-.29,0-.3v-1l0-.71,0-.43L62,24l0-.32,0-.15,0-.1-.08-.16-.09-.13L61.57,23l-.15-.12-.18-.1-.2-.08-.15-.05-.16,0-.15,0-.16,0-.31,0h-.93L59.43,20l.07-.87.06-.9,0-.44V16.48l0-.44,0-.44,0-.43,0-.44,0-.31L59.3,14l-.09-.41-.11-.42-.13-.4-.15-.4L58.65,12l-.19-.38-.21-.36-.11-.17-.14-.2-.15-.2-.15-.19-.33-.37-.17-.18L57,9.75l-.18-.16-.19-.16-.18-.15-.2-.14-.39-.27-.21-.13-.41-.23-.21-.11-.43-.19-.22-.09L54.19,8,54,8l-.23-.07-.22-.06L53,7.73l-.46-.07-.23,0-.48,0h-.95l-.24,0-.24,0-.24,0L50,7.7l-.48.1-.25.06L49,7.93,48.75,8l-.24.08-.48.2-.24.11-.24.13-.24.13-.24.14L46.83,9l-.23.16-.23.17-.23.18-.23.19-.22.2-.22.21-.2.22-.21.23-.19.23-.19.24-.17.24-.16.24-.15.24-.13.21-.11.21-.1.21-.1.21-.09.21-.16.41-.13.41-.11.41-.1.42-.05.31-.06.41-.05.4,0,.4,0,.4v1.6l0,.6.06.78.08.78.17,1.23.07.66.06.64,0,.48-.61,0a1.23,1.23,0,0,0-1,.62,1,1,0,0,0,0,1,.82.82,0,0,0,.69.42l.38,0a1.28,1.28,0,0,0-.48,1.11V27.3l0,.21,0,.28.05.24,0,.12,0,.13.06.13.08.12.08.11.11.12.13.12.15.1.16.08.17.05.33.08.34.06.35.06.77.11.64.07.24,0,.81,0h2.49l1,0a.9.9,0,0,0-.1.27l-.05.11-.12.29-.1.28-.13.41,0,.45,0,.48,0,.44,0,.42.22,1.45.2,1,.1.39.11.42,0,.09-2.45-.1-1.44,0H45.28l-1.61,0-1.21,0-1.61,0L38.43,36l-5.23.2.13-.48.09-.58.07-.57,0-.55,0-.55V33l0-1,0-.79-.1-1.07-.23-.91h.63l.4,0,1.53.22,1,.13.46.06.57.06.43,0,.42,0H39l.34,0,.19,0,.23-.05.13,0,.16-.06.19-.08.26-.17.33-.27.26-.29.14-.22.1-.18.09-.22.06-.24,0-.17v-.16l0-.29V26.21l0-.69,0-.42-.07-.62-.07-.4-.06-.25-.05-.14-.06-.14-.13-.2-.18-.16-.19-.12-.09,0L40.4,23l-.17-.05L40,22.87l.15-1.6.12-1.34.06-.92,0-.47V17.13l0-.47,0-.47,0-.45-.07-.57-.07-.46L40,14.27l-.1-.44-.12-.43L39.65,13l-.17-.41-.19-.4-.1-.2L39,11.58l-.12-.18-.13-.18L38.58,11l-.14-.16-.15-.17-.3-.3-.16-.15L37.5,10l-.35-.26-.36-.26-.38-.23L36,9l-.4-.21-.42-.19-.43-.17-.43-.15-.45-.14L33.43,8,33,7.94l-.23,0-.47-.07-.47,0-.47,0h-.48l-.24,0-.24,0-.48.08-.24,0L29.4,8l-.24.07-.25.07-.24.09-.25.09-.25.11-.24.12-.25.13-.25.14L27.18,9l-.24.17-.24.19-.24.2-.23.21L26,10l-.21.23-.21.25-.38.5-.17.26-.16.27-.15.27-.13.27-.16.35-.17.4-.14.4-.13.39-.12.4-.1.39-.16.78-.06.4-.06.38-.08.78,0,.39,0,.38,0,.39v1l0,.75.05.77.27,2.07.12,1.08-.17.05-.1,0-.17.08a1.27,1.27,0,0,0-.66,1,1.48,1.48,0,0,0,0,.21,1,1,0,0,0-.14.63v.13l-.08.76v.71l0,.31,0,.27,0,.14,0,.14.06.14.06.13.09.14.12.14.14.14.16.11.17.09.3.13.32.12.31.11.33.09.43.1.37.06.36,0,.36,0h1.1l.75,0,.55,0,.74-.05,1.34-.11-.16.68-.07,1.2.07,1,.07.73,0,.47.1,1.94.06.94-1.55,0H26.05l-1.58,0-.78,0-.79,0-.78,0-1.47-.11L19.48,36l-1.17,0-1.47,0H14.05l.06-1V33.84l-.06-2.1L14,30.65l-.25-1.12-.2-.31a.71.71,0,0,0-.16-.31l.6,0,2,0,2,0,.87.1.26,0h.34l.14,0,.17,0,.32-.12.42-.27.28-.26.16-.19.17-.23.13-.24.1-.24.06-.18,0-.17,0-.15,0-.14v-.43l0-.2,0-.18-.1-.33-.13-.38-.06-.21.08-.89v-.63l0-.16,0-.13,0-.12,0-.13L21,23,21,22.83l-.06-.11-.09-.1-.08-.09-.11-.1-.12-.09-.24-.14-.12-.05-.13,0L19.77,22,19.52,22l-.27,0,.12-1.49.05-.75,0-.5,0-.51v-1.5l0-.5,0-.49-.07-.61-.07-.49-.1-.49-.11-.48-.14-.47-.16-.48L18.67,13l-.1-.24-.1-.23-.11-.23L18.24,12l-.12-.23L18,11.58l-.14-.22-.14-.22-.15-.22-.16-.21-.17-.21-.18-.21-.18-.21-.19-.2-.2-.2-.21-.19-.22-.2-.22-.19-.23-.18-.06,0-.06-.07-.06,0-.15-.11-.13-.08-.27-.15-.14-.07-.22-.09-.27-.09L14,8.13l-.27-.05-.27,0-.26,0h-.49l-.48,0-1,.1-.36.05-.35.07-.34.07-.33.1-.33.1-.33.13-.31.14L8.47,9l-.25.13-.3.2-.3.21-.28.22L7.07,10l-.26.26-.24.26-.22.27-.21.27L6,11.32l-.17.27-.16.28-.14.27-.13.28-.11.27L5.14,13l-.09.27L5,13.52l-.08.27-.07.28-.06.28,0,.28-.09.56-.07.56,0,.57,0,.71v.56l0,1.12,0,.58,0,.55.33,2.3.09.65,0,.32a1.29,1.29,0,0,0-.17.16.91.91,0,0,0-.25.11,1.22,1.22,0,0,0-.62,1l-.11,1.13,0,.29,0,.6v.53l0,.3,0,.31,0,.15,0,.16L4,28l.07.15.07.14.11.16.11.12.07.07.11.08.11.06.17.06.14,0,.17,0h.61l.39,0,1.17-.1,4.6.14a1.43,1.43,0,0,0-.58,1l-.17.67-.09,1.21,0,1.07.07,1,.06,1,.08,1v.11H9.87L8.7,36,7.52,36l-1.17,0h-2l-1.16,0-.94,0a1.48,1.48,0,0,0-1.15.7,1.07,1.07,0,0,0-.13,1.08A.83.83,0,0,0,1.6,38.29ZM7.94,26.14l-.24,0-.26,0-1,.18-.34.05,0-.17L6,26l0-.4,0-.57.52.05.34,0,1.61.21.58.07.42,0h1.22l.41,0,.21,0,2-.27.91-.11.79-.08.78-.07.61,0,.57,0h.34a.86.86,0,0,0,.59.23,1,1,0,0,0,.35-.07l-.06.74v.37H10.05l-1.38,0Zm5.27-14.93.14-.26,0,.34.34.26.37.31.34.32.31.32.14.16.27.33.12.17.24.34.21.35.19.35.16.36.16.37.13.38.12.38.1.39.13.6.08.51.06.42,0,.43,0,.43L17,19.81v.45l0,1.63-.79.05-1,.08-.65.07-1.2.14-1.61.21-.32,0-.35,0h-.73l-1,0-1.4,0-.67,0v-.16l0-.76,0-.66.06-2.2v-.57l0-1.05v-1l0-.38,0-.72,0-.47.07-.44.08-.42.1-.39,0-.18L8,12.84l.13-.3.14-.25.13-.21.13-.16.14-.14.15-.12.2-.13.2-.11.14-.06.17-.07.18-.06.19-.05.33-.07.36-.06,1-.09.37,0h.46l.13,0,.13,0,.13,0,.13.05.17.07.13-.27ZM25,26.25,25,26l0-.55.31,0,.95,0H33.4l1.77.05.88,0,.81,0,.48,0,.44,0,.38,0,.34.06,0,.48,0,.59-.29,0-.87-.12-1.77-.27-.37,0-.21,0-.32,0-.33,0h-1l-.69,0-.71,0-2,.14-.7,0-.52,0-.68,0h-1L26,26.45l-.41,0-.26,0L25,26.3Zm1.33-6.89V17l0-.68,0-.34,0-.34,0-.32,0-.33.05-.31.06-.32.14-.6.09-.3.09-.28.1-.29.11-.27.09-.2.14-.28.15-.22.14-.19.13-.14.14-.14.15-.12.17-.11.2-.11.23-.1.25-.1.27-.07.3-.07.31,0,.33,0h.68l.36,0,.36,0,.36.07.36.08.36.1.36.11.35.13.35.15.34.15.32.17.32.19.3.19.29.2.27.2.25.22.18.17.15.15.2.23.18.25.16.26.15.28.14.3.13.31.12.32.1.34.09.36.11.55.08.47,0,.4,0,.4,0,.41,0,.41.06,1.26,0,.83v2.21l-.56,0H34.17l-1.41,0-1.44.06-1.42.08-.52,0-1,.08-.95.09-1.24.13,0-.51,0-1Zm19.52,3.1,0-.4,0-.39,0-.4,0-.4,0-.8,0-1-.08-2.11V15.51l0-.34,0-.33,0-.32,0-.31,0-.22.1-.42.12-.39.09-.23.1-.22.1-.2.11-.2.09-.12L47,12l.16-.19.18-.17.18-.16.2-.15.21-.14.23-.13.26-.13.27-.11.28-.09.31-.09.31-.06.32-.05.34,0h.51l.34,0,.35,0,.35.05.34.08.34.1.34.12.33.13.33.15.32.18.31.19.3.21.28.23.28.24.26.27.24.28.17.22.13.19.08.12.16.26.14.28.12.29.12.3.1.32.1.32.08.34.09.43.06.36.05.37,0,.37,0,.39,0,.39,0,.39,0,1.2v3.28l-2.45,0-1.79,0L51,22.73l-1.8.06L45.77,23Zm4.44,2.93,6.17.05h.21l1-.05.57,0h.87l0,.22,0,.47v.31h-.76l-1.57,0-4.71.1-2.3,0h-3l-.63,0h-.95l-.47,0,0-.17-.07-.59,0-.13,0-.21a.92.92,0,0,0-.09-.23l2.28.09,1.74.05Z"/><path d="M63.23,53.25l-.23,0-.48,0H61.35l-.67,0-.71,0-1.16-.05-1.74-.09.12-1,.1-1,.07-1,.06-.68.33.08.4.09.41.07.53.06.41,0,.42,0,.42,0h.42l.41,0h.3l.39,0,.57-.07.4-.07a1.26,1.26,0,0,0,.92-.69.92.92,0,0,0,0-.91.85.85,0,0,0-.74-.39l-.25,0h-.89l-.24,0-.32,0-.33,0-.34-.05-.33-.06L60,47.42l-.24-.06-.32-.08-.15-.05-.44-.15-.41-.18-.27-.13-.19.23.11-.32-.14-.2.36-.15.18-.08.18-.1L58.8,46l.18-.11.19-.13.18-.15.18-.16.18-.17.17-.18.16-.2.15-.21.14-.21.12-.21.1-.22.08-.22.07-.21,0-.21,0-.21,0-.2v-.61l0-.3-.06-.27-.12-.34-.07-.16-.08-.15-.09-.15-.09-.14-.1-.13-.1-.13L60,40.54l-.12-.12-.24-.22L59.33,40l-.14-.09-.13-.08-.3-.16-.29-.12-.3-.12-.32-.09-.33-.07-.24,0-.33,0-.33,0H56.3l-.25,0-.18,0-.34.05-.17,0-.34.1-.17.06-.16.07-.17.07-.17.08-.17.09-.16.11-.17.11-.16.12-.16.14-.15.14-.15.16-.14.17L53,40.9l-.12.18-.1.19-.08.18-.07.19-.11.37-.17.28-.15.29-.15.31-.1.28-.06.2,0,.18,0,.18,0,.19v.38l0,.18.05.19.06.19L52,45l.1.18.12.16.1.13.1.12.12.11.12.1.11.1.14.1.26.16.25.13-.48.41-.28.21-.21.14.16.25-.25-.2-.76.28-.59.21-.3.1-.61.19-.61.17-.62.16-.62.15-.62.13-.63.11-.63.1-.63.08-.63.06-.64,0-.63,0h-.63l-.62,0-.63,0-.62-.06-.62-.07-.61-.1-.61-.11-.61-.14-.6-.16-.59-.18-.59-.21-.61-.23-1.24-.47-.6-.25-.29-.14-.3-.14-.49-.26.16-.11.18-.13.17-.15.18-.16.17-.17.15-.17.16-.19.14-.19.12-.18.14-.23.09-.18.1-.21.08-.2.06-.19.06-.2,0-.18,0-.19,0-.18v-.51l0-.17,0-.16L35.5,42l-.1-.29,0-.14-.14-.28-.07-.13L35,40.93l-.17-.24-.2-.22-.1-.11-.21-.2L34.07,40l-.24-.17-.26-.14-.26-.13-.14-.06L33,39.42l-.29-.08-.15,0-.29-.05h-.62l-.16,0-.16,0-.16,0-.17,0-.16,0-.16.06-.17.07-.23.12h0a1.35,1.35,0,0,0-.87.37l-.16.12-.17.13-.16.15-.32.32-.16.18-.15.19-.28.4-.13.21-.11.23-.12.24-.09.24-.07.26,0,.22,0,.13,0,.28v.19l0,.36,0,.17,0,.17,0,.17,0,.15.06.16.06.15.06.15.07.14.08.13.17.26.18.24.21.21.22.2.23.18.25.15.14.09-.41.21-.48.23-.25.1-.52.2-.54.19-.57.17-.58.16-.6.14-.61.13-.63.11-.64.1-.65.08L22,48.5l-.66,0-.67,0-.66,0H18.14l-.64,0-1-.06-.63-.06-.6-.06-.59-.08-.58-.1-.55-.09L13.06,48l-.51-.12-.79-.21-.27-.08L11,47.44l-.53-.19-.26-.1-.26-.1-.25-.11-.23-.11-.24-.12L9,46.59l-.22-.14-.28-.19-.31-.33-.29-.34.2-.16.2-.17.19-.18.19-.21.17-.22L9,44.41l.14-.24.11-.25.09-.25.06-.23,0-.25V43l0-.23,0-.23-.07-.21-.09-.22-.12-.21L9,41.67l-.19-.22-.26-.26-.16-.14-.18-.14L8,40.8l-.18-.1-.18-.09-.2-.08-.19-.06-.21,0-.2,0-.21,0H6.39l-.15-.07-.15-.06L6,40.2l-.17,0H5.43l-.22,0L5,40.32l-.25.13-.25.18-.23.2L4,41.07l-.11.14-.17.19-.15.19-.1.17-.18.29-.15.3L3,42.63l-.12.27-.09.27-.08.27-.06.26,0,.25,0,.25v.24l0,.25,0,.17,0,.19.08.21.1.19.11.18.14.16.14.15.18.14.16.1.17.09.17.08.18.06.14,0-.81,1.15L3.16,48l.17.25L3,48.16l-.13.1-.08.05-.11.06-.13.05-.15,0-.28.08-.32.06-.39,0-.38,0a1.49,1.49,0,0,0-1.16.71,1.08,1.08,0,0,0-.12,1.07.92.92,0,0,0,.67.48L.87,51l.33,0h.63l.3,0,.15,0,.3,0,.29-.08.29-.09.29-.12.21-.1.26-.15.27-.17L4.44,50l.14-.11.19,2.2.09.9.1.67,0,.24-1,.13-.74.1A1.54,1.54,0,0,0,2.13,55a1.05,1.05,0,0,0,0,1,.9.9,0,0,0,.77.42l2.23-.06,1.46,0,1.46,0,1.5,0L14,56.06l3-.12,1.52-.06,3-.08,3-.06,3.8-.06,3,0H46.74l3.07,0,2.34,0h2.68a.7.7,0,0,0,.13.17.84.84,0,0,0,.6.25,1,1,0,0,0,.54-.16,1.18,1.18,0,0,0,.32-.27l1.45,0,1.64,0,.76,0,1.13-.06.62,0,.41-.05.26,0,.37-.06a1.27,1.27,0,0,0,.9-.7.9.9,0,0,0,0-.9A.84.84,0,0,0,63.23,53.25Zm-7.4-9.18-.1,0-.1,0-.2-.07-.18-.08-.09,0-.08,0-.08,0-.07,0-.07-.05-.07,0-.12-.1-.05,0,0-.05-.07-.1,0,0,0,0v-.41l0-.12,0-.14,0-.15,0-.16.07-.16.07-.17.16-.38.15,0h.51l.2,0,.2,0,.22,0,.16,0,.11,0,.1,0,.2.07.09.05.1,0,.09,0,.19.11.08.05.09.06.08.06.14.12.07.07.07.06.06.07.06.07.1.14,0,.07,0,.07,0,.08,0,.07,0,.08,0,.07,0,.09v0l0,.13v.4l0,.06,0,0-.09,0L58,44l-.07,0-.15,0-.08,0-.19,0-.08,0-.15,0-.21,0h-.65l-.22,0-.17,0-.11,0ZM6.31,43.9H5.75l-.07,0H5.62l0,0-.09,0,0,0,0,0-.06-.06v0l0,0v0l0-.06v-.15l0-.12,0-.1,0-.1,0-.12,0-.13.1-.22.14-.25A.79.79,0,0,0,6,42.3l.06,0,.07,0,.07.06.13.13.08.08.17.23.08.12.1.14.07.11,0,.09,0,.08,0,.08,0,.06v.13l0,0-.12.06-.07,0-.07,0-.08,0-.09,0Zm1.34,7.19-.08-1.52.29.14.3.13.31.12.61.21.31.1.61.18.58.16.38.09,0,0h.05l.65.14.59.12.6.1.63.1.64.08.66.07.67.06.68.05.69,0h1.61l.72,0,.72,0,.73-.06.72-.07.55-.07.73-.1.72-.13.72-.14.71-.17.71-.19.69-.21.34-.12.35-.12.34-.13.33-.14.33-.15.33-.15.32-.15.32-.17.31-.17.3-.17.6-.38.28-.19,0,.47v1.1l0,1.41.08,1.11.05.42H29.29l-3.81,0-3,.05-3.05.06L17.87,53l-1.52,0-1.52.06-1.52.07-1.53.08-1.55.1-1.56.17-1.12.12,0-.26,0-.53,0-.76Zm23.68-6.78-.16-.07-.07,0-.07,0-.14-.09-.07,0L30.75,44l-.06-.06-.06-.05-.11-.11-.05-.06,0-.07-.05-.06,0-.06,0-.07,0-.06,0-.07,0-.07-.05-.15,0-.07,0-.07v-.54l0-.09,0-.14V42l0-.11v-.05l0,0,0-.06,0,0,0-.07,0-.06,0,0,.11-.09,0,0,.07,0,.08,0,.08,0,.1,0H31l.12,0,.13,0,.07,0,.07,0,.07,0,.07,0,.07,0,.16.1.07,0,.14.1.08.06.07.06.13.12.07.06.12.14.12.15.1.15,0,.07.05.08,0,.08,0,.08,0,.08L33,43l0,.08,0,.16v.5l0,.12V44L33,44l0,.07,0,0-.06.1.31.31-.35-.27h0l0,0-.09,0-.1,0-.18,0-.09,0h-.46l-.17,0-.13,0-.08,0-.08,0ZM52.2,52.93l-4.68-.07-3,0-3,0-3,0H33.17l0-.14.06-1.17,0-1.13v-.75l.22.15.29.19.32.2.32.17.33.16.33.14.33.13.33.12.33.12.34.1.34.1.68.18.34.08.34.07.35.07.69.11.35.05.7.08.7.05.71,0h.7l.71,0,.71,0,.7-.06.71-.07.7-.09.71-.11.7-.14.69-.14.7-.17.69-.18.68-.2.68-.22.67-.23L52,50l.59-.24.16-.07.18-.09.17-.1.23-.14.29-.2.28-.21.26-.21.5-.43-.1.55-.08,1-.1,2,0,1V53l-.8,0Z"/></svg>