<svg xmlns="http://www.w3.org/2000/svg" width="64" height="64" viewBox="0 0 64 64" fill="#1FA28F"><path d="M58.75,15.86l-.07-2.28a1.79,1.79,0,0,0,0-.23.93.93,0,0,0,.05-.43.87.87,0,0,0-.37-.61L57.87,12l-.32-.2-.32-.2-.34-.19-.34-.18L56.21,11l-.35-.17-.35-.16-.36-.15-.36-.15-.36-.14L53.69,10,53,9.76l-.56-.18-.75-.21-.75-.21L50.15,9l-.74-.18-1.59-.36-2.25-.53-1.92-.44-1.1-.24-1.42-.29-1-.21-1-.18-.65-.12-1-.16-.79-.12L35.47,6l-.6-.07L33.7,5.79l-.58,0-.57,0-.56,0-.56,0-.55,0H28.7l-.54,0-.53,0-.54,0-.53,0L26,5.82l-.53.06L25,6,24.41,6l-.53.1-.55.1-.54.11-.55.12-.55.13-.56.14-.56.15L20,7.05l-.58.17-.57.18-1,.33-1.22.43-.92.34-.64.24-1,.38-.66.28-.69.28-1.05.49-1.07.51-1.1.53-.76.37-1.16.59L7,12.45a1.62,1.62,0,0,0-.89,1.08v0L6,13.62a1.49,1.49,0,0,0-.72,1.2l0,1.5-.06,2,0,1,.09,2.84,0,1.88,0,1.89v1.41l0,1.9-.06,3.81,0,2.85v2.84l0,1.9.07,1.86.09,1.85.06.87a.9.9,0,0,0,.26.64.91.91,0,0,0,.64.27l.16,0a.63.63,0,0,0,.26.11l.33.11.78.23.86.1.8,0h.8l2,0,1.59,0,1.6-.07,1.65-.11,1.26-.15.92-.12.05,1.19,0,.83,0,.61.06.81.1,1.17.08.75.1.74.1.7.12.67.08.33.07.31.17.58.18.54.09.25.1.25.08.17.17.34.13.21.13.2.15.19.16.18a.89.89,0,0,0,.67.3,1.07,1.07,0,0,0,.43-.09,1.13,1.13,0,0,0,.32.05,1.19,1.19,0,0,0,.63-.18L24,57.1l.65-.36.66-.38L26,56l.64-.44.62-.44,2.82,1.87,1.1.69.35.24.5.33a.9.9,0,0,0,.57.2,1.27,1.27,0,0,0,1.2-1.2.83.83,0,0,0-.06-.32l.55-.21.65-.34.59-.36,1-.63.35.26.32.23.92.63,1.18.81.85.56.07.05a.86.86,0,0,0,.5.18.9.9,0,0,0,.4.09,1.05,1.05,0,0,0,.48-.11,1.3,1.3,0,0,0,.7-.89l.47-2.2L43,53.48,43.26,52l.33-2.15L44,47l.12-.88,5.61.21,7-.37a.91.91,0,0,0,.49.14,1.07,1.07,0,0,0,.56-.17,1.27,1.27,0,0,0,.64-1l.06-1,.09-2,.08-2,0-2V32l0-3.91V24.15l0-1.46,0-2,.08-2.93,0-1ZM40.51,52.59l-.12,1.22-.07,1.1L39,53.66l.78-.54ZM32.59,55l-.2.16-.1-.12L32,54.69l-.33-.3-.34-.3-.69-.58L30,53l1.79-1.39.74.6,1.32,1,.5.39-.31.19-.62.44-.57.49Zm-9.71-.82-.07-.54-.11-1.25-.05-.62.18.15.35.29.36.28.72.53.76.54-.17.12-.6.49-1.19.94,0-.22L23,54.66ZM26.57,35l-.18-.14h.37Zm-.72,3.78,1,.86,1.23,1.05,1.14,1-2,1.81-1.1-.92-.66-.54-.66-.54L24.05,41l-.3-.18.58-.58.37-.36.49-.46Zm5.86,8.53-2.59-2.18,2-1.76,1.56,1.43,1.22,1.1.61.54-.48.36L32.47,48Zm-9.18-3.27.65.54,1.41,1.16-.44.39-.57.53L23,47.2l-.44.4a.35.35,0,0,0-.14-.06l-.1-2.73,0-1Zm14.78-8.88-.4-.39h1Zm-.64,4,.59.55.45.41.62.53.32.25.33.26.34.24.37.25.37.22.38.2.34.18-.38.21-.66.39-.67.4-.65.42-.65.43-.67.45-2.2-2.12L33.57,41.2l.92-.78,1.18-1,.68-.56Zm-3-1.29-.63.51-.61.52-.7.59-1.37-1.25-1.24-1.09-.67-.58,1-.85,1-.88,1.69,0,.61.78.33.31.88.75.59.52Zm-12.4-3,.58.54,1.22,1.17.8.66-.29.25L23,38l-.42.39-.53.51L22,38.22,22,37.5l0-.38-.08-.35-.08-.3-.17-.57-.18-.53-.1-.26-.11-.25Zm3.26,14,.33-.23.68-.48.63-.5.38-.32,1.6,1.31L29.78,50l-2,1.47-.56-.41-.51-.38-.67-.51-.65-.53Zm11.81-.79.93.78.66.52.66.5.79.58-.62.36-1.11.7-.57.37-1.18-1-1.51-1.3Zm2.94-1.39-.46-.45.62-.44,2-1.41-.37,3.09-.1.92-1.08-1.12Zm1.47-8.11L39,36.87l1.36-.95.64-.43.65-.41.58-.35H43l-.16.63-.38,1.55-.26,1.47L42,39.85l-.4-.42ZM22.43,31.86h-.56l-2.34.05-1.43,0H16.52l0-.39h4.33l1.81,0,1.81,0,2.72-.07,6.36-.23,1.81-.05,1.82-.05,1.82,0,1.37,0h3.5l2-.18.59,0,.59,0h1l.32,0,0,.17-.1.42-.07.26-.1.31-.56,0-1.08-.11-.45,0h-.21l-17.35.1ZM45,39.28l.19-1.44.13-1.42,0-1.33v-.35l.61,0,.85.07.29,0h.67l.3,0,.16,0,.17,0,.17,0,.19-.07.22-.08.23-.13.17-.11.21-.16.23-.22.22-.26.14-.2.11-.18.09-.17.08-.16.15-.32.13-.32.17-.5.08-.25.09-.34.07-.25.08-.35.06-.33,0-.33,0-.33v-.34l0-.18,0-.16-.05-.17,0-.08,0-.1,0-.08L51,28.44l-.12-.11-.13-.1-.13-.08-.11-.06-.1,0L50.17,28l-.24-.06-.34-.06-.23,0-.41,0H48l-.9.05-.88.07-1.46.14-.39,0-1.41,0-1.85,0-1.39,0-1.85.07L36,28.3l-1.85.09-2.76.14-3.68.21-2.77.18-3.69.21-1.84.09-1.85.08-1.38.05-1.37,0a1.27,1.27,0,0,0-1,.64A.93.93,0,0,0,14,31.35a.53.53,0,0,0,.06.13v.41l0,.77v.46l0,.25,0,.14,0,.14,0,.11.11.19.16.18.19.14.12.07.08,0,.12,0,.27.06.18,0,.55.06.56.05.65,0,1.36.08.44,0a1.1,1.1,0,0,0-.18.82l.05.56,0,.53v1.61l.12,1.35.08,1.08.07,1.14.07,1.39,0,.68L19,43.87l-1.15-.12-1.54,0H12l-2.38-.05-.88.05-1.09.17.25-3.82L8,38.11l.12-2.9.1-2.89,0-1.92,0-1.92,0-1.92,0-2.4V21.27l0-1,0-1-.05-1-.07-1L8,16.45l-.15-.91-.18-1,2.6-1L11.7,13l1.35-.51,1.29-.52.93-.36.9-.34,1.17-.42.85-.29.69-.23.54-.17,1.07-.31L21,9.65l.52-.13L22,9.4l.5-.12.51-.1.49-.1L24,9l.49-.08.5-.07.49-.07.49,0,.49-.05.5,0,.49,0,.5,0,.5,0h1.1l-.45.18L28.71,9l-.43.23-.42.25-.42.27-.3.22-.46.32-.37.28-.36.3-.35.31-.33.33-.33.34-.32.36-.3.36-.29.39-.14.19-.32.49-.23.39-.23.4-.2.41-.19.4-.18.41-.16.42-.14.41-.13.42-.11.41-.1.42-.08.41-.06.41,0,.33,0,.22,0,.45v.43l0,.43,0,.2.06.41.08.39.1.39.06.19.14.36.15.35.17.34.19.32.21.31.22.3.24.28.25.28.26.26.28.24.28.23.3.22.31.21.35.21a1.22,1.22,0,0,0,.09.27.91.91,0,0,0,.8.47,1,1,0,0,0,.45-.1l.25.1.36.12.37.11.37.11.38.09.38.08.38.07.39.06.39.05.39,0,.4,0H32l.4,0,.4,0,.39,0,.4-.05.39-.07.4-.07.39-.08.39-.1.39-.1.38-.12.38-.13.38-.14.37-.16.36-.17.46-.23.36-.21.36-.22.35-.23.34-.25.34-.27.32-.29.32-.31.3-.32.28-.33.33-.44.16-.23.3-.46.14-.23.26-.47.12-.23.11-.23.2-.46.09-.23L42.7,20l.07-.23.12-.45.09-.45.07-.45L43.1,18l0-.43v-.64l0-.42,0-.42L43,15.64l-.1-.4-.11-.4-.13-.38-.14-.38-.17-.37-.17-.36-.2-.36-.21-.34-.22-.34L41.27,12,41,11.67l-.26-.31-.27-.29-.29-.29-.3-.27-.31-.27L39.26,10l-.33-.24-.29-.19.6.1,2.1.4,2.25.44,2.74.56,2.72.53,1.51.3.74.16.56.14.74.18.72.2.7.22.69.23.33.13.33.13.32.14.31.14.35.17s-.1.64-.1.64l-.16,1-.14,1-.14,1.09-.06,1,0,1,0,1,0,1,0,2v3.43l0,1.95,0,2,0,2,.08,2.93.11,2.9L56,40.56l.21,3.23-5.77-.33-6,.23ZM33.94,10.57l.31.08.47.16.45.18.46.21.46.24-.25.39-.25.41-.27.46-.21.48L35,13.6l-.14.43-.13.43-.12.44-.11.44-.09.44-.08.44,0,.15-.82-.05V14.91l0-.95.06-1.44V12l0-.44-.08-1v-.14l.21,0Zm-.47,8.73h.66l0,.39,0,.22.08.44.06.22.12.43.07.21.08.21.09.21.1.2.1.21.11.2.12.19.13.19.13.2.17.2.16.18.16.16.18.16.22.19-.14.05-.28.1-.29.09-.3.08-.31.07-.3.07-.32.06-.32.05-.32,0-.33,0-.26,0,.08-.49.08-.53,0-.52.05-.52,0-.51,0-.52,0-.75V19.3Zm4.46-.1.6-.07.6-.09.6-.1.45-.08,0,.27-.06.3-.08.31-.1.3-.12.3-.13.29-.14.3-.17.29-.18.29-.2.29-.25.32-.13.16-.09.08-.09-.12-.2-.31L38,21.62,37.69,21l-.14-.31-.11-.33L37.33,20l-.08-.33-.08-.4Zm1.58-2.64-2.39-.07,0-.23.07-.37.07-.36.09-.37.1-.36.1-.36.23-.72.14-.39.11-.36.31.33.31.38.29.39.17.28.25.41.14.28.14.29.12.29.1.3.1.3.09.35ZM28.89,23.33l.18-.44.16-.42.15-.44.12-.43.11-.44.1-.43.07-.43.06-.44,0-.43,0-.27.62,0,.05,2.13,0,1.18,0,1.77-.18,0-.32-.06-.31-.06L29.5,24,29.19,24l-.29-.1-.22-.07Zm2-11.82-.14.55-.14.6-.06.56,0,.52,0,.5v1.93l-.7,0,0-.12-.09-.42-.11-.43-.12-.43-.15-.42-.2-.47-.32-.42-.29-.33-.3-.32-.07-.07a.9.9,0,0,0-.38-.29l.09-.08.34-.27.36-.26.25-.16L29,11.5l.27-.14.28-.13.29-.11.3-.1.36-.1a1.41,1.41,0,0,0,.62-.29.19.19,0,0,0,0,.08L31,11ZM26.41,16.1h-.12l-.63,0-.46.09.12-.33.12-.29.14-.29.14-.28.15-.28.17-.3.11.57.09.52Zm-.86,3H27v.6l0,.33,0,.35,0,.34-.05.34-.06.34-.07.34-.08.33-.13.47-.17-.15-.19-.18-.28-.29-.16-.2-.15-.21-.15-.21-.12-.23-.12-.23-.1-.24L25,20.37l-.08-.25-.06-.27,0-.27,0-.28,0-.22.28,0Z"/></svg>