<svg xmlns="http://www.w3.org/2000/svg" width="64" height="64" viewBox="0 0 64 64" fill="#1FA28F"><path d="M54.92,32.56l.16-.19.15-.2.14-.2.14-.2.12-.21.11-.21.1-.21.09-.21.08-.22.06-.2.07-.22,0-.19,0-.19,0-.19,0-.18,0-.36V29l0-.17v-.17l0-.17,0-.16,0-.15,0-.16-.06-.15L56,27.73l-.06-.14-.08-.14-.07-.13-.09-.12-.09-.12-.18-.23-.1-.1-.21-.19-.23-.18-.24-.17-.18-.11L54.21,26,54,25.85l-.26-.1-.26-.08-.27-.07-.27-.06-.28-.05-.28,0-.28,0h-.57l-.29,0-.29,0-.29.05-.29.06-.27.08-.26.08-.21.08-.21.09-.21.09-.21.1-.2.1-.2.12-.19.11-.38.25-.18.13-.35.28-.17.15L47,27.5l-.29.29-.28.29-.25.29-.24.28-.22.29-.22.28-.29.4-.67,1-.37.51-.25.32-.23.26-.11.11-.17.15-.18.13-.16.08-.27.11-.23.09-.35.12-.35.11-.36.1L40,33.06l-.43.12-.43.13-.45.14-.46.17-.34.14-.48.22-.25.12-.25.14-.24.13-.31.19-.35.22-.34.23-.34.24L35,35.5l-.32.25-.18.14.1-.33.18-.62.14-.62L35,34l.08-.46.09-.6.08-.59.06-.59,0-.58.07-1.1L35.5,28l0-.42,0-.38,0-.34.07-.42,0-.19,0-.1.17-.14.18-.13,1-.69.3-.21.32-.24.31-.25.24-.2.16-.15.34-.32.16-.18.17-.18.16-.2.15-.2.15-.21.14-.22.13-.23.11-.22.11-.24.09-.24.07-.23.07-.24.05-.25,0-.24,0-.24V20l0-.24,0-.25-.05-.24L40.23,19l-.07-.25-.09-.25-.1-.25-.24-.5-.14-.26-.11-.19-.26-.4L39,16.67l-.2-.28-.22-.28L38.5,16l-.23-.25-.12-.12-.26-.22-.27-.2L37.33,15l-.3-.17-.31-.16-.33-.15-.25-.09-.34-.12-.33-.09-.25-.06-.35-.06-.36,0h-.73l-.18,0-.25,0-.3.05-.29.06-.29.08-.28.09-.28.1-.27.11-.27.13-.27.15-.27.16-.26.18-.25.2-.24.21-.23.22-.21.23-.19.24-.17.23-.15.24L29,17l-.11.22-.11.22-.08.22-.08.21-.06.21-.11.4-.07.4,0,.29,0,.36,0,.36v.35l0,1.25,0,.52,0,.38,0,.16,0,.1-.23.19-.59.51-.29.26-.28.26-.27.27-.27.28-.26.28-.26.29-.24.3-.24.3-.23.32-.22.32-.19.32-.17.33-.17.33-.28.66-.12.33-.1.34-.1.35-.07.34,0,.21-.26-.22-.16-.15-.26-.28-.11-.14-.11-.16-.09-.16-.35.2.29-.31L22.37,28l-.08-.25-.06-.2-.08-.29-.08-.3L22,26.67,21.87,26l-.36-2-.12-.57L21.31,23l-.09-.39-.1-.38L21,21.88l-.12-.37-.17-.46-.15-.37-.17-.35L20.22,20,20,19.64l-.12-.16-.11-.16-.13-.16L19.52,19l-.14-.15-.15-.14-.15-.13-.16-.14-.16-.12-.17-.12-.18-.11L18.22,18,18,17.9l-.19-.09-.2-.08-.39-.12-.39-.1-.2,0-.2,0-.4,0h-.79l-.2,0-.39.06-.2,0-.19.05-.39.11-.19.06-.38.15-.38.17-.19.1-.37.22-.17.12-.18.12-.18.13-.17.15-.17.14-.17.16-.16.16-.15.17-.15.17-.15.18-.13.18-.13.19-.11.19-.11.19-.1.19-.09.2-.09.2-.07.2-.12.4,0,.2,0,.2,0,.21v.81l0,.2,0,.2,0,.2.05.2,0,.2.07.2.16.4.09.18.47.86.32.59,1.25,2.15.25.46.22.43.18.41.08.21.07.21.07.22.06.23.1.43.05.27,0,.29,0,.31.07.7,0,.39.06,1.08-.06.4-.16.86-.28,1.42-.17.92-.06.37-.06.39,0,.38,0,.39,0,.4v.8l0,.41,0,.41.07.41.07.3.11.42.13.41.08.22.09.22.2.41.11.2.11.19h0l.56.82,1.66,2.38L17.78,50l.75,1,.74,1,.64.85L20.75,54l.47.59.43.53.37.44.23.26.18.19.16.16.15.12.09.07.19.11.13.06.11,0,.17,0h.4l.17,0,.31-.05.23,0,.39-.11.62-.2L26,56l.55-.22.44-.19.56-.25.62-.31.4-.21.38-.24.19-.13.14-.1.11.09.53.48.16.13.18.14.19.13.2.13.22.12.22.11.18.06.14,0,.14,0,.15,0h.47l.23,0,.17,0,.19-.05.19-.07.19-.08.28-.13.25-.12.41-.23.44-.26.71-.44.75-.52.53-.37.55-.39.56-.42.57-.43.73-.56.58-.47.59-.48.58-.48.58-.49.57-.49.56-.49.67-.61.53-.48.5-.47.48-.47.45-.45.43-.44.2-.22.38-.42.35-.41.32-.4.17-.25L47,44l.13-.21.13-.23.09-.2.1-.25.1-.3.09-.29.07-.29.07-.3.11-.58.09-.59L48,40l.17-1.72.07-.67.08-.49.08-.45.1-.39.1-.32,0-.14.06-.12.09-.14h0l.18-.12.25-.12.4-.15.46-.14.94-.28.43-.14.3-.1.31-.11.32-.12.33-.15.32-.15.24-.13.35-.22.18-.12.18-.13.18-.14.18-.15.17-.16.18-.17Zm-1.49-2.08,0,.09,0,.18,0,.09,0,.07,0,.06-.06.1,0,.07,0,.06,0,.05-.11.08-.1.07-.12.07-.12.07-.18.08-.19.08-.2.08-.22.08-.24.08-.37.11-.93.28-.28.09-.28.09-.29.11-.29.11-.29.13-.23.12-.16.08-.16.09-.15.1-.16.1-.16.12-.16.12-.16.14-.16.14-.16.16L47,34.2l-.14.17-.08.1-.16.23-.1.16-.1.15-.08.15-.08.16-.1.21-.12.29-.1.3-.09.29-.07.29-.08.32-.06-.17-.08-.19-.17-.37-.18-.37-.2-.36-.1-.18-.11-.19L44.71,35l-.13-.19-.14-.18-.15-.17-.16-.17.06,0,.17-.12.17-.12.15-.13.16-.13.22-.19.27-.27.26-.27.24-.28.22-.28.22-.27.19-.27.28-.39.69-1,.24-.33.15-.21.16-.2.15-.18.15-.17.15-.16.15-.14.1-.09.14-.12.15-.11.16-.1.17-.1.1,0,.09-.05.1,0,.11,0,.11,0,.11,0,.14,0,.15,0,.16,0,.16,0h.71l.19,0,.18,0,.18,0,.17.05.17.05.16.06.15.07.15.08.11.06.06.05.13.09,0,.05.11.1.1.1,0,.06,0,.05,0,.06,0,.05,0,.06.06.13,0,.06,0,.06,0,.07,0,.21v.38l0,.08ZM30.54,23.34l.11-.21.09-.21.08-.19.06-.19.05-.18,0-.17L31,22l0-.17,0-.16,0-.17,0-.25V19.37l0-.3v-.28l0-.28,0-.19,0-.12,0-.11,0-.11,0-.1,0-.1,0-.09,0-.07,0-.07,0-.06,0,0,0-.06,0,0,.05,0,.08-.06.06,0,.08,0,.09,0,.11,0,.13-.05.15-.05.17,0,.18,0,.3-.05h.71l.12,0,.11,0,.17,0,.24.07.25.08.17.06.12,0,.11.06.12,0,.22.12.2.12.1.07.09.07.09.07.09.06.08.07.14.14.06.08.27.34.17.23.16.23.14.22.15.26.11.2.1.2.08.18.07.18.06.17,0,.16,0,.15,0,.15,0,.14v.56l0,.09,0,.08,0,.07,0,.07,0,.07,0,.06,0,0,0,.06-.08.1-.1.12-.13.12-.14.13-.13.11-.2.16-.2.15-.23.16-.73.52-.26.18-.26.2-.27.21-.21.18-.15.13-.14.14-.14.15-.14.16-.13.17-.13.19-.12.19-.06.11-.06.13-.08.2-.08.2-.06.2,0,.2,0,.2,0,.2,0,.14-.35-.25L32,26.43l-.5-.27L31.14,26l-.35-.18-.36-.17-.37-.17-.31-.11-.23-.07-.28-.05-.34.05-.28,0h-.05l.16-.14.46-.4.46-.38.2-.18.21-.22.18-.22.17-.23ZM44.41,43.11l-.24.31-.24.29-.44.5-.36.37-.39.4-.42.42-.39.38,0-.29,0-.38-.07-.37-.09-.33-.1-.33-.1-.32-.12-.31-.13-.31-.14-.29L41,42.56l-.16-.29-.34-.54-.36-.51-.39-.49-.2-.24-.21-.24L39.09,40l-.46-.46-.25-.22-.26-.22-.29-.21-.37-.25L37,38.53l-.36-.08-.39-.08h0a1,1,0,0,0-.36-.06h0l.53-.41.24-.18.24-.16L37,37.4l.26-.16.33-.2.14-.07.29-.14.38-.16.33-.12.33-.11.34-.1.36-.09L41,36l.56-.14.1.54.23.33.34.45.3.41.17.27.16.28.14.29.48,1.07.15.36.19.39.21.34.23.32a.94.94,0,0,0,.62.56l-.08.55-.09.42-.09.36L44.5,43ZM19.88,44.54l.78-.55,1.07-.73,1.09-.77.83-.62.57-.45.53-.47.53-.48.2-.21A1.26,1.26,0,0,0,26,39a.94.94,0,0,0-.93-.71,1.19,1.19,0,0,0-.65.2l-1.34.73-.53.32-.82.51-1.09.7-1.09.73-1.39.93-.56.4-.25.19-.53-.77L16.66,42l-.08-.15-.16-.29-.15-.31L16.15,41,16,40.73l-.1-.33-.07-.27,0-.28,0-.28,0-.28V38.4l.11,0,.57-.3,1-.59,1-.58.51-.28.79-.43,1.07-.6,1.09-.67.83-.56.77-.57.25.19.41.3.36.31.17.16.16.16.15.15.13.17.1.12.16.24.12.2,0,.14.06.26.08.35.08.42.08.48.13.82.13.94.14,1,.13,1.09.16,1.33L26.75,45l.2,2.12.12,1.47.08,1,.06.94,0,.83,0,.48v.48l-.38.18-.27.12-.65.26-.53.2-.31.11-.23.07-.28-.32-.36-.44L24,52.15l-.61-.79-.66-.88-1-1.33-1.11-1.53-.73-1-1-1.38ZM13.61,25.23l-.48-.95-.38-.82-.1-.24L12.57,23l-.05-.22,0-.22v-.39l0-.17,0-.18-.39-.1.43,0,.09-.21-.36-.17.41.07.06-.1.07-.09.08-.08.13-.13.1-.08.12-.08.22-.12.16-.08.18-.07.09,0,.2-.05.19,0,.21,0H15l.22,0,.23,0,.23.05.23.07.18.07.14.06.11.05.19.12.18.13.17.15.16.17.15.19.14.2.14.23.12.24.12.27.11.27.13.36.09.31.09.33.08.33.07.34.17.89.22,1.29.19,1.12.15.73.08.35.1.35.13.43.14.4.11.25.15.28.16.27.14.19.18.24.19.22.2.21.21.21L21,32l.38.31-.26.1-1.07.49L19,33.43l-1.88,1-.54.31-.44.25.07-.64,0-.38,0-.38,0-.39v-.79l0-.39v-.14a1,1,0,0,0-.47-.8l0-.33-.05-.34-.05-.32,0-.24-.06-.3-.08-.29L15.35,29l-.09-.27-.1-.27-.22-.53-.11-.26-.26-.53Zm13.42,6a1.33,1.33,0,0,0-.72.23L26,31.25v-.13l.05-.56.05-.31.05-.29.06-.28.07-.27.07-.25.09-.25.08-.23.1-.22.1-.22.1-.2.11-.2.12-.19.13-.2.32.42.4.19.77.28.33.13.32.14.31.14.54.27.75.34.6.22.48.14.38.06,0,1.48,0,.84L31.91,32l-.8-.22-.78-.19-.82-.2-.91-.19-1.06,0Zm1.66,3.43,1,.21.89.13.7.06.52,0H32l0,.2-.12.49-.13.47-.16.46-.08.22-.09.21-.1.21-.1.21-.11.2-.11.19-.24.38-.14.18-.13.17-.15.17-.32.34-.17.16-.19.16-.15.12-.18-1.34-.14-1L29,36.4l-.09-.54-.09-.49-.09-.43ZM32.1,53.38,32,53.33l-.11-.06-.25-.16-.72-.54-.18-.13a.9.9,0,0,0-.24-.12l0-.21v-1l0-.49-.06-1.13-.07-1-.08-1-.09-1.11-.11-1.13a1.9,1.9,0,0,0,.58-.62l.45-.75.36-.57.38-.57.38-.55.4-.53.4-.52.41-.5.42-.47.46-.48a1,1,0,0,0,0,.34.83.83,0,0,0,.22.49l.37.59.22.37.33.29.65.53.39.36.36.36.18.19.16.19.16.2.16.2.15.21.3.44.28.45.4.69.41.75.15.26.56.95a1,1,0,0,0,.1.17l-.69.62-1.1.94-.95.8-1.06.86-.51.4-.49.37-.48.35-.44.33-.41.28-.38.25-.34.21-.14.09-.33.17-.14.07-.08,0-.15.39v-.41Z"/><path d="M9.85,32.48a1.25,1.25,0,0,0-.52.11l-.45.07-.5.27-.32.24-.38.32-.95.8-.35.31L6,35l-.25.25-.43.49a1.36,1.36,0,0,0-.57,1.11,1,1,0,0,0,1,.9,1.08,1.08,0,0,0,.46-.1l.11,0,.34-.1.36-.14.34-.2L7.55,37l.3-.2.38-.29.88-.69.33-.25.28-.22L10,35l.26-.37a1.54,1.54,0,0,0,.6-1.29A1,1,0,0,0,9.85,32.48Z"/><path d="M6.25,31.2,7,30.93l.64-.34L8,30.23l.09-.08A1.74,1.74,0,0,0,9,29.09a1.06,1.06,0,0,0-.18-.92A1,1,0,0,0,8,27.79l-.18,0-.4-.08-.7.19-1.95.79L4,29l-.54.28-.41.24-.36.26-.35.28-.08.07a1.44,1.44,0,0,0-.71,1,1,1,0,0,0,.22.8,1,1,0,0,0,.74.33.79.79,0,0,0,.29,0l.36,0,.35,0L3.89,32l.47-.14L5,31.66Z"/><path d="M2.31,26.16,3,26l.46-.1.29-.06L4,25.81l.29,0L5,25.69l.5-.13.59-.26a1.73,1.73,0,0,0,1.09-.78,1.19,1.19,0,0,0,.1-1.21,1,1,0,0,0-.42-.42l-.13-.1-.35-.27-.69-.1-.48,0-.4.06-.39.08-.38.09-.93.23-.73.23-.55.2-.42.17L.58,24a1.47,1.47,0,0,0-.87.77,1,1,0,0,0,0,1,1,1,0,0,0,.77.43l.44.08.38,0,.45,0Z"/><path d="M2.81,20.11l.15.35.52.33.8.18.32.09.51.16.56.13.64.08.61,0,.35-.06h0a1.36,1.36,0,0,0,1-.58,1.11,1.11,0,0,0,.2-1,.93.93,0,0,0-.26-.39l-.16-.22-.36-.37-.5-.31-.52-.25-.81-.31-.27-.09-.3-.09L5,17.58l-.56,0-.61.26a1.71,1.71,0,0,0-1.07.74,1.21,1.21,0,0,0-.15,1.2A1,1,0,0,0,2.81,20.11Z"/><path d="M8.08,15.82l.11.14.12.13.17.17.21.19.22.17.45.35.27.18.41.22.63.25.54.1.31,0a1,1,0,0,0,.3,0,1.34,1.34,0,0,0,.94-.44,1.27,1.27,0,0,0,.35-.95A1,1,0,0,0,13,16l-.15-.38-.28-.5-.4-.45-.32-.29-.33-.27L11.38,14l-.13-.13-.13-.15-.27-.34-.11-.13L10.45,13l-.6-.08a1,1,0,0,0-.49-.12,1.46,1.46,0,0,0-.92.38,1.54,1.54,0,0,0-.6,1.21l0,.22,0,.22,0,.43.2.41Z"/><path d="M14.5,15.61l0,0a.88.88,0,0,0,.19.34,1,1,0,0,0,.72.31,1.09,1.09,0,0,0,.54-.14,1.43,1.43,0,0,0,.69-.79l.13-.26.28-.61.18-.56.11-.48.07-.39.1-.45.11-.55-.11-.82-.15-.13a1.18,1.18,0,0,0-.16-.29,1,1,0,0,0-.8-.38,1.24,1.24,0,0,0-.49.11,1.83,1.83,0,0,0-.92.9l-.22.27-.34.73-.12.56-.13.94,0,.51.05.57Z"/><path d="M23.16,20.19l.19.18.18.16.57.43.23.16.25.14.3.12.43.14.72,0,.14,0a.68.68,0,0,0,.2,0,1.31,1.31,0,0,0,1-.47,1.18,1.18,0,0,0,.32-1,1.06,1.06,0,0,0-.12-.34l-.05-.16-.25-.54-.3-.36-.19-.19-.17-.16-.27-.22L26.18,18l-.11-.11-.5-.57-.52-.27h-.47a1.33,1.33,0,0,0-.34,0,1.51,1.51,0,0,0-1,.42,1.53,1.53,0,0,0-.53,1.22l-.08.6.21.58Z"/><path d="M32.07,10.81l.48.79.27.14a1,1,0,0,0,.7.29,1.23,1.23,0,0,0,.65-.2,1.49,1.49,0,0,0,.62-.86l.19-.41.21-.87,0-.8,0-.54-.52-.69-.18,0a1,1,0,0,0-.65-.23,1.28,1.28,0,0,0-.66.19,1.85,1.85,0,0,0-.79.93l-.17.2L32,9.38V9.9l0,.33Z"/><path d="M38.74,15.21l.12,0h.08a1.29,1.29,0,0,0,.92-.43l.39-.24.35-.26.3-.24.35-.31.36-.29.45-.4.42-.54.08-.22a1.23,1.23,0,0,0,.18-1.51,1,1,0,0,0-.83-.43,1.38,1.38,0,0,0-.76.25l-.17,0-.59.33L40,11.3l-.62.56-.21.21-.2.21-.21.23-.19.26-.2.31-.15.34-.1.28a1.11,1.11,0,0,0-.09.92A.94.94,0,0,0,38.74,15.21Z"/><path d="M41.73,21.59l-.17.33-.18.63,0,.46,0,.25,0,.23.16.68.08.27.1.27L42,25l.16.26.23.3.36.24.17.07a1,1,0,0,0,.66.25,1.35,1.35,0,0,0,1.28-1.3l.06-.39,0-.38v-.34l-.05-.5,0-.24-.07-.38,0-.17-.06-.68-.07-.44-.48-.57L44,20.62a1,1,0,0,0-.74-.31,1.44,1.44,0,0,0-.74.24A1.73,1.73,0,0,0,41.73,21.59Z"/><path d="M47.75,22l.17.4.13.26a1.2,1.2,0,0,0,.23.37,1,1,0,0,0,.69.28,1.21,1.21,0,0,0,.6-.17,1.4,1.4,0,0,0,.66-.87l.33-.89.09-.36.11-.5.11-.64L51,18.8l0-.35v-.36l0-.44L50.77,17l-.43-.3a1,1,0,0,0-.79-.37,1.39,1.39,0,0,0-.79.27A1.71,1.71,0,0,0,48,17.75l-.22.58-.08.47v1.27l0,.45,0,.62,0,.47Z"/><path d="M64.38,29.35a.82.82,0,0,0-.21-.42L64,28.74l-.13-.16-.14-.16-.28-.25-.36-.2-.35-.15-.35-.1-.34-.08-.31,0-.41-.06-.54-.07-.41-.07-.4,0-.52,0-.5.17a1.6,1.6,0,0,0-1.21.67,1.27,1.27,0,0,0-.25,1.19.94.94,0,0,0,.2.35l.3.52.6.3.49.08.47,0,.58,0,.74.06.59,0,.66,0,.62,0h.13l.19,0a1.35,1.35,0,0,0,1-.5A1.2,1.2,0,0,0,64.38,29.35Z"/><path d="M61.28,37.22,61,36.85l-.26-.35-.3-.28-.41-.34-.55-.42L59,35.1l-.56-.38L58,34.41l-.38-.22L57,34l-.63,0h-.25a1.57,1.57,0,0,0-1.13.58,1.38,1.38,0,0,0-.37,1.13,1.16,1.16,0,0,0,.15.38l.21.55.41.45.4.24,1,.57.62.38.67.34.53.22L59,39l.46.06.42,0H60a.93.93,0,0,0,.24,0,1.33,1.33,0,0,0,1-.49,1.21,1.21,0,0,0,.29-1A.76.76,0,0,0,61.28,37.22Z"/></svg>