<svg xmlns="http://www.w3.org/2000/svg" width="64" height="64" viewBox="0 0 64 64" fill="#1FA28F"><path d="M34,47.76l-.06-.15,0-.16a.77.77,0,0,0,0-.5l-.33-.52-.65-1-2.19-2.76-.63-.6-.46-.39-.47-.37-.5-.35-.53-.33-.56-.31-.29-.15L27,40l-.72-.26-1.09-.33-1.09-.3-.7-.23-.68-.26-.65-.33-.33-.22-.29-.21-.61-.47-.91-.78-1.19-1.09-1.2-1.1-.92-.8L16,33.11l-.65-.47-.67-.44-.7-.4-.73-.34-.78-.28-.8-.2-.39-.07h-.17l-.1,0-.13,0-.15,0-.14.06-.18.08-.15.09-.23.14-.11.08-.34.28-.3.31-.16.19-.16.2-.17.28a1.62,1.62,0,0,0-.1.18L8.63,33a1.15,1.15,0,0,0-.06.17l0,.12c0,.05,0,.1,0,.21l0,.34-.17.79-.06.51v.4l0,.26.54,2.49L9,39.62l.11.86,0,.83,0,.55,0,.36,0,.26-.1.27-.15.33-.27.5-.36.72L7.9,45l-.24.64L7.17,47l-.48,1.43-.45,1.47-.39,1.49-.32,1.5-.23,1.5-.11,1.13,0,.75v.39a.61.61,0,0,0,0,.15l.06.21-.1.18a1.68,1.68,0,0,0-.29,1c0,.08,0,.19.28.19a2.19,2.19,0,0,0,1.14-.47l.54-.37.91-.57.89-.47,1-.44,1-.41,1-.36,1.08-.33,1.11-.3,1.72-.4,2.34-.46,2.37-.43,2.41-.45,1.27-.26.48-.11,1-.28,1.5-.47,1.43-.46.91-.27.91-.22.91-.17.42-.05a3.73,3.73,0,0,0,2.32-1.91A1.24,1.24,0,0,0,34,47.76ZM18,40.21l.62.49L19,41l.27.17.68.36.73.29.75.24,1.15.32,1.1.33.68.26.28.13.3.15.55.31.51.32.49.34,1.2.94-5.59.72-1.67.26-1.12.23-.59.14-.15,0-.19.07-.2.08-.66.27-1.17.37a4.28,4.28,0,0,1,.27-1.78h0l.09-.21.15-.43.11-.37c0-.06,0-.12,0-.14v-.12l0-.39-.19-2.21-.28-2.72Zm10.5,8.72-1.34.42-.92.25-.49.12L24.62,50l-2.4.45-2.43.44-2.44.49-1.83.42-1.23.34-1.23.38-1.24.44-1.24.51L9.33,54l-1.25.69.06-1.41.09-1,.2-1.36.29-1.37.35-1.37.41-1.36.45-1.34.47-1.31.21-.54.08-.23.84-1.65.31-.78.15-.53,0-.25,0-.25,0-.46,0-.68v-.19a.49.49,0,0,1,0-.12c0-.12,0-.26,0-.41,0-.43-.11-.94-.17-1.33,0-.13,0-.25-.06-.34l0-.19-.27-1.47L13.19,36l0,2.85,0,.39.1.77.14,1.25.14,1.28.16,1.63L14,45.9l0,.6-.47,1.13-.23.59-.2.65-.11.52,0,.35V50l.06.28.14.22.41,0,.29-.06.28-.1.27-.09.69-.28,1.14-.47.67-.26h0l0,0h0l.41-.1,1-.2L20,48.75l4.31-.55L25.51,48l.24,0,.68-.2,1-.41L29,46.65l.5.63.76,1.09Z"/><path d="M50.6,60.3l-1-.06-1-.09L47.26,60,47,60h-8.1v0h-.08l-.06,0h0l-.69.2-.34.08-.33,0-.33-.08L37,60.06l0-.15,0-.21-.06-.3-.12-.75L36.61,58l-.24-1.83-.17-1.49h0l-.93-9.8-.66-6.52L34,33.48l-.42-3.26-.23-1.63a2.55,2.55,0,0,1,.8-1.65l.76-.83H33.82c-.23,0-.27-.07-.28-.1s0-.57.27-1.11a3.57,3.57,0,0,1,2.34-1.75h.43l.9,0L38.89,23l1.92-.26,1.92-.33,1-.17.78-.14,1.47-.19,1.46-.14,1.46-.08L51,21.63h4.44l2.63-.07h.67l.25.06h0s0,0,0,.05l.08.2.06.29,0,.31v.35l0,.38,0,.41-.09.63-.14.82-.36,1.83,0,.28-.1,1.12-.12,2.36L58.15,33,58,34.84,57.88,36l-.15,1.07-.12,1.08-.11,1.7-.07,2.33,0,1.75-.05,1.16,0,.55,0,.48-.09.85L57,48.22l-.27,1.55-.24,1.53-.08.8,0,.23,0,.63V54.4l0,.77-.1.81-.19.84-.25.68-.24.47-.06.1a3.55,3.55,0,0,1-.32.47l-1,1-.92.52-.51.16-.45.08-.45,0-.48,0Zm2.32-27.51a.34.34,0,0,1,.24.07.54.54,0,0,1,0,.4l-.1.53L52.93,35l-.13,1.29-.1,1.36-.06,1.41,0,1.46,0,2.23v6.79l0,1.46-.06,1.43-.09,1.38-.12,1.32-.07.61a2.22,2.22,0,0,1-.32.81l-.43.71,1.93.11,0-.68V55.35l0-.67,0-.34.09-.84.25-1.65.28-1.61.17-1.17.08-.76,0-.35,0-.57,0-1.13,0-1.72.08-2.33.11-1.75.12-1.17,0-.16h.07v-.5l.08-.51L55.07,37l.13-1.72.11-2.33.1-1.95-.51,0a.36.36,0,0,1-.21,0l-.08-.09-.26-.21-.28-.17-.28-.11-.27-.05-.22,0-.38,0-.65.16-.76.27-.86.33-.86.27-.42.09-.49.05-.71,0-.59-.12L47,31.13l-.78-.35-1-.52L44.72,30,44.57,30l-.42-.12-.44,0h-.44l-.46.08-.45.11-.8.26-1.21.47L39,31.18l-1,.26-1,.16.49,4.23.67,6.54,1,10.08.15,1.2.11.89.12.92.16,1,.13.83L40.9,57l.07-.41-.07-1.79,0-1.22-.09-1.76-.14-2.27-.17-2.24-.2-2.27-.18-1.75-.13-1.2-.3-3.51-.24-2A3.2,3.2,0,0,1,41,34.35a2.12,2.12,0,0,1,1.09-.43c.26,0,.28.11.29.21l.25,2,.14,1.25.13,1.22.34,4,.2,2.28.17,2.26.14,2.28.09,1.77.11,2.48.07,2a1.42,1.42,0,0,1-.19.69l-.34.72H45.2l0-2.8,0-2.68,0-2.61,0-5.19V36.88a3.5,3.5,0,0,1,1.73-2.34,1.86,1.86,0,0,1,.93-.32c.22,0,.29.06.29.29V46.58l0,2.6.06,4.75,0,2.16a1.23,1.23,0,0,1-.06.32l-.17.64h1.4l.1-1,.08-1.32,0-1.39,0-1.43V45.13l0-2.25,0-1.48L49.75,40l.1-1.4L50,37.21l.19-1.29.11-.65a3.8,3.8,0,0,1,2-2.3A1.6,1.6,0,0,1,52.92,32.79ZM40.73,25.31l-1.95.34L36.32,26l.24,1.69.21,1.63.66-.41a2,2,0,0,1,1-.36h.11l.26.06.48,0,.44,0,.43-.08.7-.2,1-.37,1.11-.42.93-.32.68-.18.67-.13.66-.05.64,0,.6.13.29.11.54.25,1.07.55.78.35.52.17.51.08h.56l.16,0h0l.16,0,.57-.2.64-.24.77-.28.89-.25.74-.12h.6l.18-1.08.08-.54,0-.33,0-.84H56l.14-.08-.52.06-2,.07h-5l-2.15.05-1.4.09-1.4.12L42.32,25l-.65.11Z"/><path d="M42,19.74a.43.43,0,0,1-.29-.08l-.21-.23L41.18,19l-.25-.42-.18-.43-.12-.45-.07-.48v-.49l.05-.55.16-.82.33-1,.4-.95.4-.86.38-.77.31-.66.25-.58L43,10l.08-.46,0-.3V8.9l-.06-.33-.11-.34-.17-.35-.24-.35-.33-.37L42,7a.43.43,0,0,1-.09-.27,3.12,3.12,0,0,1,1-1.91,3.25,3.25,0,0,1,2-1.09.45.45,0,0,1,.28.07l.19.18.34.36.28.38.21.4.15.41.1.44,0,.46v.48l-.1.74-.28,1-.41,1-.44,1-.44.88-.37.79-.28.7-.18.63-.06.43v.26l0,.3.06.32.11.33.15.34.22.35.29.35.16.18c.24.25,0,1.27-1,2.22a3.11,3.11,0,0,1-1.9,1Z"/><path d="M49.49,18.79a.56.56,0,0,1-.21,0L49,18.63l-.4-.23-.3-.26-.22-.3-.17-.34-.11-.38-.05-.41v-.45l0-.47.08-.52.2-.76.32-1,.36-.94.69-1.71.28-.76.17-.54.07-.3L50,9l0-.27V8.48l0-.25L50,8l-.1-.25-.2-.3-.23-.21-.23-.16s-.09,0-.11-.21A2.71,2.71,0,0,1,50,5,3.38,3.38,0,0,1,52.1,3.77a.46.46,0,0,1,.25.06l.16.1.29.25.24.29.17.33.12.37.07.41V6l0,.48-.08.5-.11.51L53,8.27l-.36,1-.4,1-.38.93-.32.85-.24.77-.11.48,0,.28,0,.27,0,.27,0,.25.1.25.14.23.2.21.25.19.31.16.16.07a.22.22,0,0,1,.13.17,2.32,2.32,0,0,1-.7,1.7,3.55,3.55,0,0,1-2.26,1.44Z"/></svg>