<svg xmlns="http://www.w3.org/2000/svg" width="64" height="64" viewBox="0 0 64 64" fill="#1FA28F"><path d="M62.49,20.21l-.34-4.28a1.11,1.11,0,0,0-.09-.84,1,1,0,0,0-.88-.53l-1.55-.06-1.55-.05-2.06,0-2.07,0H51.87l-2.08,0-3.13.07-2.57.07-1.54,0-.14-1.12L42.34,13l-.08-.46-.08-.48-.1-.47L42,11.09l-.13-.47-.11-.35-.16-.47-.19-.47-.11-.23-.11-.23L41,8.64l-.13-.22-.13-.22L40.63,8l-.14-.19-.17-.22-.15-.17L40,7.25l-.16-.15L39.7,7l-.17-.13-.18-.13-.17-.11L39,6.47l-.18-.1-.38-.19L38.05,6l-.3-.12-.39-.14L37,5.63l-.39-.11-.39-.09-.38-.09-.63-.11-.51-.08-.11.39V5.12l-.42-.18-.19-.07-.51-.14-.28-.07-.57-.11-.29,0-.29,0-.29,0-.3,0H30.8l-.62,0-.31,0-.32,0-.3,0-.31.06-.21.06-.27.1-.29.12L27.93,5l-.43.22-.39.14-.43.16-.42.18-.2.1-.21.1-.6.36-.19.14-.2.14-.19.15-.18.16L24.31,7l-.16.17L24,7.33l-.23.26-.26.32-.24.32-.21.3-.34.55-.31.51-.23.29-.17.25-.2.32-.18.33-.11.26,0,.16-.08.26-.07.29-.06.29-.06.29-.09.59,0,.29L21,13.8l0,.75v.35L18,15l-6,.12-3.08.16-3.12.2-1.5.11a1.86,1.86,0,0,0-1.48.94,1.54,1.54,0,0,0-.22.63,1.31,1.31,0,0,0-.2.62l-.05.38-.08.75-.06.74-.05.75-.07,1.1L2,23l0,2.43v1.33l0,.66L2,28l-.05.65-.06.66v.74l0,1.08v.52l0,.57,0,.34V33l0,1.13v.55L1.7,35.87l-.05.64,0,.65,0,.65,0,.66,0,.66v2l0,.66,0,.66,0,.65.06.65.07.65L1.8,45l.08.6,0,.21,0,.55,0,.47,0,1.52,0,.54,0,.55,0,.41,0,.28,0,.28.05.28,0,.28.07.28.08.28.09.29.1.27.12.28.13.27.15.26.16.26.17.25.16.19.11.12.12.11.13.11L4,54l.13.09.39.21.28.12.37.14.29.09.31.09.34.08.33.06.34.06.69.1.72.08.54.05.89.06.63,0a1.08,1.08,0,0,0,.49.21l.51.09.35,0,.36,0,.5,0,.66,0,.64,0,.61,0,.43,0,.28,0,.62.09.9.11,1,.11,1.09.07,1.11.06,1.13,0,1.16,0h2.05l1.18,0,1.17,0,.88,0,1.15,0,1.13-.05,1.11-.06,1.07-.07L33.8,56l.35,0,.71,0h.55l2.31,0h1l.41,0,.41,0,1.38-.11,1.43-.1.73,0,.72,0,.49,0h1.43l.93,0,1.06.06h.36l.46,0,1.24-.08h.8l.37,0,.57,0,.57,0,.58,0H54.4l.79,0,.25,0h.26l.19,0,.19,0,.18,0,.23,0,.23-.06.23-.07.22-.08.23-.09.22-.09.22-.11.22-.12.22-.12.21-.14.2-.14.21-.15.2-.16.19-.17.18-.17.18-.18.17-.18.17-.19.16-.19.3-.39.27-.4.13-.21.23-.41.21-.42.14-.32.17-.42.15-.42.13-.42.12-.43.1-.42.08-.42.07-.43.06-.42,0-.42,0-.42V45.49l0-.4,0-.39,0-.38-.11-.72,0-.2,0-.56V41.45l0-.82,0-.65,0-.55-.08-.65,0-.65V37.08l0-.71,0-.72.05-.71.06-.7.06-.66,0-.27v-.82l0-1.22v-.61l0-.16.05-.57.09-.93.07-.93.06-.92,0-.93,0-.92,0-.93,0-.92,0-1.39ZM54.11,53l-.72-.08-.49-.07-.49-.07L52,52.69l-.07-.08H51.6l-.31,0-.46,0-.34,0h-.41l-.77,0H49l-.25,0-1-.11-.49,0-1-.06-.5,0h-1l-1.5,0-.5,0-1,0-1.34.08-.7,0h-.9l-2.31,0h-1l-.41,0-.41,0-.92.07-1,.06-1.05.06-1.08.06-1.1,0-1.12,0-.84,0H23.27l-1.12,0-.54,0-1.08-.06-.52,0-1-.07-.5,0L17,52.3h-.79l-.39,0-.57,0-.72.08-1.37.15-.84.07-.39,0-.57-.08-.59-.08-.62-.1-.46-.09-.77-.15L8.35,52l-.54-.15-.51-.16-.22-.08-.2-.08-.21-.09-.15-.07-.17-.11-.11-.12L6.14,51l-.08-.15L6,50.66l-.07-.17-.07-.18-.06-.18,0-.19,0-.2-.05-.2,0-.21-.05-.43,0-.57,0-.48V45.24l0-.4,0-.54,0-.27-.06-.4-.06-.58-.06-.59,0-.61,0-.6,0-.62V38.79l0-.62,0-.62,0-.61,0-.61,0-.6.06-.59.09-.83,0-.06v0l0-.36,0-.34v-.43l0-1.11v-.54l.07-.61,0-.34v-2l.06-.61.07-.73,0-.72,0-.72V24.25l0-1.06-.07-1.44-.06-.53.15.12.24.22.17.19.14.16.48.65L7,22.8l.16.18.12.13.13.13.13.1.17.14.23.17.21.13L8.5,24l.15.09.18.13.31.26.4.36,1.17,1.07.45.39.36.29.25.19L12,27l.27.18.24.16.22-.34-.14.41.07.07.44.48.19.2.16.14.17.14.2.14.21.11.18.08.09,0a1.15,1.15,0,0,0,.41.08h0l.07,1.22,0,.69V31l0,.5,0,.27-.07.34,0,.2,0,.19v.32l0,.18.06.25.13.28.13.18a1.43,1.43,0,0,0,.25.24l.05,0,.38.16.39,0,.23,0,.26-.05.3-.08h.33l.72,0h.38l.78.13.19,0h.64l.26,0,.24-.06.22-.07.22-.1.25-.14.16-.1.23-.18.33-.33.35-.46.21-.44.11-.44V31.5l-.05-.28-.05-.2-.05-.33-.06-.51-.07-.81.64.13,1.47.12,1.44,0H28a1.79,1.79,0,0,0-.62.6,1.22,1.22,0,0,0-.11,1.05,1.36,1.36,0,0,0-.11.51v.87l0,.38.18,2.12-.94-.11-.39,0-.66,0-.54,0h-.67l-.33,0-.17,0-.25,0-.17,0-.26.09-.43.24-.58.47-.53.74-.2.63v.48l.07.29.09.21,0,0,.05.29,0,.34,0,.32,0,.34,0,.68v.88l-.05,1.48,0,.77v.26l-.13.63,0,.22,0,.18v.4l0,.17.05.19.07.19.12.2.09.12a1.34,1.34,0,0,0,.79.41h.27l3.83-.27v.53l-.05,1.51,0,1.19v.74l0,.27,0,.19,0,.1,0,.14,0,.12.12.22.1.14a1.81,1.81,0,0,0,.23.21l.24.14.25.08.2,0h.32l.16,0,.17,0,.17,0,.31-.07.58-.15h5.61l.56,0h.66l.18,0,.19,0,.22,0,.25-.08.27-.12.2-.11a2.35,2.35,0,0,0,.36-.27l.48-.49.3-.51.13-.33,0-.23,0-.15v-.54l0-.16-.06-.55-.25-1.81,1.82-.14.8-.07.32,0,.2,0,.25,0,.14,0,.21-.08.45-.24.69-.68.07-.1a2.46,2.46,0,0,0,.28-.53L44,44l.08-.3.06-.31,0-.27v-.25l0-.23,0-.29L44,42l-.09-.43,0-.25v-.13l0-.26L44.1,40l0-.28,0-.2V38.35l0-.58v-.36l0-.59v-.47l0-.16,0-.19L44,35.74l-.12-.18a1.27,1.27,0,0,0-.35-.3l-.07,0-.31-.1-.22,0h-.23l-2.54.08H38.79L38.7,33l0-.57-.05-.69,0-.53,0-.48-.07-.46-.06-.35,0-.21-.06-.19,0-.1,1.28-.07,2.25-.18.86-.09,0,1.12,0,1.32-.08.78,0,.31v.34l0,.19,0,.17,0,.11.07.2.11.21.1.13a1.34,1.34,0,0,0,.26.23l.22.12.22.07.18,0h.52l.34,0,1.25-.1.15,0,.68.1.16,0,.36,0h.42l.19,0,.19,0,.19,0,.26-.11.23-.13.25-.17.3-.26.32-.35.23-.33.15-.3.09-.22.07-.19,0-.18,0-.2,0-.24v-.43l0-.38,0-.33-.05-.28L50,29.39,50,29l0-.24a2,2,0,0,0,1.23-.9l.11-.09.07,0,.45-.25L52,27.3l.27-.2.54-.43.25-.21.26-.24.28-.27.27-.3.16-.19.14-.17.64-.86.11-.14.16-.17.3-.25.79-.63.32-.28.26-.23.2-.19.36-.38.2-.25.16-.21.22-.34.07-.05.75-.51.22-.17-.06.67-.06,1.84,0,2.27,0,1.78,0,.89,0,.89-.06.88-.11,1.3,0,.42v.83l.06,1.24V34l0,.5-.08.88-.06.75,0,.78,0,.8v1.2l0,.4,0,.39,0,.39.11.88,0,.52,0,.58,0,1.27,0,.64,0,.54,0,.3,0,.3.12.61,0,.28,0,.3,0,.31,0,.31v1l0,.32,0,.33,0,.31-.05.31-.06.31-.07.29-.08.3-.08.27-.1.27-.07.19-.16.34-.12.23-.11.19-.17.25-.18.22-.14.14-.14.12-.23.18-.19.11-.21.11-.23.09-.21.07-.18.05-.25,0-.25,0-.27,0-.9,0h-.28Zm-28-43.48.17-.21.1-.11.1-.07.1-.06L26.69,9l.19-.08.24-.1.54-.2L28,8.48l.26-.13.46-.24.29,0,.2,0,.2,0H30l.43,0,.22,0,.43.07.44.09.53.13.07,0,.35.16.18.07.22.06.22.06.35,0,.52.08.31.06.31.07.32.07.31.08.32.09.3.11.22.08.28.11.26.13.24.13.21.13.18.14.15.14.1.11.16.19.1.14.09.15.19.31.17.32.16.34.14.35.1.28.12.38.11.39.11.4.1.4.14.66H31l-1,0-1,0-2,.07-2.41.08.06-1.23,0-.38,0-.5,0-.24L24.8,12l.08-.42.07-.33.19-.25.15-.22.12-.19L25.8,10,26,9.69ZM28,18.28l1,0,1,0,1,0,1.5,0H38.6l1,0,0,.47,0,.39,0,.28,0,.29.06.32V20l0,.08.13.57.06.3,0,.19.05.41a1.06,1.06,0,0,0,1.07,1,1.2,1.2,0,0,0,.67-.21,1.5,1.5,0,0,0,.77-1.2v-1l0-.39-.07-.8v-.63l0-.29,1.21,0,2.12-.11,5.31-.3,2.14-.14,2.14-.13,2.14-.12,1.15-.06-.84.73-.09.06-.17.11-.54.3-.34.21-.29.19-.22.16-.23.19-.27.24-.25.27-.21.26-.3.43-.12.11-.3.27-.82.64-.31.26-.29.25-.19.18-.24.24-.26.29-.24.28-.2.26-.56.71-.16.16-1,.78L50,25l-.32.36,0-1.76,0-.63.07-.64,0-.31v-.17l0-.19,0-.2,0-.16,0-.11-.09-.2-.05-.08-.07-.09-.09-.09-.12-.11-.08-.06-.24-.12-.37-.08h-.28l-.23,0-.22.06-.21.08-.2.09-.22.11-.25.05-.23,0-.86.08-.31.05-.23,0-.51,0-.21,0-.16,0-.18,0-.18.05-.17.06-.16.08-.2.13-.24.22-.25.31-.15.32-.06.35v.2l0,.21a.94.94,0,0,0,.25.43,1,1,0,0,0,0,.23l0,.24-.08.53-.11.77-.12,1-.32,0-2.08-.15L37.51,26H29.74l-4.29-.06L23.91,26l-2,.24,0-.75L22,23.32l0-.87v-.27L22,22,22,21.78l-.07-.17-.06-.09a.79.79,0,0,0-.21-.24l-.07-.06-.25-.15L21,21l-.24,0h-.25l-.24.05-.22.06-.14.06-.12.05-.12,0-.13,0-.16,0-.17,0-.19,0-.33,0-.86,0-.28,0-.28,0-.29,0-.31.06-.29.07-.07,0a1.65,1.65,0,0,0-1.08.92,1.17,1.17,0,0,0,0,.84,1.36,1.36,0,0,0-.22.71l0,.39,0,.29-.1-.14-.12-.12-.42-.44-1.23-1.38-.4-.43L12.35,22l-.45-.43-.34-.3-.16-.13-.22-.16-.69-.44-.12-.09-.11-.1-.1-.1-.08-.1L10,19.92l-.47-.68L9.29,19l-.16-.2L9,18.7l2,.06,3,0,3-.06,3-.09,1.16,0,0,.43.05.59,0,.52a1.11,1.11,0,0,0,1.12,1.14,1.51,1.51,0,0,0,.73-.2,1.87,1.87,0,0,0,1-1.36l.06-.42.07-.56,0-.26ZM46,29l0-.94,0-.94,0-.95-.11-.87-.12-.85-.08-.63-.07-.53.61,0h.69l0,.19,0,.13v.09l-.06,1.47,0,1,0,1v.73l0,1,0,.49,0,.49.05.48.06.49,0,.26h-.19l-.76.05.06-.5V29Zm-5.29,10.7v.42l.39,0-.41.12v.09l-.14.62-.08.37,0,.27,0,.29,0,.28v.25l-1.43.09-.67.06-.41,0-.36,0-.18,0-.14,0-.13,0-.17.06-.24.1-.43.27-.51.48a2.21,2.21,0,0,0-.27.37l-.11.19-.1.22-.07.18,0,.16,0,.14,0,.14,0,.19,0,.21v.63l0,.43L35,47l.1.83H30.31l-.12,0,.07-1.91,0-.75v-1.1l0-.24,0-.2,0-.11,0-.13,0-.12-.09-.2-.14-.23-.2-.19a1.34,1.34,0,0,0-.72-.28h-.06l-.65,0h0l-3,.2,0-1,0-1.52,0-.58v-.81l1.27,0h1.68l.21,0,.2,0,.26-.07.41-.19.56-.44.35-.43.07-.1c0-.08.09-.17.15-.29l.08-.21.08-.26.05-.24,0-.21,0-.21v-.6l0-.41-.06-.41,0-.31-.08-.42-.38-1.95.55,0,1-.09.27,0h.71l.91,0h1.11l.27,0,.39,0h.08l0,.6v.52l0,3.42v.51l0,.31,0,.18,0,.1.08.24.14.22A1.22,1.22,0,0,0,36,38l.12.09.15.1.12.05.09,0,.13,0,.25.06.17,0,.37,0,.39,0,.43,0,.57,0h1.89v.09ZM18.78,27.82v.11l.07.45.06.52,0,.41,0,.56.07,1-.64,0-.32,0,0-.16,0-.66V28.85l0-.62L18,27.06l0-.75L18,26l-.06-.36-.1-.52-.14-.67-.16-.68.58.08.36,0,.26,0h.43L19,25.32l-.05.43-.08.92,0,.36,0,.34v.45Z"/></svg>