<svg xmlns="http://www.w3.org/2000/svg" width="64" height="64" viewBox="0 0 64 64" fill="#1FA28F"><path d="M61.4,21l0-.5,0-.5,0-.5-.06-.5-.07-.51-.1-.5-.11-.5-.1-.37-.07-.26-.16-.5-.18-.5-.21-.5L60,14.9l-.12-.25-.27-.49-.21-.37-.24-.38L59,13.16l-.34-.49-.35-.49L58,11.71l-.38-.46-.39-.46-.4-.44-.42-.44L56,9.49l-.43-.41-.45-.4-.46-.39-.47-.38-.48-.37L53,7.1l-.5-.34L52,6.43l-.51-.32L51,5.8l-.53-.29-.54-.28L49.37,5l-.55-.25-.56-.24-.57-.23L47.12,4l-.58-.2L46,3.64l-.58-.17-.59-.16-.6-.15L43.6,3,43,2.92l-.6-.1-.61-.09-.6-.07-.61-.06-.6,0-.61,0H38.15l-.61,0-.6,0-.61.06-.6.07-.61.1-.62.11L34,3l-.51.07-.5.08-.51.09L32,3.34l-.5.12L31,3.6l-.48.15L30,3.91l-.48.18L29,4.28l-.47.2-.46.22-.46.23-.46.24-.45.25-.45.27L25.85,6l-.43.28L25,6.56l-.42.31-.42.32-.41.33-.41.34-.4.35-.4.35-.38.37-.39.38-.37.38-.37.39-.36.4-.35.4L20,11.3l-.34.42-.34.42-.31.43-.31.44-.31.44-.29.44-.29.45-.28.45-.27.46-.26.46-.25.46-.25.46-.24.47-.23.46-.22.47-.21.48-.21.47-.19.48-.19.47-.18.48-.17.48-.17.47-.15.48-.15.48L14,22.8l-.13.48-.12.47-.12.48-.1.47-.1.52-.1.55-.08.54-.06.54,0,.54,0,.53,0,.53v1l0,.51,0,.51,0,.5.06.49.08.49.08.48.1.48.12.47.12.46.14.46.15.46.16.45.17.44.18.43.19.43L15,37l.21.42.23.41.23.41.25.39.25.39.29.43a1,1,0,0,0,.2.67,1,1,0,0,0,.57.35l.34.41.31.36.32.34.32.34.33.33.34.33.34.31.35.31.36.31.37.3.37.29.38.28.39.28.39.27.39.26.41.25.41.25.41.24.42.24.42.22.43.22.43.21.44.21.44.2.44.19.45.18.45.17.46.17.46.16.46.15.47.15.47.13.46.13.48.12.47.11.48.11.48.1.48.09.48.08.49.07.49.06.48.06.49,0,.49,0,.48,0,.5,0,.48,0h1.48l.48,0,.49,0,.49,0,.49,0,.49,0,.48-.07.49-.08.48-.08.48-.09.48-.11.48-.11.47-.12.48-.14.47-.14.47-.15.46-.17.47-.17.46-.18.46-.2.45-.2.46-.22.45-.23.44-.24.44-.25.44-.26.43-.27.43-.29.43-.3.41-.31.42-.32.4-.34.4-.34.4-.36.38-.37.38-.38.37-.4.36-.4.35-.42.35-.43.33-.43.32-.45.31-.46.3-.46.29-.48.15-.26.21-.39L58,38l.28-.55.26-.57.24-.57.22-.58.26-.74.2-.59.18-.59.16-.6.15-.59.14-.59.13-.59.13-.73.14-.85.11-.88.13-.94.27-1.9.13-1,.09-.73,0-.48,0-.49,0-.5,0-.49,0-.49V21ZM56.6,33.87l-.16.52-.12.36h-.07l-.27,0-.26.06-.16,0-.24.08-.66.25-.41.15-.28.09-.29.09-.59.16-.62.14-1.08.21-.33.07-.22.06-.23.07-.18.06-.68.26-.13.05-.41.11,0,0-.14-.18-.13-.16-.16-.17L48.57,36l-.11-.13-.14-.22L48,35.1l-.12-.18-.14-.2-.21-.24-.23-.25L47.05,34l-.23-.18-.16-.1-.06,0-.19-.21-.11-.11-.23-.2L45.88,33l-.81-.62.23-.47.17-.38.2-.47.23-.58.42-1.08.4-1.1.21-.62.2-.59.15-.49.15-.51.06-.25.32-.06.36,0v0l.27-.05.61-.1.94-.1.27-.05.37-.08,1-.29.18,0,.26.31.29.32.31.31.31.3.32.3.33.29.34.27.29.21.21.14.28.17.55.3.17.11.07.05.45.42.07,0,0,.05.16.12.13.08.16.09.31.16.14.1.23.18.26.17-.15,1.1-.13.77-.08.38-.11.53-.12.53-.14.52Zm-7.38,9.42,0-.36,0-.46,0-1.5v-.38l0-.43,0-.14.06-.2,0-.11.15,0,.27-.1.56-.22.28-.11.19-.05.23-.06.73-.16.22-.06.56-.15.37-.11.37-.12.38-.14.38-.14.37-.16.42-.2-.34.57-.23.36-.24.35-.24.34-.25.33-.26.32-.26.31-.26.3-.28.29-.28.28-.28.28-.29.27-.3.25-.3.26-.32.24-.31.24-.33.22-.33.23-.33.21-.41.24Zm-3-3.43v.26l-.07.21,0,.19,0,.27,0,.37,0,.34,0,.31,0,.45v1.88l.06.45,0,.41v.17l-.3.1-.4.13-.4.12-.41.12-.41.1-.41.1-.42.09-.43.08-.42.08-.43.06-.43.06-.43,0-.44,0-.43,0-.44,0-.44,0H38.15l-.44,0-.45,0H37l-.36-.73-.12-.19-.11-.17-.27-.36-.25-.31-.11-.2-.12-.2-.37-.49L35,43.22l-.11-.15-.38-.57-.15-.22-.17-.21L34,41.91l-.1-.11-.14-.14,0-.08.09-.31.1-.46.36-.74,0-.12.16-.41.15-.46.09-.32L35,38l.1-.42v-.07l.51-.12.33-.09.53-.15.83-.27.77-.28.78-.29.79-.31.76-.32.74-.32.6-.28.62-.3.14.26.22.23.15.14.15.12.21.16.56.41.18.19.13.12.13.1.09.06.09.06.2.09.07,0,.22.21.12.15.15.21.22.33.14.19.17.21.13.15.11.1.12.11.18.14.24.16-.1.21-.09.26,0,.22,0,.17v.32ZM28,42.2l-.2.1-.35.18-.36.21-.31.22-.44.35-.5-.27-.38-.23-.37-.22-.36-.24-.37-.24L24,41.82l-.35-.26-.34-.25L23,41l-.33-.27-.32-.28L22,40.21l-.31-.29-.31-.29-.29-.3-.29-.3-.28-.31-.27-.32L20,38.08l-.32-.41.06-.12.06-.14.06-.18L20,37l.16-.29.19-.45.13-.36.27-.73.11-.27.07-.16.33-.65.17-.35.16-.39.09-.27.1-.35,0-.08.27,0,.7-.06.26,0,.28,0,.27-.06.18,0,.28-.07.27-.08,1.17-.41.36-.11.23,0,.52-.08.24,0,.27-.06.11,0,.22-.08.11-.06.1.12.35.38.46.46.37.36.39.35.39.34,1.15,1,.62.54.48.44.33.34.28.62.17.34-.21.3-.21.34-.17.42-.14.48-.17.76-.06.25-.08.29-.08.22-.28.58-.12.31,0,.12-.05.23,0,.29-.15.09-.32.09-.26.09-.62.22-.59.22L28.6,42l-.28.07-.21.07ZM18.92,32.15l-.09.22-.07.21-.06.18-.1.37,0,.14,0,.12-.4.88-.1.24-.06.17-.05.15-.11-.23-.17-.38-.16-.38-.15-.39-.14-.39-.12-.39-.12-.4-.11-.4-.1-.41-.08-.41-.08-.42-.06-.42,0-.23.21.15.18.1.17.08.22.09.42.17.17-.36h0l-.08.41.21-.34-.11.41.08.07.13.11.13.13.13.13.22.24.1.1.1.09.12.1.22.17L19,32ZM18.74,18.4l.17,0,.19-.06.22-.08.11,0,.65-.05.46,0,.22,0L21,18l.25-.08.31-.12.27-.13.11,0h.29l.14,0,.14,0,.2-.05.22-.07.17-.07.51,0,.21,0,.25-.05.15.38.27.31.19.19.19.17.26.23.57.47.28.25.19.19.13.16.4.49.2.24.17.19.23.23.13.11.13.11.1.07.17.11.18.08.18.05.32.19.39.26.41.25.32.22L28.77,24l-.64,1.43-.71,1.61-.69,1.59H26.3l-.2,0-.21,0-.21,0-.28.08-.33.1-.76.25-.16,0-.19.05-.34,0-.56,0-.38,0-.47.06-.18.08-.13-.11-.52-.36-.19-.15L21,28.65l-.18-.19-.19-.2-.21-.19-.16-.13-.12-.1L20,27.75l-.14-.09-.14-.08-.12-.06L19,27.28l-.25.32.12-.39-.08-.07L18.67,27l-.12-.12-.13-.14L18,26.23h0L17.75,26l-.24-.27h0l-.18-.19,0,0,0-.05-.46-.34L16.63,25l.12-.62.09-.42.1-.43.1-.42.12-.42.12-.42.27-.85.14-.42.15-.42.16-.42.16-.42.35-.83Zm5.89-8.26,0,.15-.28.81-.29.7-.14.36-.08.26,0,.13-.17.72-.1.36-.22.63-.16.05-.24.08h-.11l-.26,0h-.12l-.2,0-.22.06-.26.08-.26.11-.2.09-.13,0-.43,0,.21-.32.25-.37.26-.37.53-.71.27-.35.27-.34.28-.34.28-.33.29-.32.3-.32.3-.31.3-.31.41-.39Zm2,2.91.15-.72,0-.12.08-.22.12-.36.11-.32.12-.41.15-.62,0-.24,0-.2a1.32,1.32,0,0,0,0-.16v0l0-.11.06-.27.09-.57V8.64l.14-.4,0-.17L28,8l.45-.3.45-.28.46-.26.47-.24.48-.23.48-.21.49-.2.49-.18.5-.16.5-.15.71-.18.24,0,.45-.06.26,0,0,.12,0,.14.07.19.1.23.11.21.1.2.28.48.19.33.06.1.4.7.11.17.14.19.14.17.39.41a1.22,1.22,0,0,0,.07.17l.12.21.12.19.15.23.28.4.11.15.26.29.16.21.41.81.08.15.19.33.11.16.07.1-.1.22-.19.77-.13.84-.14,1.06-.05.43,0,.33v.44l-.29.08-.34.11-.26.1-.34.14-.33.16-.31.16-.63.34-.75.45-1.24.77-.73.44-.38.22-.37.18-.3.12-.15.05a1.37,1.37,0,0,0-.36.11l-.12-.23-.15-.27-.12-.17-.12-.16-.12-.14-.14-.14-.14-.14-.27-.23L30,18.46l-.07,0-.1-.05-.3-.37-.49-.63-.3-.37-.24-.28-.34-.34-.79-.73-.53-.51L26.52,15l-.28-.13v-.42l0-.12.15-.45.1-.3ZM38.72,5.16l.54,0,.54,0,.54.06.54.08.54.09.54.1.54.12.53.13.53.15.53.16.53.17.52.18.52.2.52.21.51.22.51.23.5.24.49.26.34.18-.46.1-.49,0-.31,0-.21,0-.6.14-2.61.69-.8.2-.3.09-.63.22-.09,0-.22.05-.35.09-.22.07L40.89,9l-.11-.2-.06-.11-.12-.17-.1-.14L40.16,8l-.34-.53-.06-.1,0-.13a1.21,1.21,0,0,0-.09-.2l-.08-.12-.13-.18-.13-.16-.38-.39-.07-.09L38.75,6l-.3-.5-.16-.26-.07-.08ZM50,10.41l.16,0,.2,0,.21-.07.14-.07.18-.07.58-.21.54.42.43.35.41.37.4.37.59.57.37.4.37.4.35.41.34.42.35.45a1.38,1.38,0,0,0-.36.41l-.33.44-.22.32-.22.34-.22.38-.1.21-.05.12,0,.07-.06.1-.2.3h0l-.19.28-.18.3-.15.28-.14.27-.33.78-.07.14-.52.92-.18.33-.21.39-.35.76-.34.41-.21.28-.11.16-.12.2-.19,0-.89.07-.71.07-.31,0-.3.05-.19,0-.15.05-.28.1-.29.17-.14.1-.1.08-.11.08,0-.08-.16-.2-.16-.18-.18-.18-.18-.18-.18-.17L46,22l-.4-.31-.5-.39L44,20.54l-.5-.37-.29-.23L43,19.75l-.14-.14-.07-.08-.06-.08-.18-.28-.46-.77L41.82,18l-.15-.22-.17-.21-.17-.21-.14-.14-.1-.1L41,17l.08-.23.07-.3,0-.15,0-.23,0-.33.05-.54.1-.69L41.67,13l0-.28.24-.06.29-.08.67-.24.84-.22.74-.21,1-.3,1.47-.45.14,0,.28,0,.27,0,.33-.07.34-.1,1.37-.45.14,0ZM31.38,30.58,31,30.26,30.65,30l-.25-.23-.32-.31-.15-.15-.28-.3-.19-.23,1.46-3.86.39-1,.43-1.06.19-.45.32-.08.27-.09.42-.16.34-.14.27-.13.56-.27,1.51-.78.4-.2.5-.24.47-.2.45-.17.23-.08.17-.05.15,0,.19,0h.25l.14-.37,0,.41.13.12.09.11.1.13.21.32.57.94.12.19.13.19.18.23.12.14.14.15.15.14.33.28.35.27.37.27.86.61.66.47.35.27.31.26.27.25.21.23.15.19.08.14,0,.09-.07.31-.1.39-.2.65-.17.54-.2.58-.36,1-.38,1-.21.52-.18.4-.13.3-.09.19-.29.16-.49.25-.51.24-1,.44L39,33.17l-.72.29-.72.27-.68.23-.55.18-.43.13-.38.1-.24.05L35,33.79l-.12-.22-.13-.18-.12-.14L34.34,33l-.54-.48-.47-.39Zm-1.28,14,.41-.15.4-.13.19-.07.13-.07.12.09.15.16.11.14.54.72.26.32L32,45.5l-.43-.12-.43-.12-.43-.14L30.25,45l-.58-.2ZM57.88,26l-.11-.13-.17-.18-.13-.12-.19-.16L57,25.22l-.48-.34-.11-.09-.19-.17L56,24.35l-.27-.26-.26-.28-.26-.29-.25-.28-.25-.3-.24-.3-.33-.42.06-.09.14-.27.35-.72.16-.3.15-.25.6-1,.08-.16.13-.26.37-.83.08-.14.36-.58.14-.24.1-.19L56.9,17l.16-.46,0-.14.23.48.18.42.15.42.14.42.12.41.08.32.09.42.08.42.06.43,0,.42,0,.43,0,.44v.87l0,.44,0,.44,0,.45,0,.45-.09.91L58,25.7l-.06.44Z"/><path d="M4.38,39.84l.78-.6L6,38.68l.46-.29.36-.26.27-.21.41-.35.39-.34.88-.8L9.25,36l.48-.4.56-.42.26-.19.28-.24.28-.28.2-.26.26-.35.12-.2.11-.25,0-.15a2.11,2.11,0,0,0,.16-.34,1,1,0,0,0-.95-1.4,1.35,1.35,0,0,0-.93.39l-.25.15-.1.09a2.25,2.25,0,0,0-.21.24l-.1,0-.18.11-.14.1L8.62,33l-.22.17-.36.3-.4.36-1.11,1-.69.63L5.33,36l-.66.51-.35.32L4,37.05l-.22.24-.29.33-.17.22L3,38.37a1.27,1.27,0,0,0-.31.5,1,1,0,0,0,.22,1,1,1,0,0,0,.68.28A1.21,1.21,0,0,0,4.38,39.84Z"/><path d="M9.76,44l.44-.35.18-.14.21-.19.13-.13h0l.22-.22.26-.25h0l.17-.19.23-.27.24-.31.19-.33.14-.28.16-.4,0-.11a1.23,1.23,0,0,0,.14-1.12,1,1,0,0,0-.75-.6h-.19a1.54,1.54,0,0,0-1.15.62l-.48.45-.21.18-.23.22L9.09,41l-.26.26-.1.09-.17.14-.25.21L6.62,43.21,6,43.78l-.45.46-.3.31-.3.32-.29.33-.29.35-.26.35-.25.35-.24.35-.07.11a1.16,1.16,0,0,0-.28.95,1,1,0,0,0,.47.67,1,1,0,0,0,.47.11,1.26,1.26,0,0,0,.9-.41l.42-.36.6-.51.29-.25,2.44-2.18Z"/><path d="M14,43.28a1.21,1.21,0,0,0-.58.15l-.26.09-.25.14-.2.15,0,0,0,0-.06.06h0l-.53.42-.82.64-.21.18h0l-.5.45h0l-.33.31-.15.16-.09.1-.07.1-.93.86-.39.4L8.09,48,8,48.11a1.21,1.21,0,0,0-.41,1.33,1,1,0,0,0,.89.59,1.08,1.08,0,0,0,.65-.21l.64-.32.49-.28.45-.31.21-.15.26-.2.31-.24.29-.26.21-.22.12-.14,0-.06.23-.2.13-.11.65-.46.28-.21.3-.25.22-.2.2-.2.12-.14.18-.25.12-.23.06-.19A1.37,1.37,0,0,0,15,44.06,1,1,0,0,0,14,43.28Z"/><path d="M18,49.74l.23-.15.49-.34.26-.2.27-.21.58-.49.24-.21.14-.13.14-.16.46-.47.1-.16L21,47l0-.1a1.38,1.38,0,0,0,.46-1.26,1,1,0,0,0-1-.79,1.27,1.27,0,0,0-.56.13h-.12l-.37.16-.09.07-.2.08-.19.12-.21.19-.22.22-.22.23-.12.15-.25.23-.7.61-.24.22-.26.27-.28.31-.25.35-.17.27-.08.16a1.19,1.19,0,0,0-.27.9.94.94,0,0,0,.44.67,1,1,0,0,0,.51.14,1.25,1.25,0,0,0,.83-.34Z"/><path d="M27.76,50.62a1,1,0,0,0-.52-.13,1.46,1.46,0,0,0-1,.49l-.85.68L25,52l-.3.28-.26.26-.27.24L24,52.9l-.29.24-.58.45-.27.21-.31.26-.32.3-.26.27-.29.31-.26.26-.28.26-.29.25-.71.59-.21.18-.26.25-.28.28-.32.35-.3.35-.25.31-.32.43-.86,1.25a1.2,1.2,0,0,0-.32.92.93.93,0,0,0,.4.68,1,1,0,0,0,.55.17,1.22,1.22,0,0,0,.88-.39l.41-.38.38-.37,1.12-1.11.34-.32.2-.18.2-.18.44-.32.41-.32.31-.26.36-.32.2-.19.19-.18.61-.64.13-.12.11-.09.18-.13.66-.49.19-.14.32-.27.3-.26.38-.35.38-.37L27,53.7l.33-.42.26-.39.24-.39.06-.1a1.41,1.41,0,0,0,.34-1.07A1,1,0,0,0,27.76,50.62Z"/></svg>