<svg xmlns="http://www.w3.org/2000/svg" width="64" height="64" viewBox="0 0 64 64" fill="#1FA28F"><path d="M64.15,10.18a1,1,0,0,0-.7-.3,1.24,1.24,0,0,0-.85.37l-.16.15-.12.1-.26.19-.29.19-.31.18-.34.18-.36.17-.38.15-.41.15-.42.15-.44.13-.68.18-.36.08-.48.11-.49.1-.5.09-.5.08-1,.15-1,.14-1.52.17-2.85.3-.75.09-2.62.34-.21-2.56,0-.39,0-.23L46,10.4,45.81,10V9.8l0-.14-.09-.19-.27-.33-.77-.23-1.14.69-.37.64-.07.22,0,.2-.07.35-.08.55V12l0,.39,0,.43.07.7.08.66-.9.1-1.5.16-2.24.22L37,14.8l-1.47.11L34,15l-1.46.08-.73,0-1.46.05-1.45,0H27.45l-1.44,0-1.45,0-1.44-.06L21.69,15l-.55,0,.06-.51,0-.31v-.68l0-.42-.17-.4-.13-.27-.15-.26a1,1,0,0,0-.94-.64,1.44,1.44,0,0,0-.74.24,1.64,1.64,0,0,0-.74,1.15l-.1.44-.19.75,0,.34v.28l-.65-.07-1.44-.19-.72-.1-.72-.11L13.05,14l-.73-.13-1.45-.28L9.4,13.26l-3-.62-1.53-.35-1.53-.37-.77-.2-1.12-.29a1,1,0,0,0-.34-.06A1.56,1.56,0,0,0-.08,12a1.3,1.3,0,0,0-.28,1.15.92.92,0,0,0,.58.63l.37.15.73.3.73.28.73.27.73.26.73.26.73.24.73.23.74.23.75.21.75.19.75.17.75.16.75.16.74.14.75.13.75.13.74.12.75.11.75.1.74.1.75.08.74.09.71.07-.11.75-.07.58,0,.58v.6l.05.44.06.38-2.15.08-2.29.19-2.29.19-1.09.1a1.62,1.62,0,0,0-1.27.83,1.22,1.22,0,0,0-.18.85,1.45,1.45,0,0,0-.4.19A1.51,1.51,0,0,0,7.1,25l0,.09,0,.14L7,25.49l-.28.94-.12.47-.06.28,0,.3V28l0,.17,0,.18,0,.17.08.18.07.13a1.28,1.28,0,0,0-.37,1.11l0,.15,0,.2v.33l0,.28,0,.25,0,.25,0,.27,0,.27-.07.28L6,32.76l-.48,1.72L5.4,35l-.08.33-.07.35L5.18,36l-.06.35,0,.35,0,.36,0,.35V38l0,.2,0,.18.08.35,0,.18,0,.17.06.18.07.17.07.16.08.15,0,.07.19.21.18.13.13.07.11.05.21.08.31.07.21,0,.37,0,.74.08.55,0,.73,0,1.62.11,1.06.07.74.07L13,41l.61.18.41.13.83.27.84.3.83.32.41.17.41.18.41.18.41.19.4.2.4.21.39.21.38.22.39.23.37.23.37.24.36.25.35.26.34.26.33.27.33.28.24.22.45.44.29.31.28.31.26.32.26.33.3.44.09.17.11.24.21.55.17.45.66,1.9.24.64.19.49.19.46.2.42.13.25.1.16.12.18.16.2.08.09.11.09.1.07.17.1.09,0,.15.05.21.06.22,0,.22,0,.22,0h.43l.21,0,.21,0,.42-.06.51-.11,1.49-.36.25-.06.3-.06.4-.06h.38l.17,0,.35.07.29.07,1.53.39.4.09.5.11.39.07.4.06.39,0,.37,0h.22l.21,0,.21,0,.22,0,.12,0,.14-.05.18-.08.2-.11.17-.11.16-.11.15-.12.13-.12.24-.23.21-.23.29-.34.13-.17.35-.47.33-.5.33-.51.57-.92,1.29-2.19.28-.46.13-.19.45-.53.29-.34.31-.33.31-.32.32-.31.32-.31.33-.29.34-.28L47.5,45l.36-.27.36-.25.37-.25L49,44l.39-.23.39-.22.4-.21.41-.2L51,43l.42-.18.43-.17.43-.15.44-.15.45-.13.45-.12.46-.1.46-.1.47-.08.47-.07.48-.05.15,0a1.43,1.43,0,0,0,.13.28,1,1,0,0,0,.79.41,1.55,1.55,0,0,0,.29,0,1.49,1.49,0,0,0,.93-.91l.1-.28.08-.28.08-.45,0-.31.05-.49,0-.35,0-.44,0-.74v-.78l0-.81,0-1-.14-2.64,0-1.13,0-1.25v-.48l0-.75v-.63l0-.23,0-.22,0-.17,0-.13,0-.13-.06-.13-.07-.13L58,27.27l-.09-.11-.1-.12,0,0,0-.06-.28-.14-.24-.18,0,.05-.07,0L57,26.58l0-.52.05-.8v-.9L57,24l0-.2,0-.19,0-.19-.05-.19,0-.12,0-.09-.11-.2-.09-.13-.07-.09-.14-.13-.09-.07-.11-.07-.08,0-.17-.06-.11,0-.23,0-.34,0H53.77l-1,0-.82.05-3.85.24-.84,0-.66,0h-.83l.14-.07a1.38,1.38,0,0,0,.68-1.12l0-.34,0-.47.05-.83v-.5l0-.76,0-.81-.06-.88,2.25-.33.87-.12L51.61,16l1.57-.22,1.09-.17.56-.1.55-.11.55-.11.56-.12.55-.13.55-.14.54-.15.4-.11.53-.17.53-.18.51-.19.26-.1.49-.21.49-.23.47-.24.46-.27.23-.13.21-.15.22-.15.21-.15.2-.17.2-.16.2-.18.25-.25A1.1,1.1,0,0,0,64.15,10.18ZM55.51,31l0,.41,0,.7.11,1.1L56,36.12l.1,1,.1,1.1,0,.68,0,.5h-.13l-.52,0-.53.05-.52.06-.52.08-.51.1L53,39.8l-.51.12-.51.15-.5.15-.5.17-.5.19-.49.2-.48.22-.49.23-.48.25-.47.26-.47.28-.46.29-.46.31-.46.32-.44.34-.44.35-.43.36-.42.38-.41.39-.41.41-.39.41-.39.43-.36.43-.3.37-.19.26-.25.38-.43.68L40.29,50l-.53.84-.42.64-.25.35-.15.2-.31,0-.46-.07-.34-.08-.62-.15-1.7-.44-.33-.08-.31-.06-.16,0-.21,0-.22,0h-.43l-.42,0-.21,0-.41.07-.5.11-1.11.27-.57.13-.28.05-.25,0h-.36l-.1-.18-.15-.32-.25-.62-.3-.83-.58-1.66-.26-.72L27.94,47l-.19-.44-.08-.18-.09-.18,0,0,0,0-.27-.41-.3-.4-.3-.38-.32-.38L26,44.16l-.34-.35-.36-.35L25,43.21l-.37-.32-.38-.31-.38-.3L23.51,42l-.41-.29-.4-.27-.27-.17,1.08-1.14.54-.62.53-.63.39-.49.51-.67.25-.35L26,37l.24-.35.23-.36.23-.37.22-.37.22-.38.21-.39.2-.4.19-.4.18-.41.17-.42.15-.43.14-.42.09-.33.05-.23.06-.28v-.72l0-.42,0-.22,0-.17,0-.18,7.69.27a1.47,1.47,0,0,0-.66,1.3v.26l0,.55,0,.54.09.63.18.52.18.45.2.44.21.43.21.41.23.41.24.4.24.39.25.38.25.38.26.37.27.37.27.37.29.36.29.36.29.36.31.34.31.34.32.33.32.33.34.32.34.32.55.48.74.56.74.53.33.23a.94.94,0,0,0,.61.21,1.26,1.26,0,0,0,.87-.39,1.09,1.09,0,0,0,.21-1.46l-.25-.36L44.16,40l-.42-.53-1.1-1.38-.54-.68-.53-.68-.5-.67-.24-.35-.23-.34L40.38,35l-.22-.36L40,34.28l-.2-.36-.19-.37-.18-.38-.18-.38-.58-1.31-.25-.36-.52-.8a.72.72,0,0,0-.14-.24l1.36.05,2.15.05,2.15.05,2.16,0H49l.21,0,.33,0,.4-.06.76-.12,1.79-.32,1-.16.52-.07.48-.05.42,0h.61v.55l0,.43V31Zm-41.2,6.85-.47-.06-.5-.05-.5,0L10,37.48l-.8-.07-.45,0-.43,0,0-.14-.06-.3,0-.2v-.6l0-.24,0-.25,0-.26.09-.55.08-.43.25-1.21.15-.79.1-.65,0-.33L9,31l0-.33v-.56l0-.33-.05-.35.6,0,.8,0H11.9l1.94-.06h2.24l1.59,0,2.13,0,2.13,0,2.13.06,2.16.06a1.34,1.34,0,0,0-.24.55l-.24.7-.24.63-.08.25-.17.59-.1.32-.1.3-.12.3-.12.3-.13.3-.14.29-.15.29-.16.28-.17.29-.17.29-.38.58-.62.88-1,1.38-.45.65L21,39.5l-.44.71L20.15,40l-.44-.21-.44-.2-.44-.2-.45-.18L17.94,39l-.45-.17-.89-.33-.44-.14-.88-.29-.67-.19-.13,0ZM54.18,26.55l-.73.09-.58.09-2.25.36-.41.06-.3,0-.19,0H49.6l-1.59,0-1.6,0-2.13-.05-2.13-.05L40,27l-2.13-.07-3.21-.12-7.48-.3-2.14-.08-2.14-.06-2.14-.06-2.14,0-1.61,0H14.91l-.71,0-1.52.06-1.6.12-.8.06-.49,0-.49,0,.17-.82.08-.43,0-.25,0-.27v-.3l0-.11,2.81.1,2.18.07,2.21,0,4.44-.08,2.22,0h3.89l2.22,0,1.1,0,1.11,0,1.1,0,1.1.05,1.1.06,1.1.07,1.1.08,1.1.08,1.09.09,1.09.1,1.1.12,1.09.12,1.57.19.06,0h.19l.39,0h.29l.46,0,.52,0,.56,0,1.12-.09,2-.19,3.59-.36.61,0,.43,0,0,.27,0,.45,0,.6v.45Zm-10.7-8.83.13,1,.13.74.13.71.11.42.35,1.23a.9.9,0,0,0,.29.57l-.76-.1-1.1-.15L41.65,22l-1.11-.11-1.11-.11-1.12-.09-1.11-.08-1.12-.07L35,21.44l-1.12-.06-1.12,0-1.11,0-1.12,0-1.12,0-2.24,0h-5l-2.24,0,.1-.45.2-.76.25-1.13.15-.7.8,0,1.49.07,1.49,0h3l1.5,0,1.49,0,1.49-.07,1.5-.08L34.8,18l1.51-.12,1.51-.14,1.52-.15,2.3-.26,1.77-.22Z"/></svg>