<svg xmlns="http://www.w3.org/2000/svg" width="64" height="64" viewBox="0 0 64 64" fill="#1FA28F"><path d="M11.78,41l.19-.11.21-.1.17-.07.13,0,.21-.06.22-.06.24,0,.25,0,.53-.08.57-.06L16,40.16l.32,0,.66-.08.34,0,.34-.06.35-.07.35-.09.34-.1L19,39.6l.18-.07.37-.16.19-.08.19-.1.18-.11.2-.11.19-.12.19-.14.19-.14.19-.16.19-.16.17-.15.17-.18.15-.16.2-.24.23-.31.21-.31.17-.3.15-.3.13-.29.11-.29.08-.28.07-.28.06-.27,0-.28,0-.3v-.74l0-.48-.05-.35-.07-.44L23,31.87l-.39-1.71a1.06,1.06,0,0,0-1.08-.93,1.41,1.41,0,0,0-.77.25,1.58,1.58,0,0,0-.79,1.34v.69L20,32.85V34l0,.38,0,.36-.06.37-.05.26-.07.23-.07.18-.08.12.36.37L19.52,36l-.06,0-.14.11-.16.09-.13.07-.16.07-.22.07-.2.06-.22.06-.24,0-.24,0-.53.08-.57.06-1.07.1-.8.08-.66.08-.33.06-.34.06-.35.08-.34.09-.35.1-.26.09-.19.07-.36.16-.18.09-.3.15-.45.27-.35.23-.35.24-.41.33-.32.26-.3.29-.3.29-.28.31-.26.31-.25.31-.23.33-.21.32-.2.33L7,42.19l-.17.33-.15.33-.15.34-.13.33-.12.33-.11.34-.09.33L6,44.86l-.08.33-.07.34-.07.34,0,.33,0,.34,0,.34-.07.68,0,.67,0,.68v1.52l0,.67,0,.67,0,.66,0,.66L5.79,55l0,.6,0,1,0,.84v.62a1,1,0,0,0,1,1.12A1.19,1.19,0,0,0,7.53,59,1.44,1.44,0,0,0,8.29,58l.06-.47,0-.32.06-.64,0-.65,0-.83,0-1.33,0-1.35V49.71l0-1.13,0-.63.05-.61.06-.6.08-.58L9,45.6l.12-.54.13-.51.08-.24.16-.47.18-.43.1-.21.1-.2.11-.18.21-.35.12-.16.12-.15.12-.15.13-.15.13-.13.14-.14.17-.14.13-.1.17-.13.19-.13Z"/><path d="M58.37,5.58a1,1,0,0,0-.85-.52L56.5,5l-1.63-.08-2.39-.08H49.8l-1.74,0-1.83,0-1.56.05L43.41,5l-1.28.07-1.27.07-1.57.09L38,5.31l-1.22.09-1.19.1-1.16.11-1.12.12-1.07.13-1,.14-.61.09-.47.08-.9.17-.42.09-.41.1-.2,0-.59.17-.2.07-.19.07L26.92,7l-.34.16-.33.17-.33.19-.17.12-.21.15-.11.08L25.29,8l-.14.13L25,8.31l-.19.23-.2.28-.16.27-.12.26-.1.25-.06.24-.05.22,0,.22,0,.2v.58l0,.25v0l-.28-.17L23.49,11l-.44-.24-.34-.17-.35-.16L22,10.24l-.35-.12L21.29,10l-.18,0-.18,0-.19,0-.19,0h-.79l-.2,0-.22,0-.22.06-.22.07-.24.09-.24.11-.24.14-.25.16-.24.19-.23.2-.22.22-.19.23-.18.23-.16.23-.13.23-.12.23-.1.22-.09.23-.08.22-.07.23-.06.23,0,.23,0,.25,0,.28v1l0,.26,0,.27.07.56.05.28.11.61.12.55-.13,0-.17,0-.16,0H15l-.17,0-.17,0-.18.05-.19.06-.18.07-.18.08-.19.09-.18.1-.18.12-.17.13-.17.13-.17.14-.15.15-.15.15-.13.16-.13.15-.22.3-.19.3-.17.32-.11.22-.12.29L11.4,21l-.09.28-.08.29-.08.29-.06.29-.06.3,0,.3-.08.61-.06.61,0,.63,0,.64v1.1l0,.64,0,.65.09.71.11.82.33,2.21.05.42a1.09,1.09,0,0,0,1.1,1.08,1.41,1.41,0,0,0,.72-.22,1.65,1.65,0,0,0,.84-1.28l0-.27V30.3l0-2.91v-3l0-.56,0-.54,0-.51.07-.48.07-.44.09-.38.1-.32.09-.24.05-.11,0,.16.07-.49.06.52.1-.49L15,21l.18.06.2.08.33.17.31.18.32.21.25.19.3.24.24.22.23.22.47.48,1.21,1.31.26.27.28.28.29.26.22.2.15.12.3.22.5.33,1.52.93.35.22.41.28.29.22.26.2.21.2.16.17.06.07.09.14.07.2.1.37.08.41,0,.31,0,.32,0,.34,0,.63,0,.76v1.64l0,1.09v3.2l0,.82,0,.8.07.67,0,.37,0,.2a1,1,0,0,0,1,.93,1.19,1.19,0,0,0,.69-.23,1.35,1.35,0,0,0,.66-1.19l0-.57V39l0-.77.05-.82.11-1.29.18-2,.05-.68.06-.9,0-.89,0-.88v-.43l0-.73,0-.61,0-.39,0-.2-.06-.39-.07-.37-.09-.36-.09-.29-.05-.15-.11-.22-.11-.21-.13-.2L26.94,26l-.14-.18-.16-.17-.16-.16-.17-.15L26,25l-.36-.28-.48-.33-.38-.26-1.34-.84-.3-.19-.26-.18-.3-.22-.15-.13-.24-.23-.24-.23-.23-.24-.35-.38-.85-.94-.25-.27L20,20l-.28-.27-.29-.27L19,19.14l-.33-.25-.2-.14a1.54,1.54,0,0,0,.62-1.28l0-.84V15.45l0-.51,0-.46.06-.4.13-.68.06-.24v.07l.17,0,.2,0,.21.06.36.13.4.17.41.21.22.11.29.18.31.18.3.2.32.21.31.23.32.23.32.24.63.51.63.53.62.54.6.55.57.55.79.8.54.56.53.58.36.4.3.36.22.27.17.22.13.28.14.38.08.28.07.29.06.31.08.49,0,.42,0,.36v.36l0,.77V26l-.09,2.67v1.82l0,.79,0,.67.06.56.06.38a1,1,0,0,0,1,.92,1.31,1.31,0,0,0,.7-.22,1.37,1.37,0,0,0,.65-1.18v-.9l0-.63.06-.77.08-.8.06-.48L33,29l.21.1.2.07.2,0h.19l.19,0,.15,0,.14,0,.13,0,.13-.06.17-.08.2-.12.2-.13.18-.14.18-.14.18-.15.16-.16.16-.16.15-.17.2-.23.06.09.16.2.18.2.19.19.19.19.2.17.22.16.22.15L38,29l.24.13.25.12.26.1.26.08.28.07.28,0,.29,0h.27l.35,0,.31,0,.31-.06.28-.08.16-.06.17-.06.18-.08.16-.08.17-.09.17-.09.16-.11.16-.1.16-.12.21-.17.27-.24.25-.26.23-.25.21-.25.19-.25.17-.25.26-.39.08.15.2.29.21.29.24.27.13.13.13.13.14.12.14.11.15.11.15.11.16.1.17.09.18.08.17.08.19.07.19.05.2.05.2,0,.2,0,.21,0h.64l.15,0,.23,0,.34-.08.24-.07.31-.11.32-.14.31-.15.31-.17.31-.19.29-.2.29-.22.28-.23.27-.25.26-.27.08-.09.05.08.15.19.16.19.13.14.1.08.21.18.24.15.25.15.27.12.29.11.15,0,.32.07.33.06.35,0,.31,0a1.43,1.43,0,0,0,1.14-.67,1.18,1.18,0,0,0,.12-1.14,1,1,0,0,0-.77-.57l-.16,0-.2,0L56,25.76l-.27.44h0l.12-.49-.29.41h0l.16-.48-.31.4h0l.16-.48-.13-.1-.08-.07-.11-.13-.05-.08-.1-.19L55,24.78l-.07-.24,0-.25-.11-.71,0-.16,0-.18-.06-.18-.07-.18-.1-.2-.12-.16-.11-.12-.12-.1-.16-.1-.1-.05-.12,0a1.34,1.34,0,0,0-.35-.05,1.81,1.81,0,0,0-1.31.67l0,0-.24.41-.21.35h0l-.77,1.32-.1.13-.17.16-.1.09-.22.15-.25.14-.12.06-.12.05-.21.07-.15,0h-.17l0,.5h0l-.17-.51,0,.5-.11-.52-.08.5,0-.52-.14-.05-.07,0-.14-.07-.14-.09-.14-.11-.13-.12L47.92,25l-.18-.24-.12-.18-.1-.19-.1-.2L47.33,24,47.14,23l-.07-.28,0-.18L47,22.43l0-.09-.1-.2-.33-.35L46,21.64l-.14,0h-.08a1.86,1.86,0,0,0-.49.1l-.12,0-.18.08-.18.09-.2.12-.26.18-.29.24-.24.24-.22.23-.19.23-.16.22-.15.21-.26.41-.69,1.18-.14.23-.25.38-.14.17-.11.13.36.34-.45-.26,0,0-.06,0-.08,0h-.37l-.11,0-.11,0-.12,0-.12-.05-.11-.06L40.14,26,40,25.94l-.12-.09-.12-.09-.12-.1-.11-.1-.21-.23-.1-.13-.09-.12L39,24.81l-.08-.13-.06-.14-.11-.27,0-.13,0-.13,0-.13,0-.22,0-.31V23l0-.19-.06-.21-.14-.29-.27-.3-.37-.19-.24-.05-.11,0h-.12a1.74,1.74,0,0,0-.75.18l0,0-.73.56-.28.37-.07.11-.1.19-.57,1.2-.11.24-.43,1.07-.27.64,0,0,0,0a1.51,1.51,0,0,0-.9.37l0-.27,0-.66.06-.88,0-.44,0-.45v-.87l0-.43,0-.31,0-.44-.05-.42-.07-.41L33,20.82l-.1-.4-.13-.4-.07-.19-.08-.19-.14-.31-.15-.24-.1-.15L32,18.7l-.29-.36-.34-.41-.51-.58-.46-.51L30,16.37l-.55-.56-.88-.87-.63-.58-.65-.58-.66-.58-.34-.28-.69-.54,0,0a1.43,1.43,0,0,0,.41-.17,1.63,1.63,0,0,0,.82-1.28l0-.33,0-.22,0-.17.2-.07.2,0,.27-.07.59-.15.5-.12L29,9.65l.6-.12L30,9.46l.79-.13,1-.14,1-.13,1.09-.13L35,8.81,36.2,8.7,38,8.56l2.17-.15,2.53-.15,9.19-.47,5.25-.34a1.42,1.42,0,0,0,1.16-.72A1.14,1.14,0,0,0,58.37,5.58Z"/><path d="M39.24,16.2,39.1,16l-.06-.1L39,15.78l-.09-.16-.08-.17-.16-.36-.37-1-.08-.2-.09-.2-.1-.2-.08-.15-.15-.21-.09-.11-.11-.11-.13-.11-.09-.07-.17-.11-.25-.1-.06,0-.53,0-.79.33-.56.5-.24.3-.12.21-.12.23-.07.17-.06.19-.09.31L34,15.9l-.08.32-.06.22-.1.32a1.91,1.91,0,0,0-.65.56,1.33,1.33,0,0,0-.23,1.25,1.08,1.08,0,0,0,.76.66l.18,0,.2,0,.2,0,.2,0,.2-.06.2-.09L35,19l.17-.11.15-.11.14-.13.13-.12.15-.17.18-.23,0-.07.08.12.12.18.19.25.21.23.11.12.24.22.13.1.14.1.15.09.15.09.16.08.17.07.17.07.18.06.18.05.19,0,.19,0,.2,0h.84L40,20l.23,0,.23,0,.23-.05.22-.06.15,0,.16-.06.17-.07.23-.11.3-.17.29-.19.28-.21.26-.22.24-.23.23-.23.2-.23.19-.22.08.07.35.26.26.18.26.18.25.16.25.15.24.14.3.15.23.11.23.1.22.08.23.08.23.06.22,0,.22,0,.22,0,.23,0h.22l.22,0,.22,0,.23-.05.22-.06.23-.07.22-.1.22-.11.21-.12.21-.14.2-.15.19-.16.18-.16.16-.17.16-.17.13-.16L51,17.8l.16-.23.19-.29.18-.29.12-.21.12.18.17.22.17.2.18.2.19.18.19.16.21.15.21.14.22.13.22.12.23.1.24.1.24.1.31.1a1.06,1.06,0,0,0,.4.08,1.4,1.4,0,0,0,1-.55,1.19,1.19,0,0,0,.27-1.08,1,1,0,0,0-.53-.66l-.28-.14-.3-.17-.25-.17-.11-.09-.1-.09-.1-.09-.09-.1-.08-.11-.09-.12-.09-.14-.08-.16-.09-.17-.11-.23-.12-.69-.09-.35,0-.17,0-.12-.08-.2-.08-.14-.08-.12-.17-.19L53,12.74l-.35-.14-.45,0-.44.13-.14.07-.14.07-.2.12-.2.13-.18.15-.17.14-.17.16-.14.15-.14.15-.13.15-.12.16-.16.22-.19.28-.16.26L48.92,16l-.1.16-.14.2-.16.18,0-.12-.17,0-.21-.06-.26-.1-.3-.14-.3-.17L47,15.76l-.31-.21-.21-.15-.3-.23L46.07,15l-.28-.89-.07-.19-.1-.24-.07-.13-.08-.13-.07-.1-.16-.17-.19-.16-.11-.06-.11-.05a1.38,1.38,0,0,0-.54-.09h-.23l-.92.44-.49.54-.14.21-.08.17-.27.56L42,15l-.13.26-.15.26-.15.26-.23.33-.2.25.3.41L41,16.49l.28.41L41,16.56l-.29.06-.21,0h-.36l0,.5-.1-.53-.09.5,0-.53-.14.48h0l0-.52-.19.46.08-.51-.23.44.13-.51-.27.42h0l.18-.49-.31.39h0l.21-.48-.34.37h0Z"/><path d="M40.45,34.05l-.22.3-.31.42-.23.27-.13,0-.2,0H39.1l-.11.5h0l-.06-.51L38.7,35,38.58,35l0-.05-.1-.1-.06-.08-.06-.1-.06-.12-.17-.34-.14-.33-.21-.46-.11-.2L37.5,33l-.13-.19-.11-.14-.09-.1-.1-.1-.1-.1-.11-.09-.13-.09-.12-.08L36.47,32l-.11,0-.23-.09-.19-.05-.27,0-.32,0-.36.11-.4.19-.38.29-.31.32-.22.28-.15.25-.09.19-.06.16-.05.14,0,.18,0,.18-.09.59-.11.21L33,35l-.12.16-.09.12-.12.12-.14.13-.15.13-.35.29-.31.24-.64.47a1.69,1.69,0,0,0-.8,1.41,1.08,1.08,0,0,0,1.09,1,1.29,1.29,0,0,0,.71-.21l.72-.4.38-.22.26-.16.26-.17.27-.18.27-.21.28-.22.27-.25.21-.2.2-.22.1.18.14.21.14.2.13.14.19.21.22.19.12.09.13.08.13.08.14.08.14.06.16.07.16,0,.16.05.16,0,.17,0,.18,0,.18,0h.76l.2,0,.2,0,.43-.08.41-.1.17-.06.22-.1.27-.14.27-.18.23-.17.21-.18.19-.18.17-.18.16-.17.31-.35.24-.31.08.18.09.2.1.19.12.21.12.19.14.2.12.14.09.1.2.19.11.09.11.09.12.08.12.07.14.08.13.06.15.06.15.05.15,0,.15,0,.17,0,.16,0h.51l.24,0,.47-.06.29-.06.3-.08.3-.09.3-.1.31-.12.3-.15.23-.12.33-.2.31-.22.16-.12.16-.13.15-.14.15-.15.21-.22.15.16.17.17.19.16.15.11.11.08.24.14.26.13.14.05.14,0,.15.05.15,0,.16,0,.32,0h.35l.35,0,.18,0,.18,0,.19,0,.2,0,.39-.11.41-.13.43-.16.27-.12a1.51,1.51,0,0,0,.88-1,1.07,1.07,0,0,0-.17-.94,1,1,0,0,0-.82-.4,1,1,0,0,0-.39.07l-.37.11L54,35l-.24.05-.21,0h-.26l-.12.49h0l-.07-.5-.16,0-.1.49V35l-.27.42.16-.48-.08-.05-.11-.09-.13-.13-.08-.1-.07-.1-.16-.26-.25-.45-.2-.32-.11-.17-.13-.17-.15-.18L51,32.77l-.13-.12-.11-.07-.12-.08-.14-.07-.13,0-.12,0-.19-.05H50l-.42,0-.61.29-.45.42-.2.27-.12.2-.07.14-.06.15-.1.3-.11.4-.09.4,0,0-.07,0-.1.06-.12,0-.12,0-.14.05-.14,0-.16,0-.15,0-.27,0H46.3l-.09.5,0-.5-.08,0-.09,0,0,0-.07-.07L45.82,35l-.06-.08-.06-.1-.12-.23-.15-.35-.24-.59L45,33.28l-.1-.19-.11-.19-.13-.2-.14-.18-.12-.14-.1-.09-.1-.09-.11-.09L44,32,43.87,32l-.14-.06-.13-.06-.12,0-.2-.05a1.24,1.24,0,0,0-.27,0,1.84,1.84,0,0,0-1,.31l-.07,0-.57.53,0,0h0l-.45.71h0l-.13.22Z"/><path d="M56.17,43.71h-.11l-.24,0h-.51L55,43.69l-.14,0-.14,0-.14-.06-.14-.06-.14-.07-.27-.15-.13-.09L53.86,43l-.15-.23L53.23,42l-.12-.16-.06-.07-.15-.16-.37-.17-.2,0h-.1a1.24,1.24,0,0,0-.33,0l-.08,0-.16.06-.15.05-.15.07-.15.09-.16.11-.21.16-.23.2-.18.2-.15.18-.12.17-.1.16-.3.51-.12.19,0,0-.06,0-.12,0,.12.49-.22-.47.08.49h0l-.2-.48H48.7l-.43,0-.2,0-.07,0-.15-.08-.15-.1-.17-.13-.16-.15-.19-.2-.26-.29-.35-.42-.12-.14-.19-.19-.21-.16-.3-.14-.63,0-.7.33-.1.07a2.44,2.44,0,0,0-.3.27l-.12.13-.17.19-.14.19-.13.18-.21.33-.13.23-.38.7-.09.17h-.08l-.08-.05-.17-.12-.2-.17-.22-.22-.28-.3-.24-.27L41,42.73,40.4,42l-.17-.2-.1-.13L40,41.53,40,41.46l-.11-.09-.13-.08-.22-.11-.29,0h-.29l-.3.06-.41.18-.28.18-.22.18-.14.14-.21.22-.19.25-.16.22-.71,1.07-.21.29-.2.27-.19.22-.17.18-.12.11.25.44-.39-.33h0l-.16,0-.09,0-.13-.05-.15-.07-.15-.08-.15-.09-.15-.1-.15-.12-.15-.12L33.79,44l-.13-.13-.12-.13-.11-.13-.09-.12-.09-.14L33,42.65l-.11-.34-.08-.18-.06-.1-.11-.17-.25-.25-.32-.13-.1,0H32a1.43,1.43,0,0,0-.28,0h-.19l-.28.06-.31.12-.34.18-.32.26-.28.28-.2.27-.15.24-.1.2-.07.18-.06.2,0,.2,0,.17,0,.23-.1.11-.17.15-.18.15-.2.12-.2.11-.21.09-.13,0,0,.51L28,44.82l0,.51h0l-.11-.5-.23.45.09-.5-.13-.08-.14-.12-.16-.17-.17-.21-.21-.29-.58-.85-.17-.22L26,42.69l-.13-.15-.14-.14-.15-.15-.14-.12L25.3,42l-.18-.1-.33-.1h-.38l-.43.11-.35.16-.29.2-.23.2-.2.2-.17.21-.14.19-.1.16-.08.15-.48.89-.14.24-.13.21-.16.24-.09.1-.39.05-.34,0h-.56l-.33,0-.25-.05-.23.46.05-.52-.1,0-.08,0L19,44.83l-.1-.1-.06-.08-.06-.09-.06-.11-.27-.53-.23-.43-.11-.2L18,43.1l-.15-.2-.16-.19-.13-.14-.1-.09-.11-.1-.24-.17L17,42.13l-.14-.07L16.64,42l-.08,0-.3-.06-.46,0-.46.19-.3.2-.23.2-.15.15-.11.13-.09.11-.19.28-.14.24-.14.27-.53,1-.29.53-.08.13-.16.25a1.75,1.75,0,0,0-1.09.64,1.41,1.41,0,0,0-.32,1.21,1.13,1.13,0,0,0,.66.74l.17,0,.18,0,.18,0h.19l.2,0,.17,0,.17,0,.16-.07.17-.08.21-.12.25-.18.24-.2.21-.2.19-.21.17-.2.17-.21.15-.21.19-.27.14.29.12.21.13.21.15.2.13.15.09.11.1.1.12.1.11.1.12.09.13.09L17,48l.15.08.14.07.15.06.15.06.17.06.16,0,.17,0,.18,0,.19,0,.38,0,.2,0h.64l.45,0,.49,0,.41-.05.22,0,.16,0,.16,0,.17-.06.17-.08.23-.11.3-.17.29-.2.28-.22.25-.23.23-.23.21-.23.19-.23.13-.18.09.12.25.31.13.16.14.15.15.15.16.15.18.14.19.14.21.12.22.11L26,48l.18.06.14,0,.27.05h.73l.16,0,.3-.06L28,48l.28-.09.3-.11.28-.13.29-.13.28-.16.27-.16L30,47l.26-.19.26-.2.24-.21.17-.15.11.12.21.21.22.19.22.19.24.17.24.17.26.15.26.15.27.12.28.11.21.07.31.08.15,0,.18,0h.52l.18,0L35,48l.17,0,.18,0,.17,0,.17-.07.17-.08.17-.08.24-.13.29-.19.3-.22.27-.22.25-.23.24-.24.21-.23L38,46l.19-.23.3-.39.24.28.27.3.22.23.15.15.31.29.16.14.16.13.18.13.18.12.2.11.2.1.22.09.14,0,.22,0,.21,0h.68l.28,0,.15,0,.21-.06.26-.1.27-.12.28-.16.26-.18.24-.19.23-.21.2-.21.18-.21.15-.2.15-.21.09.08.28.22.15.11.16.1.17.1.18.09.18.09.2.07.2.07.22.05.21,0,.12,0,.29,0,.19,0h.71l.35,0,.32,0,.31-.07.31-.09.29-.11.15-.07.14-.07.14-.08.14-.08.15-.1.19-.14.23-.2.22-.21.2-.22.18-.23.13.15.12.12.16.12.14.09.21.11.22.12.23.1.23.09.24.09.24.07.24.07.25,0,.26,0,.26,0h.53l.27,0,.27,0,.35-.06a1.51,1.51,0,0,0,1-.84,1.05,1.05,0,0,0-.06-1.06A1,1,0,0,0,56.17,43.71Z"/><path d="M56.24,52.53h-.06l-.15,0-.18-.07-.1-.05-.22-.12-.21-.16-.23-.18-.27-.25-.16-.16-.3-.32-.6-.68-.15-.15-.13-.11-.07-.06-.2-.11L53,50l-.12,0h-.41l-.36.11-.45.3-.23.23-.15.19-.1.14-.07.12-.19.35-.38.74-.23.43-.09.13h-.09l-.22,0-.1,0-.09,0-.16-.07-.15-.09-.15-.12-.16-.15L49,52l-.17-.21-.73-1-.17-.23-.13-.15-.27-.31L47.33,50l-.08-.06-.3-.17-.53,0-.48.14-.38.21-.24.19-.14.13-.18.21-.17.21-.46.65-.14.19-.14.18-.22.25-.2.18.24.46h0l-.36-.36.2.46-.31-.39.15.48-.31-.4-.16,0H43l-.17,0-.22-.07-.13-.06-.28-.13L42,52.07l-.3-.19-.29-.2-.42-.32-.37-.3-.35-.32,0,0-.38-.3-.27-.25-.05.06a1.28,1.28,0,0,0-.48-.09,1.41,1.41,0,0,0-.42.06l-.23.08-.32.15-.27.18-.22.17-.16.16-.15.14-.13.14-.21.25-.68.87-.23.28-.16.17h-.36l-.11,0-.12,0-.12-.05L35,52.59l-.13-.07-.12-.08-.13-.08-.12-.1-.12-.1L34.27,52l-.7-1.1-.19-.28-.09-.12-.15-.18L33,50.21,32.58,50h-.7a2.2,2.2,0,0,0-.44.17l-.28.15-.17.1-.16.11-.16.12-.17.13-.23.19-.26.24-.24.24-.2.24-.19.22-.17.21-.67.94-.13.16-.06.06h0v0l-.12.1,0-.12v.16l-.07.05,0-.22-.16,0-.2-.05-.35-.1-.12.17-.26.12h0l.39-.32-.1-.25-.15-.41L27,52.2,26.91,52l-.07-.14-.07-.14-.1-.14-.1-.14-.13-.14-.14-.13-.17-.13L25.92,51l-.23-.09-.24,0-.19,0h-.33l-.24,0-.3.1-.32.15-.3.18-.23.17-.2.17-.18.16-.31.31-.38.44-.6.71-.19.22-.14.15-.25.25-.07.06h-.58l-.28,0-.24,0-.25-.05-.2,0-.23-.07-.24-.08L19,53.5l-.21-.1-.2-.11-.18-.11-.15-.11L18.11,53l-.1-.1-.53-.91-.1-.18-.2-.3-.12-.14L17,51.23l-.1-.11-.1-.09-.18-.13-.19-.11-.34-.1h-.43l-.31.08-.27.12-.33.21-.26.23-.19.21-.12.17-.11.16-.1.17-.08.18-.13.32-.32.91-.13.36-.08.21-.08.2h0a1.59,1.59,0,0,0-1.19.61A1.43,1.43,0,0,0,11.57,56a1.09,1.09,0,0,0,.59.75l.16.08.15.05.16,0,.17,0L13,57h.34l.18,0,.17,0,.17-.07.16-.07.16-.09.16-.1.14-.1.15-.12.18-.17L15,56l.18-.23.19-.26.08.09.14.14.15.13.3.23.15.11.16.1.17.1.16.09.34.17.35.14.36.13.36.11.28.07.36.07.37.06.27,0,.37,0h.35l.39,0,.31,0,.14,0,.27-.07.29-.09.29-.13.28-.14.27-.17.25-.17.23-.18.22-.18.2-.19.19-.18.19-.19.24-.26.32-.36.07.16.07.14.08.13.08.14.11.14.12.14.13.13L25,56l.18.12.2.1.12.05.28.1.19.05.36.1.36.07.18,0,.18,0h.7l.18,0,.17,0,.18,0,.17,0,.17-.06.18-.07.17-.08.18-.08.17-.1.16-.1.17-.12.22-.16.27-.23.26-.25.22-.24.2-.24.17-.22.32-.44.09.12.13.19.13.16.31.28.19.17.21.16.22.15.23.14.24.14.25.11.26.11.27.09.29.07.29.05.22,0h.66l.17,0,.17,0,.16,0,.24-.06.24-.09.25-.11.24-.13.23-.14.22-.15.2-.16.19-.16.17-.16.16-.16.16-.16.33-.37.09-.12.28.21.34.25.37.25.4.24.2.11.21.11.21.1.22.1.23.09.23.08.24.06.25.06.25,0h.49l.23,0,.23,0,.22,0,.29-.08.28-.1.28-.13.28-.14.26-.15.25-.17.24-.18.22-.18.22-.18.19-.19.19-.19.21-.23.24.31.25.29.27.28.15.14.16.13.18.13.18.13.19.11.21.11.21.09.23.09.23.06.31.07.26,0,.27,0h.28l.29,0,.29,0,.23,0,.25-.07.28-.12.27-.16.27-.19.22-.19.19-.19.17-.19.15-.18.13-.18.11-.18.11-.18.16-.28.24.2.22.18.16.13.34.23.17.11.19.1.19.1.2.09.21.09.22.07.22.06.24.05.23,0h.32a1.44,1.44,0,0,0,1.16-.7,1.15,1.15,0,0,0,.06-1.16A1,1,0,0,0,56.24,52.53Z"/></svg>