<svg xmlns="http://www.w3.org/2000/svg" width="64" height="64" viewBox="0 0 64 64" fill="#1FA28F"><path d="M57.77,45.26A.92.92,0,0,0,57,44.8h-.3l-.1-.15-.17-.27-.16-.27-.15-.27L56,43.56l-.14-.28L55.7,43l-.12-.29-.11-.29-.11-.3-.1-.3-.18-.61-.16-.63-.15-.64-.16-.81-.12-.66-.22-1.37L54,35.73l-.14-.68-.2-.85-.17-.69-.2-.68-.11-.34-.24-.68-.13-.34L52.59,31l.14-.45.1-.34.09-.34.08-.34.13-.68.15-.85.1-.67.08-.67.22-1.95.08-.63.1-.77.1-.59.11-.59.14-.56.07-.27.08-.27.08-.26.09-.26.1-.25.1-.24.11-.24.11-.23.13-.22.13-.22.14-.22.18-.25.18-.06.23-.08.29-.11a1.72,1.72,0,0,0,1-1,1,1,0,0,0,0-.6.94.94,0,0,0,0-.55.92.92,0,0,0-.89-.65,1.16,1.16,0,0,0-.69.24l-.24.19-.16.12-.29.25-.25,0h-.54l-.27,0-.28,0-.34-.07L53,16.11,52.69,16l-.28-.1-.29-.12-.3-.12-.29-.13-.61-.29-1.58-.81-.69-.34L48.3,14l-.36-.14-.36-.13-.37-.12-.39-.12-.38-.1-.3-.06-.43-.08-.47-.06-.24,0-.46,0h-.46l-.45,0-.33,0-.43,0-.42.05-.42.07-.41.07-.59.12-.2-.26-.43-.52L40,12.22l-.46-.5-.35-.36-.47-.47L37.26,9.53l-.9-.88-.44-.45-.52-.55L35,7.2l-.37-.44-.35-.45-.16-.23L34,5.85l-.28-.46-.14-.24-.12-.23-.11-.24-.11-.24-.1-.24L33,4l-.08-.25-.1-.37a.91.91,0,0,0-.9-.73,1.15,1.15,0,0,0-.67.23A1.23,1.23,0,0,0,30.72,4V4a1.79,1.79,0,0,0-.2.34l-.07.15-.15.26L30.15,5,30,5.26l-.19.22-.3.32-.32.3-.42.35-.27.2-.27.19-.29.2-.61.39-1.49.93-.53.33-.36.24-.36.26-.36.27-.36.28-.27.22-.37.32-.35.34-.35.36-.34.39-.32.4L21.7,12l-.15.22-.14.22-.16.26-.16.28-.24.44-.48.12-.44.12-.58.17-.58.18-1.14.39-2.26.81-1,.34-.58.18-.58.17-.58.15-.6.14-.79.16-1.11.26-.28.06-.34.06-.16,0H8.9l-.18,0-.35-.13-.16-.05L8,16.48l-.13,0H7.33l-.22.07-.27.13-.33.27-.21.27a1.54,1.54,0,0,0-.15.37l0,.22v.15l0,.16,0,.16,0,.11.09.16.28.43,1.11,1.67.11.16a.9.9,0,0,0,.82.49h.05l0,.12.19.47.16.5.15.52.14.53.15.68.11.56L10,26.35l.11.57.13.59.14.58.29,1.17.16.59.17.6.18.59.14.45.11.33-.2.43-.27.66-.27.67-.24.68-.24.7-.28.88-.2.7-.2.71-.38,1.42-.71,2.77-.34,1.32-.22.78-.18.61-.18.58-.28.81L7,46.05l-.19.46-.15.32a1,1,0,0,0,0,1,.92.92,0,0,0,.8.43l.13,0a1.33,1.33,0,0,0,.91-.63h0a1.28,1.28,0,0,0,.3,0l.41-.1.27-.05.27,0,.27,0,.27,0,.27,0h.83l.28,0,.28,0,.56.07.29.05.57.11.59.14.73.2.59.17.6.19.62.2,1,.3.95.29.64.18.65.18.65.16.4.09.24.36.19.27.39.52.2.25.41.5.43.48.45.46.34.34.46.44.46.42.47.42,1.86,1.64.46.4.45.41.44.42.53.53L29,58l.4.44.38.45.36.46.17.24.34.48.16.25.15.26.21.37a.92.92,0,0,0,.83.5,1.17,1.17,0,0,0,.75-.3,1.14,1.14,0,0,0,.41-1.27l.13-.34.12-.27.13-.25.14-.23.15-.24.16-.22.22-.27.18-.22.2-.21.2-.21.22-.2.22-.21.48-.41.65-.53,1.7-1.32.45-.37.31-.26.3-.27.3-.28.29-.28.3-.3.29-.32.27-.32.47-.57,1-1.15.23,0,.36,0,.35-.05.36,0,.35-.07.7-.14L45.1,50,46,49.8l.67-.2.67-.22.66-.23,2.59-.9.64-.21.65-.21.48-.14.63-.17.64-.16.65-.14.65-.11.26,0a1,1,0,0,0,.67.26,1.42,1.42,0,0,0,.92-.39,1.3,1.3,0,0,0,1-.65A1,1,0,0,0,57.77,45.26ZM41.68,46.32l-.08.27-.09.24-.11.24-.13.25-.14.24-.16.25-.28,0-.29,0-.3-.05-.3-.06-.31-.07-.3-.08-.62-.2-.31-.12L37.94,47l-.32-.14-.32-.16L37,46.56l-.34-.19-.29-.18L36.08,46l-.26-.17-.25-.18-.24-.19-.23-.18-.22-.19-.22-.19-.21-.2-.29-.29.15-.26.15-.29.15-.3.13-.29.13-.3.12-.3.11-.3.1-.3.09-.31.08-.3.08-.3.07-.31.06-.3.1-.62,0-.3,0-.31,0-.62V37.48l0-.31,0-.3,0-.31,0-.41.24.21.48.4.5.36.26.17.26.17.26.15.27.15.27.14.27.14.28.12.28.12.29.11.29.1.3.09.26.07.13.2.22.37.21.37.2.38.17.38.17.39.14.4.13.39.12.4.09.4.08.41.06.4,0,.4,0,.4v.41l0,.4,0,.4-.06.39-.07.39Zm-4.15,5.5-.87.77L35,54l-.44.39-.29.26L34,55l-.29.28-.29.29-.28.31-.28.31-.26.32-.26.33-.18.25-.12.17-.17.26L31.49,57l-.4-.52-.41-.5-.43-.49-.33-.35-.43-.47L29,54.24l-.44-.45-1.33-1.3-.87-.86L26,51.2l-.41-.44-.3-.33-.33-.36.47,0,.37,0,.36,0,.37-.07.37-.08.37-.09.37-.11.38-.12.38-.14.38-.16.38-.17.22-.11.47-.25.32-.18.31-.19.6-.42.29-.22.29-.23.27-.24.2-.18.31.29.26.23.27.22.28.21.29.21.29.21.31.2.31.19.36.21.39.22.38.19.39.18.38.17.39.15.38.13.38.12.38.11.38.1.37.08.19,0-.3.36-.17.2-.18.2-.4.41ZM21.79,43.53l0-.26v-.74l0-.24,0-.24,0-.24,0-.23.05-.23,0-.22.06-.22.07-.22.15-.44.08-.21.19-.42.11-.21.22-.41.24-.41.67-.21.54-.19.53-.21.53-.24.53-.25.52-.26.52-.29.52-.31.51-.32.5-.34.39-.28-.07.34-.1.6,0,.3,0,.3,0,.3,0,.3V39l0,.3,0,.3,0,.3,0,.3,0,.3.05.29.06.3.07.29.07.3L29,42l.09.29.09.28.11.29.12.28.12.28.13.28.14.28.15.27.15.27.17.27.15.24-.25.23-.16.13-.16.13-.36.24-.19.12-.2.12-.22.12-.22.11-.26.12-.25.1-.26.1-.26.08-.26.08-.27.07-.26.05-.27,0-.27,0-.28,0-.27,0H24.66l-.58,0-.58-.07-.3,0-.51-.09-.14-.33-.11-.27-.1-.27-.1-.28-.09-.29L22.07,45l-.14-.6-.06-.32,0-.28Zm-2.15-3.84-.22.6-.11.31-.09.31-.08.31-.07.32-.06.32-.06.33,0,.32,0,.33,0,.33v.67l0,.34,0,.34L19,45l.11.56.05.22-1.11-.3-.66-.16-.67-.15-.66-.14-.51-.1-.68-.11-.69-.1-.34,0-.35,0-.35,0-.35,0H11.73l-.35,0-.36,0-.37.05-.36.06-.36.07L9.68,45l.4-1.17.27-.84.42-1.37.82-2.81.22-.71.43-1.38.23-.69.35-1,.17.28.18.27.18.27.19.26.29.39.26.31.18.19.38.36.2.16.2.16.2.15.21.14.22.14.21.12.23.12.22.1.23.1.24.09.23.09.48.14.24.06.5.1.25,0,.25,0,.26,0h.89l-.14.31Zm-.11-22.91-.15.61-.13.61-.1.61-.08.62-.06.61,0,.62v.92L19,22l0,.3,0,.3.08.6.05.3.06.29.14.59.13.46-.27.1-.38.14-.39.15-.38.17-.39.18-.39.19-.4.21-.39.21-.8.48-.39.25-.36.25-.28.2-.28.23-.27.24-.38.38-.12-.43-.45-1.73-.3-1-.43-1.64-.16-.56-.13-.42L12,21.82l-.2-.56-.23-.56-.12-.28-.13-.27-.14-.27L11,19.61l-.16-.26-.16-.26-.15-.21.62-.13.77-.12.33-.06.66-.14.64-.15.62-.16L15,17.9l.59-.19.59-.18L17.82,17l1.07-.35.75-.22ZM20.84,36h-.38l-.38,0-.37,0-.36-.06L19,35.82l-.34-.1-.17-.06-.32-.13-.3-.16-.15-.09-.3-.18L17.29,35l-.13-.11L17,34.77l-.13-.12-.26-.27-.12-.15-.15-.17-.16-.22-.15-.21-.15-.22L15.62,33l-.14-.24-.25-.48L15.11,32l-.23-.51L14.67,31l.1-.16.27-.37.26-.33.13-.14.13-.13.24-.23.12-.1.15-.1.55-.36.32-.19.31-.18.32-.17.31-.16.31-.15.31-.14.3-.13.3-.12.3-.1.29-.1.3-.09.29-.08.34-.08.21.33.16.26.18.25.18.24.19.25.2.23.2.24.22.22.22.23.23.21.23.21.25.21.25.2.06,0,.05.05.05,0,.43.3.37.24.38.23.49.26.38.19L26,32l.17.07-.26.16-.27.17-.26.19-.27.19-.26.2-.26.21-.26.21-.26.23-.25.23-.25.24-.25.25-.48.52-.24.27-.23.28-.43.55-.25,0-.4,0Zm3.89-23.66.32-.29.17-.15.26-.2.27-.21.59-.43.47-.34,1.53-1.05.7-.51.36-.27.35-.28.34-.29L30.51,8l.34-.32.32-.35.32-.36.16-.2.13.26.16.28.17.28.17.28.18.27.19.27L33,8.9l.41.51L34,10l.43.49.44.49,1.76,1.9.42.48.7.8-.34.1-.36.12-.35.13-.35.15-.34.15-.33.17-.33.18-.32.18-.31.2-.3.22-.3.22-.29.24-.28.24-.27.26L33,17l-.24.27-.08.09-.18-.31-.14-.22-.16-.22L32,16.42l-.13-.17-.31-.31-.12-.1-.11-.1-.24-.18-.36-.24-.35-.24L30,14.86l-.35-.21-.35-.19L29,14.28l-.34-.17L28.32,14,28,13.81l-.34-.13-.34-.11L27,13.46l-.33-.09-.33-.08L26,13.22l-.33-.06-.32-.05-.33,0-.32,0-.32,0h-.21l.21-.26.18-.2Zm15.89,7.85,0,.31v.81l0,.35,0,.34,0,.33-.09.49-.07.32-.08.3-.14.44-.34.06-.29.06-.3.07-.29.08-.29.09-.29.1-.29.1-.29.12-.28.12-.28.12L37,25l-.28.14-.27.15-.28.16-.27.16-.35.23.05-.41,0-.28,0-.28V24l0-.27,0-.28,0-.27,0-.28-.05-.27-.07-.28-.07-.27-.08-.27-.1-.27-.1-.26L34.88,21l-.12-.26-.13-.27-.14-.26L34.34,20l-.16-.27.16-.28.1-.14.2-.28.22-.26.24-.24.13-.12.14-.11.14-.12.16-.11.17-.11.18-.1.19-.11.21-.1.21-.1.23-.09.24-.09.25-.09.28-.08.21-.06.28-.06.3-.07,1.12-.2.08.17.14.26.12.26.12.26.1.27.1.27.09.27.08.28.07.28.07.29.05.29,0,.3Zm-4.86,13,.5.14.25.09.25.09.24.1.24.1.24.11.45.24.24.13.44.28.22.15.21.16.21.16.2.16.2.17.4.36.19.19.36.38.13.15-.35-.06L40,36.2l-.34-.08L39.36,36,39,35.92l-.34-.12-.33-.14L38,35.52l-.33-.17-.25-.13-.16-.09-.16-.1-.16-.1-.16-.1-.17-.11-.15-.11-.16-.11-.07-.06-.12-.08-.2-.17L35.71,34l-.2-.18-.19-.19L35,33.27l-.18-.2L34.7,33,35,33l.26,0Zm0-3.93-.29.13-.3.13-.3.12-.34.11-.12-.23.06-.07.16-.17.16-.16L35,29l.17-.16.17-.14.17-.15.17-.14.17-.13.18-.14.18-.12.19-.13.18-.12.19-.11.2-.11.19-.11.2-.1.2-.1.21-.09.2-.09.21-.08.21-.08.22-.07.22-.06.22-.06.12,0-.21.25-.2.22-.21.21-.21.21-.22.2-.22.2-.24.19-.24.18-.25.17-.26.17-.26.17-.27.15-.28.15ZM34,26.18v.26L34,27l0,.25,0,.26,0,.25,0,.24-.05.25,0,.24-.06.23-.07.24-.07.23-.07.22-.08.22-.08.21-.12-.22-.13-.23-.22-.48-.1-.23-.1-.25-.09-.24-.08-.24-.07-.25-.07-.24-.12-.5,0-.25-.05-.25,0-.25,0-.26,0-.25,0-.5v-1l0-.25,0-.25,0-.25,0-.25,0-.25,0-.25,0-.25.06-.24.06-.25.06-.24.14-.48.08-.24.09-.24.1-.28.11.24.1.25.1.26.09.25.18.52.08.27.07.26.07.26.06.27.06.26.05.27,0,.27,0,.26,0,.27,0,.27,0,.27,0,.26v1.05Zm-1.57,16.4-.13-.23-.22-.48-.1-.23-.1-.25-.09-.24-.08-.24-.07-.25-.07-.24-.12-.5,0-.25-.05-.25,0-.25,0-.26,0-.25,0-.5v-1l0-.25,0-.25,0-.25,0-.25,0-.25,0-.25.05-.25.06-.24.06-.25.06-.24.14-.48.08-.24L32,33.7l0-.12.06-.16.11.24.1.25.1.26.09.25.09.26.09.26.08.27.07.26.07.26L33,36l.06.26,0,.27.05.27,0,.26,0,.27,0,.27,0,.27,0,.26v1.31l0,.52,0,.25,0,.26,0,.25,0,.24,0,.25-.05.24-.06.23-.07.24-.07.23-.07.22-.08.22-.08.21-.08-.14ZM29.21,30l-.34-.08-.34-.09-.34-.11-.34-.12-.33-.14-.34-.14-.33-.17L26.6,29l-.16-.09-.16-.1-.16-.1-.16-.1-.16-.11-.16-.11-.16-.11-.07-.06-.11-.08L25.09,28l-.21-.17-.2-.18-.19-.19-.36-.38-.18-.2-.08-.1.28,0,.26,0,.26.06.26.06.5.14.25.09.25.09.24.1.24.1.24.11.46.24.23.13.22.14.22.14.22.15.21.16.21.16.2.16.2.17.4.36.19.19.36.38.13.15-.35-.06ZM26.57,34.1l.4-.2.21-.09.2-.09.21-.08.21-.08.22-.07.22-.06.22-.06.12,0-.21.25-.2.22L28,34l-.21.21-.22.2-.22.2-.24.19-.24.18-.25.17-.26.17-.26.17-.27.15-.28.15-.29.14-.29.13-.3.13-.3.12-.34.11-.12-.23.06-.07.16-.17.16-.16.16-.15.17-.16.17-.14.17-.15.17-.14.17-.13.18-.14.18-.12.19-.13.18-.12.19-.11.2-.11ZM24,15.93l.25,0,.26,0,.25.05.26.06.26.07.26.08.27.08.27.1.27.11.28.13.28.13.29.14.29.16.3.17.29.18.31.2.3.21.32.23.24.18L29.5,18l-.16.41.28-.29-.18.38.07.1.11.14.11.16.22.35.4.73.18.32.14.23.16.23-.13.43-.08.31-.07.31-.06.3,0,.31,0,.31,0,.32,0,.31,0,.31v.63l0,.62,0,.32,0,.31,0,.32,0,.31.07.47-.16-.12-.24-.19-.25-.18L29.62,26l-.26-.17-.26-.16-.27-.15-.27-.15-.28-.13L28,25.07l-.29-.13-.29-.11-.3-.11-.29-.1-.31-.09-.31-.08-.31-.07-.64-.12-.32,0-.33,0-.33,0-.34,0h-.68l-.35,0h-.12l-.11-.29-.08-.24-.15-.47-.12-.48,0-.24-.05-.25-.08-.49-.06-.5,0-.5v-1l0-.51.05-.51.07-.5.08-.5.11-.5.12-.5.14-.48.11-.32h.74l.25,0ZM42.13,35.55l-.33-.39-.34-.38-.35-.36-.37-.36-.38-.34L40,33.39l-.41-.31-.41-.3-.42-.29-.43-.27L37.87,32l-.45-.24L37,31.51l-.42-.18.27-.14.37-.22.37-.23.36-.23.36-.26.35-.26.35-.28.33-.29.33-.3.32-.31.31-.32.3-.34.28-.34.28-.35.26-.36.19-.29.43.05.24,0,.24,0,.24.05.48.12.25.07.49.17.25.1.25.11.25.12.26.12.25.13.26.15.37.23.32.21.44.32.42.34.39.34.29.28.23.24.21.24.4.5.18.26.17.26.17.26.15.27.17.31-.16.3-.13.21-.14.21-.14.2-.16.2-.12.15-.16.18-.17.18-.19.18-.31.26-.39.3-.23.17-.24.15-.23.14-.23.14-.23.12-.23.11-.22.1-.23.09-.23.09-.46.14-.23,0-.22.05-.23,0-.23,0-.23,0h-.45l-.46,0-.22,0-.11,0ZM50,18.23l.36.13.36.11.37.11.38.1.38.08.39.07.29,0,.37,0-.12.21-.16.32-.15.32-.14.33-.13.33-.12.33-.11.33-.1.33-.1.34-.08.33-.16.67-.14.68-.15.84-.11.67-.41,2.63-.05.32-.2-.23-.27-.28L50,27.15l-.3-.28-.32-.27L49,26.33l-.34-.26-.37-.25-.37-.25-.45-.27-.31-.17-.3-.16-.31-.15-.31-.14-.3-.13-.31-.12-.31-.11-.31-.1-.3-.09-.31-.08L44.1,24l-.31-.06-.31-.05L43,23.81l.1-.35.11-.42.09-.43.08-.43.06-.43,0-.43,0-.44v-.56l0-.5,0-.39,0-.48-.06-.38-.08-.36-.08-.36-.1-.36-.1-.34-.12-.34-.13-.33-.11-.24.23,0h1l.35,0,.28,0,.22,0,.22.05.31.07.32.09.31.1.31.11,1,.39,2,.82ZM44.23,47.42l.1-.23.09-.24.09-.24.08-.23.07-.27.13-.54.11-.54,0-.27.06-.53,0-.53V43l0-.51L45,42l-.07-.5-.1-.5-.12-.5L44.52,40l-.16-.48L44.18,39l-.12-.29.28-.07.34-.08.34-.1.33-.11.35-.13.34-.14.34-.15.34-.17.35-.19.34-.2.35-.21L48.1,37l.34-.25.34-.25.44-.36.34-.3.32-.31.3-.32.26-.29.12.44.16.63L51,37.09l.28,1.34.32,1.32.18.66.23.83.21.66.23.66.12.33.13.32.14.33.15.32.15.32.17.32.17.32.16.27-.42.08-.69.15-.86.22-.67.18-.66.19-.65.2-1.91.6-.62.19-.62.18-.61.16-.76.19-.6.13-.42.08Z"/></svg>