<svg xmlns="http://www.w3.org/2000/svg" width="64" height="64" viewBox="0 0 64 64" fill="#1FA28F"><path d="M27.89,18.74l0,.31.1.62.07.31.08.31.09.3.1.3.11.3.13.29.14.29.15.28.17.28.18.28.19.27.21.26.22.26.34.35.25.23.16.13.17.13.18.11.18.11.18.11.19.1.2.09.4.17.21.07.42.14.44.11.45.1.46.08.23,0,.47,0,.48,0h.59l.5,0,.36,0,.48,0,.49-.08.47-.09.48-.12.24-.07.47-.16.22-.09.45-.2.22-.11.22-.11.21-.12.21-.13.21-.14.2-.15.2-.15.38-.34.18-.18.17-.2.1-.12a1.46,1.46,0,0,0,.78-.82,1,1,0,0,0,0-.63l-.44,0a3,3,0,0,1-.52-.06,1.49,1.49,0,0,1-.36,0l-.21,0a6.82,6.82,0,0,1-1.32-.37l-.22,0-.52-.13-.22-.07-.22-.08-.22-.09-.22-.1-.21-.11-.21-.12L38,20l-.21-.14-.19-.15-.38-.32-.19-.18L36.88,19l-.17-.19-.17-.2-.16-.19-.16-.22L36.08,18l-.14-.22-.13-.22-.13-.23-.11-.22-.11-.24-.1-.24-.09-.24-.08-.24-.07-.24-.06-.25L35,15.45l0-.25,0-.24,0-.25,0-.24V14l0-.23,0-.23,0-.22,0-.21,0-.21.06-.2.07-.19.08-.19.06-.15.13-.25.18-.3.08-.15.09-.16.05-.08.18-.24.23-.26.22-.21.11-.09a1.72,1.72,0,0,0,1.14-.85,1.1,1.1,0,0,0,0-1.12A1,1,0,0,0,36.94,8h-.49l-.32,0-.31,0-.31.05-.32.06-.31.08-.31.09-.31.1L34,8.53l-.3.14-.32.15L33,9l-.31.19-.3.21-.29.21-.28.23-.54.48-.26.26-.25.26-.24.27-.23.27-.22.28-.21.29-.2.29-.19.29-.18.3-.17.3-.15.3-.15.3-.14.31-.13.31-.11.31-.11.31-.1.31-.08.31-.08.32-.07.32-.05.31-.05.32,0,.31,0,.64v.63ZM31,14.91l.07-.22.09-.22.09-.21.09-.21.1-.2.11-.19.1-.2.12-.18.11-.18.12-.18.13-.16.13-.17.13-.15.13-.16.14-.14.25-.25-.07.15-.14.34-.12.34-.1.34-.09.34-.07.34-.05.34,0,.33,0,.33v.66l0,.32,0,.33.05.32,0,.31.08.32.08.31.09.3.1.31.12.3.12.29.14.29.14.29.16.28.16.28.18.27.19.26.19.25.21.25.21.23.22.23.24.22.24.21.25.19.26.19.27.18.27.16.28.15.6.26.3.11.32.09L38,23l-.16,0-.19,0-.38,0h-.68l-.3,0h-.19L36,23l-.19,0-.19,0-.19,0-.19,0-.19,0-.18,0-.18,0-.17-.05-.18-.05-.16-.05L34,22.55l-.16-.06-.16-.06-.15-.07-.14-.06-.14-.07-.14-.08L33,22.08l-.24-.16-.11-.09-.1-.08-.1-.09-.13-.14-.36-.4-.15-.21-.15-.21-.14-.21-.13-.22-.12-.22-.1-.22L31,19.6l-.09-.23-.08-.23-.07-.23-.05-.23-.05-.24L30.6,18l0-.24,0-.48v-.47l0-.24,0-.24,0-.24,0-.23.06-.23,0-.23.07-.23Z"/><path d="M64.36,30.75l0-.21,0-.29L64.23,30l-.07-.26-.1-.26-.1-.24L63.84,29l-.13-.23-.14-.22-.15-.21-.17-.21-.17-.19-.18-.19-.19-.18-.2-.16-.21-.16-.22-.15L61.86,27l-.23-.13-.23-.11-.24-.11-.25-.09-.25-.08-.26-.07-.26-.06-.27,0-.27,0H59l-.29,0-.29,0-.18,0,.09-.8v-.87l0-.24,0-.25-.06-.24-.09-.25-.1-.22L58,23.28l-.15-.23-.17-.22-.09-.11-.21-.2-.22-.19-.25-.18L56.61,22l-.29-.16-.21-.1-.23-.11-.24-.09-.24-.07-.24-.06-.24-.05-.24,0-.25,0h-.72l-.24,0-.24,0-.23,0-.24.06-.23.07-.23.07-.23.09-.22.09-.22.1-.22.11-.22.11-.41.25-.4.26-.38.27-.37.29-.27.23-.33.29-.31.29-.29.3-.27.28-.31.34-.2.23-.25-.27-.18-.2-.2-.19-.16-.14-.11-.09-.26-.18L46.36,24l-.15-.08-.16-.08-.16-.06-.19-.06-.19,0-.2,0h-.44l-.23,0-.24.06-.25.08-.25.1-.25.13-.25.15-.25.18-.23.2-.22.2-.2.21-.19.22-.18.23-.16.23-.16.24-.16.25-.14.25-.25.47-.14.29-.13.3-.14.31-.13.34-.13.34-.13.37-.13.38-.08.23a1.22,1.22,0,0,0-.06.65H38.24l-1.1,0L36,30l-1.1,0-1.66-.07L30,29.74l0-.46v-1l0-.34,0-.35-.06-.34-.07-.35-.08-.35-.09-.34-.11-.33-.16-.41-.14-.32-.16-.31-.18-.31-.19-.29-.21-.29-.11-.13-.24-.27-.26-.24-.28-.22L27.47,23l-.16-.1-.15-.09L27,22.68l-.17-.08-.17-.07-.18-.06-.18-.06-.19-.05-.19,0-.2,0-.21,0h-.83l-.22,0-.21,0-.15,0-.15,0-.17.05-.22.08-.26.12-.24.13-.21.12-.15.09-.23-.56-.24-.55L22,21.31l-.31-.59-.17-.3-.18-.3-.18-.29-.2-.29-.2-.27-.27-.34-.23-.26L20,18.43l-.26-.23-.14-.11-.14-.1-.15-.1-.15-.09L19,17.71l-.17-.08-.17-.07-.17-.06-.36-.1-.21,0-.25,0-.25,0-.26,0h-.77l-.25,0-.26,0-.26,0-.26,0-.52.12-.26.08-.26.08-.26.1-.25.1-.26.12-.26.13L13,18.3l-.25.15-.25.17-.26.17L12,19l-.25.21-.23.21-.23.23-.22.24-.21.25-.2.26-.18.26-.15.24-.23.4-.09.18-.18.38-.21.47-.22-.1-.24-.11L8.89,22l-.26-.09-.21-.06-.28-.08-.31-.06-.32,0-.33,0h-.7l-.37,0-.37,0-.2,0-.38.09-.22.07-.43.14-.21.08-.41.17-.2.1-.2.11-.2.11-.2.11-.57.39-.18.15-.18.14L2,23.6l-.33.32-.15.17-.3.34-.26.35L.82,25l-.22.35-.2.36L.23,26l-.15.36L0,26.76-.13,27l-.08.36-.07.35-.06.36,0,.35,0,.35v.7l0,.35,0,.35,0,.34.06.34.08.34.09.34.1.33.11.33.12.33.14.32.15.31.16.31.17.31.18.29.19.29.21.28.21.28.25.28.25.25.26.24.27.21.27.21.21.14.3.19.3.17.31.16.33.14.33.13.17,0,.34.11.35.08.36.06.37,0,.38,0h.38l.39,0,.39,0,.4-.07.6-.15.24-.08L9.32,37v1.08l.05,1.82,0,1.85.05,1.84.1,1.85.2,1.75.12.8a.47.47,0,0,0,0,.17l-.17.16-.23.22-.21.22L9.1,49l-.2.24-.19.24-.19.25L8.35,50l-.17.25L8,50.49l-.15.27L7.74,51l-.13.27-.12.28-.11.27-.1.28-.1.28-.08.29L7,53,7,53.26l-.06.38a1,1,0,0,0,1,1.21,1.38,1.38,0,0,0,.51-.11,1.7,1.7,0,0,0,.92-1.09l.09-.35.13-.43.08-.2.17-.4.09-.19.2-.37.1-.17.1-.17.23-.31.23-.29.24-.26.25-.25.25-.22.27-.2.28-.18.28-.17.15-.08.31-.13.31-.12.33-.11.16,0,.19,0,.36-.06.35,0,.37,0h.56l.18,0,.19,0,.19,0,.19,0,.38.11.19.06.38.16.18.09.19.1.19.11.18.12.19.13.18.13.19.15.18.16.18.17.21.21.15.17.25.31.25.35.24.37.21.37.09.18.09.2.06.14.06.21,0,.45,0,.28,0,.26,0,.14,0,.14.08.16.11.17.14.15.28.18.35.08h.14a2,2,0,0,0,1.28-.56l0,0,.56-.78.09-.28.25-.93L24,52l.14-.41.11-.29.11-.29.1-.22.13-.3.11-.21.22-.39.15-.24.15-.21.21-.25.14-.14-.27-.29.39.19-.25-.31.37.23-.21-.34.32.28.15-.06.18-.06.21,0H27l.21.24.27.17.21.08.2,0h.33l.18,0,.19.1.14.09.12.09.13.1.12.1.11.11.11.12.1.12.1.13.1.13.09.14.17.3.16.32.14.34.12.35.12.37.12.47.09.39.08.39.19,1L31,55l.05.17.07.19.1.18.17.19.1.08a1.06,1.06,0,0,0,.66.21h.12l.59-.17.53-.37.24-.23.11-.14.09-.11.17-.25.27-.42L35.66,52l.38-.63.29-.47.42-.66.28-.4.38-.23.35-.18.22-.1.21-.09.29-.1.28-.07.17,0,.19,0,0-.4.18.39h.23l.17,0,0-.4.07.42.21,0,.22.08.13.07.13.06.12.08.13.09.12.09.12.11.12.11.12.12.22.26.11.15.22.3.2.32.18.34.14.26.17.36.12.27.15.36.14.35.38,1,.17.45.12.27.13.26.08.13.08.13.1.12.16.15.22.15.27.1.21,0H45l.24,0,.26-.08.24-.13.22-.14.17-.13.14-.13.22-.23.09-.1.15-.2.22-.32.24-.37.33-.59.26-.5.93-1.78.14-.26.09-.17.17-.17.14-.12.14-.12.27-.19.27-.17.15-.07.27-.12.14-.05.14,0,.14,0,.15,0,.14,0,.15,0h.6l.15,0,.31.06.32.09.15,0,.32.13.31.15.31.18.31.2.3.23.29.25.29.27.28.28.26.3.26.31.24.33.23.34.21.34.2.36.18.35.16.36.15.36.12.35.08.26a.91.91,0,0,0,.9.69,1.14,1.14,0,0,0,.7-.24,1.25,1.25,0,0,0,.53-1.23l-.08-.34-.13-.46L59,52.86l-.17-.45-.2-.45-.21-.44-.23-.43-.25-.43-.27-.41-.28-.4-.15-.2-.32-.37-.33-.37-.16-.17-.21-.2A1,1,0,0,0,56.3,48l0-.25,0-.32v-.83l0-.77,0-.87,0-1.3L56.59,39l.08-2,.22,0,.35,0,.35,0h.71l.35,0,.35,0,.35-.05.43-.08.35-.09.35-.11.34-.13.35-.16.34-.18.18-.1.17-.11L62,36l.16-.12.17-.14.17-.13.16-.15.15-.15.16-.17.14-.16.14-.18.13-.18.13-.18.11-.19.11-.18.1-.2.09-.19.08-.19.07-.2.07-.2.1-.4,0-.21,0-.21,0-.21,0-.21v-.64Zm-3,2.52.33.24-.39-.11.31.26-.4-.1-.07.1-.07.08-.08.09-.1.08-.14.11.25.32-.37-.23-.16.09-.28.14-.32.13-.23.08-.31.08-.26.06-.27.05-.27,0-.29,0-.29,0h-.88l-.34,0,0-1.22v-2l0-.4,0-.35,0-.29,0-.15,0-.08,0-.13-.05-.1-.08-.15-.09-.11-.07-.07.29,0,.25,0,.09,0,.17-.05.82-.28.21-.06h.67l.14,0,.15,0,.15,0,.15.05.15.05.14.06.15.06.14.08.14.08.14.09.13.09.13.1.12.11.22.22.1.12.1.12.08.12.08.12.07.13.06.13,0,.13,0,.13.05.21,0,.22,0,.28v.49l0,.22,0,.19,0,.17.35.22ZM17.29,20.14l0,.43.15.11.16.12.16.15.25.26.2.24.17.21.16.23.16.23.3.49.28.51.25.5.23.48.21.49.19.47.33.89h0a1.09,1.09,0,0,0,.88.44l.27,0,.13,0,.27-.08.28-.12.25-.12.23-.13.21-.13.63-.43.2-.13.14-.07-.07-.4.2.35.29,0h.43l.2,0,.2,0,.18.06.18.07.18.09.17.11.16.12.16.14.16.15.15.17.14.19.14.2.18.31.12.23.08.17.1.24.09.25.08.25.07.26.07.25.05.26,0,.26,0,.25,0,.25v.26l-.62,0-2.24-.09-1.12,0-1.12,0H20.42l-1.15,0-1.16.07-.86.07-1.15.11L15,29.85,13.8,30l-1.15.18-.82.15a1.67,1.67,0,0,0-1.17.89,1.3,1.3,0,0,0-.14.65l-.18.1a1.54,1.54,0,0,0-.77,1.16L9.4,34.22l0,.43H9.3a1.35,1.35,0,0,0-.33,0l-.13,0-.25,0-.24,0h-.7l-.22,0-.22,0L7,34.63l-.22-.07-.32-.14-.31-.15-.29-.19-.2-.14-.19-.15-.23-.2-.18-.17-.18-.19L4.7,33l-.35-.43-.16-.21L4,32.17l-.15-.23-.14-.23-.13-.23-.12-.24L3.39,31l-.11-.26-.09-.25-.09-.25L3,30,3,29.73l-.06-.26,0-.25,0-.25,0-.26,0-.25v-.71l0-.23,0-.22,0-.21.05-.21,0-.14.1-.26.07-.16.11-.21L3.33,26l.08-.11.08-.1.08-.09.14-.14.12-.08.2-.14.16-.09.28-.14L4.69,25l.3-.1.17-.05.33-.07.21,0,.3,0h.29l.28,0,.35.08.13,0,.17.06.16.06.16.07.3.16.27.17.25.17.33.27.45.41.17.14.13.09.16.08.19.06.15,0h.13a2.18,2.18,0,0,0,1.67-1A2,2,0,0,0,12,25l0-.18v-1.1l.08-.26.1-.29.08-.22.12-.3.22-.48.12-.24.11-.2.07-.09.11-.16.13-.14.14-.13.16-.13.2-.13.22-.13.25-.11.27-.11.3-.09.31-.08.33-.05.33,0h.51l.33,0,.24,0,.11,0L17,20l0,.43.13-.38v.43Zm27.32,6.44-.14.4.09.08.13.12.13.15.59.66.16.17.13.12.2.18.1.08.12.08.13.08.15.07.14.06.19.05.2,0h.16a1.18,1.18,0,0,0,.27,0l.09,0,.58-.26.37-.28.19-.19.1-.11.13-.17.55-.7.3-.37.25-.3.23-.25.2-.2.19-.2.2-.19.21-.19.15-.13.2-.16.32-.22.21-.13.21-.11.2-.1.21-.08.21-.07.21-.05.22,0h.22l.23,0,.23,0,.25.07.13,0,.2.09.15.08.24.14.15.11.23-.32L55,25l.08.08.35-.21-.26.32.07.1,0,.13,0,.15v.3l0,.25-.09.92,0,.3v.45l0,.24,0,.24.06.25.08.25.09.22,0,.09a.82.82,0,0,0,.12.2l-.1,0-.13,0-.25-.06-.4-.06-.27,0H53.05l-.66,0-.67,0-1,.09-1,.11-.88.11-1.46.19-.79.09-1.07.1-1.07.08L43.4,30l-.95,0,.07-.14.38-.81.24-.47.3-.55.2-.35.13-.2.15-.23.21-.28.16-.2v0l.09-.15,0,0,0,0,.1-.19-.1.41ZM47.54,48.5l-.25.23-.23.23-.16.19-.12.17-.17.24-.17.28-.2.35-.59,1.1-.15-.41-.17-.41-.13-.32L45,49.73l-.16-.31L44.62,49l-.25-.42-.13-.21-.15-.2-.15-.2-.16-.2-.16-.19-.18-.19-.18-.17-.2-.18-.2-.16-.22-.15-.22-.15-.11-.06,1-1.71.28-.47.16-.24L43.8,44l.27-.21.41-.31.22-.15.22-.14.21-.12.2-.12.2-.1.19-.09.18-.08.18-.07.18-.06.17,0,.34-.08.16,0,.16,0h.6l.14,0,.15,0,.14,0,.15.05.28.1.15.07.13.07.14.08.14.09.28.2.14.11.27.24.13.14.27.28.26.31.25.34.25.36.24.38.24.4.22.42.29.56h-.32l-.26,0-.26,0-.27,0-.27,0-.27.08L50,47l-.27.11-.28.12-.28.14-.28.15-.28.17-.27.19-.28.2-.27.22ZM52.33,42l-.15-.2-.16-.2-.17-.19-.16-.18-.18-.17-.18-.17L51,40.59l-.4-.28-.21-.13-.22-.12L49.89,40l-.23-.1-.24-.08-.24-.07-.25-.06-.26,0-.26,0-.26,0H47.6l-.28,0-.28,0-.29,0-.29.07-.3.08-.3.09-.3.11-.31.13-.31.14-.31.16-.31.17-.32.18-.33.2-.32.22-.32.23-.24.17-.33.26-.24.2-.14.12-.2.21-.22.26-.12.15-.19.29-.22.34-.23.36-.27.45-.17-.45-.24-.56L40,42.66l-.14-.28-.14-.27-.15-.27-.16-.26-.17-.25L39,41.09l-.13-.17-.19-.22-.22-.21-.11-.1-.12-.1-.12-.09L37.88,40,37.72,40l-.18-.08-.19-.07-.18-.07-.38-.12-.2,0-.39-.08-.39,0h-1l-.3,0-.29,0-.4.07-.4.09-.19.06-.4.12-.4.15-.39.17-.19.1-.39.2-.38.22-.38.25-.36.27-.36.29-.35.31-.33.33-.16.18-.16.17-.29.37-.14.19-.16.23L28.18,43l-.43-.48-.23-.22-.22-.22-.22-.21-.23-.2-.22-.19-.23-.19-.23-.17L25.94,41l-.24-.16-.23-.14-.24-.14L25,40.41l-.24-.13-.24-.11-.24-.1L24,40l-.25-.09-.25-.08-.24-.06L23,39.69l-.25,0-.25,0-.25,0h-.77l-.25,0-.26,0-.26,0-.26.06-.26.06-.26.08L19.7,40l-.27.11-.26.12-.26.13-.25.14-.25.16-.26.16-.48.36-.24.19-.23.2-.23.21-.22.22-.21.22-.21.23-.2.24-.19.24-.38.5-.17.26-.18.26-.16.27-.17.28-.3.57-.29.59-.12.25-.24.05-.28.08-.28.09-.28.1-.27.11-.28.12-.34.16.18-1.9.08-1.92,0-1.89,0-3.74-.05-1.9-.2-1.86L12,32.75l.36,0,1-.06,1,0,1,0h1l1.89,0h3.28l1.09,0,1.11,0,2.21.08,6.14.26,1.69.07,1.12,0,1.12,0h3.37l1.13,0,1.4,0L43.24,33,44.37,33l1.13-.1,1.12-.13,2.62-.35.93-.11,1-.1.62-.05.6,0h1.27l.17,0,0,.5,0,.9,0,.81v5.29l0,3.45,0,1.76-.13-.31L53.54,44l-.24-.47L53,43.09l-.27-.44-.29-.43Zm-16.6,5.53-.14.11-.15.13-.13.12-.21.21-.25.31-.15.2-.38.54-.35.54-.32.5-.26.43-.08-.28-.15-.46L33,49.45l-.09-.23-.22-.44-.12-.21-.13-.22-.13-.21-.15-.21-.15-.2-.17-.19-.18-.19-.18-.18-.2-.18-.21-.17-.22-.15-.28-.18,0,0h-.05l-.12-.07,0-.37v-.45l.05-.27.06-.2.07-.2.08-.18.1-.18.15-.24.16-.23.13-.14.2-.21.14-.13.16-.13.18-.12.27-.17.19-.11.21-.11.33-.13.34-.12.23-.06.24,0,.3,0h.66l.24,0,.23,0,.23.06.23.07.22.08.25.13.11.09.26-.3-.18.38.19.23.12.17.12.18.12.2.12.21.24.46.23.48.22.51.35.87-.32.13-.38.17-.37.19-.39.22-.39.23Zm-12.84.68-.31.43-.14.21-.17.28-.21-.28-.16-.21-.28-.33-.23-.25-.16-.16L21,47.7l-.24-.21-.24-.19-.25-.19L20,46.94l-.26-.16-.26-.15-.26-.14L19,46.36l-.27-.12-.27-.1-.27-.1L17.88,46l-.28-.07-.27-.06-.28,0-.23,0,.25-.4.15-.21.28-.38.28-.34.13-.15.27-.28.25-.24.25-.21.23-.17.23-.14.23-.12.22-.1.39-.13.12,0,.26-.06.27,0h.57l.3,0,.16,0,.15,0,.33.1.33.12.35.15.35.19.36.22.18.12.37.27.18.15.38.32.37.36.38.39.39.44.15.17-.31.13-.28.12-.27.15-.26.16-.26.17-.25.19-.24.19-.22.2-.21.21-.21.21-.19.21-.18.22Z"/></svg>