<svg xmlns="http://www.w3.org/2000/svg" width="64" height="64" viewBox="0 0 64 64" fill="#1FA28F"><path d="M17.15,29.37v-.23l0-1V26.18l0-.51,0-.23v-.52l.05-2.31v-1l0-.27v-.14l0-.21,0-.13,0-.1L17,20.64l-.06-.09-.12-.14-.16-.14-.16-.09-.15-.07-.15-.05-.12,0-.12,0-.21,0h-.47l-.38,0-.8.11h-.43l-.28,0-.3,0-.59.08-.3.05-.3.05-.62.14-.31.08-.32.09-.31.1-.31.11L9.68,21l-.31.13-.32.14-.31.15-.31.16-.31.17L7.81,22l-.31.2-.3.22-.3.23-.3.25-.27.25-.2.2-.28.3-.25.31-.24.32-.23.34-.2.35-.12.23-.09.21-.1.25-.07.21-.17.59-.12.32L4.17,27l-.08.3,0,.28,0,.26,0,.25v.74l0,.24,0,.24,0,.23.06.23.05.22.07.23.06.15a1,1,0,0,0,.15.59.88.88,0,0,0,.61.4l.65.16,1.34.08,1.38,0,1.34-.05,1.36,0,1.4-.05,2.16-.18.66-.1a.86.86,0,0,0,.47.14H16l.11,0a1.22,1.22,0,0,0,.72-.48,1.48,1.48,0,0,0,.33-.38,1,1,0,0,0,.05-1Zm-10.49-1,0-.37,0-.18,0-.17,0-.16,0-.15L7,26.94l.08-.19.08-.23.2-.67,0-.12.05-.11.07-.12.07-.11.08-.1.09-.11.09-.11.21-.2.13-.11.15-.11.15-.11.17-.11.18-.11.19-.11.2-.1L9.47,24l.22-.09.22-.1.23-.09.24-.08.23-.08.48-.13.49-.11.23-.05.47-.07.24,0,.44,0h.47l.16,0,.77-.12.07,2,0,.79,0,.27,0,.23,0,.21.16,1.09.15,1.11-1.58-.14-1.34,0H9.23l-1.42.06-1.18.16V28.6Z"/><path d="M32.74,20.31l-.05-.19-.1-.21-.14-.19-.26-.2-.19-.1-.15,0-.11,0h-.37l-.46,0-2,.23-.23,0-.48,0-1.47.09-2,.15-1,.06-.6,0h-.66l-.35-.05-.23,0h-.2l0,0-.17-.13-.5-.18-.86.29-.49.48-.17.3-.07.18,0,.13,0,.15,0,.16v.18l0,.22-.07.26-.05.22,0,.15-.08,1.28-.07,1.28,0,1.58,0,1.16v2l0,.27,0,.14.05.17.05.13,0,.1.11.16.13.13.16.12.07.05.12.05.07,0,.18,0,.17,0h.63l.6,0,.58,0,.68,0,1.5-.12,1,0,2.09,0H29.6l.07,0,.22.08.29.05h.24l.11,0h0l.15,0,.27-.09.36-.2.32-.25.26-.26.18-.24.11-.19.08-.16.06-.13.08-.23.07-.26,0-.19,0-.39,0-.38V27l0-.62,0-.41,0-.38-.07-.67,0-.28-.07-.34v-.14l0-.29,0-.43.06-.53.06-.53.07-.53.13-.78,0-.19v-.45Zm-3.42,5,0,.22,0,.13,0,.17,0,.25,0,.62,0,.35,0,.47v.26H27.66l-1.93,0-.78,0L22.86,28l-.59,0V26.7l0-1.18-.06-1.59L22,22.21l.45,0,.8,0h2.91l1.4,0h1l1.08-.1-.15.92-.08.59-.06.51,0,.4,0,.24v.5Z"/><path d="M46.91,21.3l0-.11-.05-.13-.13-.21-.18-.17-.21-.12-.09,0L46,20.46l-.26,0-.26,0h-.6l-.53,0-.26,0-.38,0-1.48.19-.63,0-1.5.12-.87.06-.87.06-2.52.11a1.19,1.19,0,0,0-.46-.1,1.49,1.49,0,0,0-.66.18,1.47,1.47,0,0,0-.79,1.11L33.77,24l0,.35,0,.34,0,.26-.28,1.44-.09.66-.09.78-.08.67-.06.67,0,.36v.42l0,.1.06.21.12.21a.81.81,0,0,0,.21.21l.11.07h0l.15.08.16.06.18,0,.21,0h.38l.16,0,.33-.06.39-.09.16,0H37l.67,0,.63.05h0l1,.08,1.21.12h.8l.33,0,.81-.07h2.09l.33,0,.21,0,.26-.09.19-.07a2.53,2.53,0,0,0,1-.91l.13-.26.06-.21,0-.12,0-.24v-.38l0-.42-.16-2.24,0-.45V24.9l.13-1,.11-1,0-.38,0-.41v-.73Zm-5,6.83h-.24L40.2,28l-.72-.06-.73-.06-.74,0H36.64l-.38,0,.22-2.07.06-1.28v-.73l0-.36,0-.18,1.38.06.85,0,.85,0h1.08l.43,0,.65,0,.3,0,1.17-.1.33,0,.38,0,0,.36L43.8,24l-.2,1.35,0,.2v1l0,.79,0,.61h-.43l-.83.07-.23,0Z"/><path d="M52.91,19.71l.14.07.54.25.93.08,1.1,0L57.75,20,58.84,20,60,19.83l1.17-.21.51-.11a1.41,1.41,0,0,0,1-.67,1,1,0,0,0,0-1.05.86.86,0,0,0-.64-.45l-.46-.12-1-.2L59.54,17H55.38l-.93.08-.68.19-.2.06a1.65,1.65,0,0,0-1.15.78,1.16,1.16,0,0,0-.08,1.17A1,1,0,0,0,52.91,19.71Z"/><path d="M54.62,28.83l.4,0,1.09,0h.49l.75,0,.77,0,.54,0h.54l.58,0,.43,0,.3,0,.32,0,.32-.07.32-.08.3-.09.31-.11.37-.14a1.38,1.38,0,0,0,.87-.75,1,1,0,0,0,0-1,.91.91,0,0,0-.78-.43l-.44,0-.44-.06-.25,0-1.75-.15-2-.17-.52,0-.54,0h-.43l-.32,0-.39.05-.37.12-.33.12-.33.13,0,0a1.72,1.72,0,0,0-1.07.86,1.08,1.08,0,0,0,0,1.11,1,1,0,0,0,.7.46Z"/><path d="M64.28,38.38a.89.89,0,0,0-.62-.45l-1.13-.33L62,37.5l-.75-.13-1-.14-1.8-.2L57.92,37l-.55,0h-.62L56,37l-.54.16-.34.12,0,0a1.68,1.68,0,0,0-1.11.83,1.14,1.14,0,0,0,0,1.14,1,1,0,0,0,.65.46l.6.25.64.09,1,0,.5,0,.75.05,1,.1,1.1.06h.83l.66,0,.62-.09.61-.1.22,0a1.37,1.37,0,0,0,1-.66A1,1,0,0,0,64.28,38.38Z"/><path d="M53.53,34.56l0-.77-.05-.62-.09-1.06-.1-.86-.06-.54-.1-.72L53,29.22V27.85l0-.23,0-.21-.33-1.62-.12-.69-.08-.53v-1l0-.26,0-.21,0-.14-.05-.23L52,21.93l-.06-.22,0-.17,0-.2,0-.18v-.62l0-.34-.06-.32-.09-.31-.1-.3L51.41,19l-.14-.27-.17-.25-.17-.23L50.74,18l-.2-.2-.28-.23L50,17.45l-.22-.15-.24-.14L49.35,17l-.24-.12-.25-.1-.24-.1-.25-.09-.25-.08-.5-.14-.37-.09-.49-.11-.47-.09L45.48,16l-.21,0-.21,0h-.5l-1,0h-.46l-.55-.07-.46,0-.34,0h-.87l-1.21,0-3,0H34.41l-.86,0-1.15,0-.58,0-.58,0-.57,0-1.26.12-.77.06-.76,0H26.71l-4.25-.05-1.34,0H18.35l-1.41,0-1.4.05-.69,0-1.19.08-1,.08-1,.11-.94.13-.9.15L9.27,17l-.56.14-.54.15-.53.17-.25.1-.25.09L7,17.71l-.18.09-.19.11L6.4,18,6,18.24l-.19.14-.27.2-.33.27-.32.29-.31.29-.3.31L4,20.06l-.29.33-.27.34-.26.34L3,21.42l-.25.35-.24.36-.23.37L2,22.86l-.21.37-.21.37-.2.37-.18.37L1,24.71l-.17.37-.16.36-.14.36-.13.35-.1.26-.11.35-.14.51L0,27.6l-.07.32-.09.61-.1.74L-.34,30l0,.39,0,.4v1.59l0,.39,0,.41.09.54.08.38,0,.5v.23l0,.19,0,.13.11.54.1.55.05.35.11,1L.3,38l.06.37.1.47.11.4.13.4.08.21L.86,40l.2.43.12.22.25.45.21.33.23.4L2,42l.11.15.09.1.1.11.12.09.16.11.2.1.26.09.72.23.27.1,0,.19.08.26.09.25.11.24.11.24.26.44.15.22.15.2.16.2.17.19.18.17.18.18.19.17.2.16.2.15.2.14.22.14.21.13.22.13.23.12.22.11.24.1.35.15.09,0,.41.28.16.09.14.08.14.06.16.06.17,0,.24.05.32,0h.77l.4,0,.29,0,.39-.06.39-.08.39-.09.38-.11.29-.1.39-.15.37-.16.38-.19.37-.2.36-.23.36-.25.3-.23L16,46.1l.15-.14.15-.15.13-.15.13-.16.16-.21.19-.29.16-.28.13-.27.1-.24,0-.12.64.13,2.27.17,2.28,0h2.29l3.46,0L33,44.2l1.46-.13.05.18.06.18.11.26.08.18.1.16.13.19.14.18.16.15.15.14.16.13.16.11.16.1.15.09.23.11.8.38.3.14.31.12.32.1.33.1.33.08.34.07.33.06.35,0,.34,0h1l.35,0,.36,0,.35-.06.36-.07.35-.1.26-.08.19-.06.35-.14.36-.17.35-.18.36-.21.18-.12.35-.25.34-.28.17-.16.16-.15.16-.17.16-.17.15-.18.28-.36.13-.19L47,44l.11-.19.14-.25a.75.75,0,0,0,.26,0h.29l.71,0,.53,0h.87l.37-.05.31-.06.32-.08.16,0,.17-.07.18-.08.17-.09.17-.11.15-.1.11-.08.14-.13.19-.2.17-.2.13-.2.11-.2.1-.19.07-.19.07-.18.05-.18.08-.35.06-.35,0-.43,0-.32,0-1.09v-.24l0-.19.05-.26,0-.18,0-.24,0-.25,0-.45,0-.53V35.16Zm-2.86,6.63h0l.34.19-.16,0-.18-.15,0,.12-.08,0,.09,0,0,.25-.24-.34-.25.06-.24,0-.21,0h-.23l-.47,0-1,0h-.26l0-.31v-.75l-.06-.48,0-.23-.05-.23-.07-.22-.07-.22-.08-.21-.1-.2-.09-.21-.11-.2L47,37.74l-.26-.36-.14-.17-.15-.16-.15-.17-.16-.15L46,36.58l-.17-.15-.18-.14-.18-.13L45.27,36l-.19-.13-.19-.12-.39-.21-.2-.11-.21-.09-.42-.17-.21-.08-.22-.07L43,35l-.22-.06-.24-.06-.22,0-.23,0-.23,0-.24,0h-1l0,0a1,1,0,0,0-.51-.28l1.4-.08,2.63-.15,2.65-.13,3.3-.14a1.12,1.12,0,0,0,.62-.2l.1.85,0,.43.07.82,0,.51v.9l0,.32,0,.28-.07.34,0,.15,0,.3,0,.45v1.06l0,.44,0,.23,0,.27.37.19ZM48.41,20.4l.11.13.31-.26-.23.36.32-.22-.25.34.34-.2-.29.3.06.16.37-.16-.32.29.38-.12-.35.27.39-.09-.36.24v.08l0,.54,0,.19.05.35.09.41.08.28.16.53.11.41v1l0,.26,0,.14.1.57.07.37.45,2v1.26l0,.22,0,.16.25,1.46-1.91-.08-1.28,0-1.28,0h-.54l-.74,0h-2.6l-1.3,0-.86,0h-2l-2.11-.05-.69,0H33.46l-1,0H30.53l-.64,0h-.37l-2.12-.1h0l-.93,0h-.62l-.63,0H23.93l-.64,0-3.4.2-.33,0-1.7.09-1.14.06-1.13,0-1.14,0-1.13,0-1.13,0H8.79l-1.18,0H5.56l-1.1,0H4.07l-.38,0-.38,0L2.82,32l0-.29,0-.33V30l0-.69.07-.67L3,28,3,27.56l0-.26.06-.22.06-.23.08-.24.11-.33L3.5,26l.12-.28.25-.57.14-.3.31-.59L4.48,24l.17-.29.18-.29L5,23.12l.18-.27.19-.27.18-.25.19-.25.19-.23.19-.21.18-.2.18-.18.17-.17L6.82,21l.26-.21.2-.12.18-.1.08,0,.24-.1.38-.12.41-.12L9,20l.49-.1.79-.14.56-.08.88-.11.62-.06L13,19.5l1.14-.08.67,0,.67,0,1.37-.05,1.37,0h3.36l3.74,0h1.36l.42,0h.43l.42,0,.84-.06,1.28-.12.54-.05.54,0L32.23,19l.55,0,.83,0h5.28l1.24,0h1l.35,0,.38,0,.2,0h.71l1,0h.43l.18,0,.65.11.43.08.44.09.31.07.41.11.38.13.35.14.17.07.16.08.14.09L48,20l.13.1.1.08.26-.31-.16.39ZM34.55,41.09l-.07.31,0,.26-.88-.09-4.45-.21-5.66-.08H21.14l-2.44.12-.57.08,0-.25,0-.25v-.51l0-.24,0-.25,0-.24,0-.24L18,39l-.07-.23-.08-.22-.09-.22-.1-.21-.1-.21-.11-.2-.12-.21-.13-.2L16.87,37l-.15-.18-.15-.17-.16-.18-.16-.16-.18-.17-.17-.16-.19-.15-.18-.14-.4-.28-.2-.13-.21-.12L14.5,35,16,34.92l1.16-.07,1.73-.1,3.72-.24.58,0h1.77l.6,0,3.06.12.62,0h1.9l.63,0,.54,0,.45,0,.91,0h4.72l.49,0,.73,0a1.12,1.12,0,0,0-.22.1l-.17.08-.33.18L38.6,35l-.18.1-.33.23-.33.25-.33.26-.31.29-.31.31-.3.33-.29.34-.26.37-.25.38-.12.2-.12.21-.1.21-.18.4-.07.21-.08.21-.06.2-.29,1ZM14.86,42.82l-.27.84-.08.23-.08.19-.07.07-.15.1-.17.11-.2.11-.21.1-.33.14-.28.1-.24.08-.25.06-.25,0L12,45l-.33,0h-.47l-.31,0-.21.35.1-.41-.3-.21-.15-.1-.19-.11.21,0,.25,0h.52l.26,0,.27-.05.27-.06.28-.08.28-.1.3-.13.28-.16.24-.14.16-.11.16-.12.15-.12.15-.13.15-.14.14-.15.14-.15.14-.16.24-.34.11-.17.1-.18.1-.18.1-.23,0,.16,0,.14-.06.26Zm-7.5-.49-.18-.42,0-.15,0-.14,0-.15,0-.16v-.48l0-.17,0-.19.06-.34.1-.48.12-.44.14-.39.15-.35.11-.21.23-.4.17-.26.2-.25.27-.26.21-.18L9,36.75l.28,0,.35-.05h.86l.34.05.33.07.17,0,.27.09-.16,0-.18,0-.18.06-.18.07-.17.09-.18.09,0,0-.23.07-.26.12-.23.13-.22.15L9.37,38l-.2.2L9,38.4l-.16.21-.15.21L8.54,39l-.11.2-.09.2-.09.2-.09.23-.06.22,0,.19,0,.19,0,.25L8,41v.62L8,42l0,.27.06.45,0,.15,0,.14.05.14.06.13.07.13.07.11.08.12.1.12-.2-.15-.26-.23L8,43.22,7.8,43l-.2-.26-.09-.13-.08-.13Zm-3.61-3-.16-.36-.13-.34-.1-.32L3.28,38l-.06-.3-.05-.37,0-.31,0-.33-.06-1,0-.42L3,34.6l.41,0,.28,0,1,.14,1.12.14.89.1.63,0-.2.15-.2.16-.19.17-.19.17-.36.36L6,36.25l-.17.19-.16.2-.16.2-.16.23-.13.2-.12.21-.23.43-.1.21-.18.42-.09.21-.15.43-.12.43-.1.39-.05-.11ZM11.5,39A1.5,1.5,0,1,1,10,40.5,1.5,1.5,0,0,1,11.5,39ZM41,41.68l-.09-.06-.07-.07-.07-.07,0-.07,0,0,0-.08,0,0,0-.07,0-.1v-.34l0-.1,0-.1.07-.24,0-.09v-.07l0,0,0-.05H41l.26,0,.13,0,.13,0,.13,0,.12,0,.12.05.12.07.09.06.05,0,.1.08.05,0,.08.08.07.1.06.08,0,.09,0,.05,0,.09,0,.1v.33l0,.07v.06l0,.1,0,.07.36.23-.28-.11-.08-.09,0,.08-.07,0v0h0l-.11,0-.1,0-.1,0-.24,0h-.25l-.12,0-.12,0-.12,0-.14-.06,0,0Zm-3.66,1.45.3-.28-.07-.18,0-.17,0-.18,0-.26v-.34l0-.21,0-.22,0-.23.1-.47L38,39.42l.07-.22.07-.21.18-.4.13-.26.15-.24.12-.17.12-.16L39,37.6l.19-.2.21,0,.28,0H40l.3,0,.3,0,.31.06.3.07.32.1.16,0,.13.05h-.07l-.28,0-.27.06-.1,0h0a1.29,1.29,0,0,0-.56.14l-.16.07-.15.07-.14.08-.14.09-.15.1-.27.21-.27.25L39,39l-.24.27-.22.29-.21.32-.18.35-.12.32-.1.32-.07.32,0,.32v.53l0,.17,0,.17,0,.14,0,.15,0,.14.06.14.06.14.07.12.07.11-.14-.07-.16-.1-.14-.1-.25.31.16-.4Zm7.1-.1.35.21-.41-.1-.12.15-.08.09-.09.08-.1.09-.11.08-.13.08-.15.09-.24.12-.06,0,.16-.11.32-.26.16-.15.16-.16.15-.16.14-.17.13-.18.12-.19.09-.14,0,0-.09.22-.1.2.36.18Z"/></svg>