<svg xmlns="http://www.w3.org/2000/svg" width="64" height="64" viewBox="0 0 64 64" fill="#1FA28F"><path d="M19.58,11.27l.17-.39.15-.4.13-.4.12-.4.09-.4.09-.42.05-.37,0-.38V7.37l0-.35-.05-.36-.07-.34L20.17,6l-.11-.34L20,5.31,19.81,5l-.14-.31-.16-.3-.18-.3-.18-.29L19,3.51l-.21-.27L18.52,3l-.23-.26-.24-.25-.26-.24L17.53,2l-.26-.22L17,1.56l-.28-.2-.3-.19L16.11,1,15.8.81,15.49.65,15.17.5,14.85.36,14.52.24,14.18.12,13.84,0,13.5-.07l-.35-.07L12.8-.2l-.36,0-.36,0-.36,0h-.37L11-.28l-.37,0-.37.06-.37.07L9.51,0l-.37.1L8.78.2,8.41.35,8.05.52,7.78.66l-.19.1L7.24,1l-.35.24-.35.27-.33.28-.32.31-.31.32-.3.35L5,3.11l-.31.45-.23.28-.22.29-.2.3-.2.3L3.66,5l-.18.31-.16.32L3.17,6,3,6.3l-.13.32L2.79,7l-.11.33-.09.34L2.51,8l-.06.33,0,.33,0,.33,0,.34v1l0,.34,0,.34,0,.34,0,.33.12.53.11.47.14.44.14.43.17.4.17.39.19.37.21.35.22.34.23.31.24.3.26.28.27.26.27.24.29.22.3.21.3.18.32.17.25.11.32.13.33.12.34.09.34.08.34.07.35,0,.35,0h.72l.35,0,.37,0,.36-.05.36-.06.36-.09.36-.09.36-.11.36-.12.36-.14.36-.15.36-.17.35-.18.35-.19.35-.21.35-.22.34-.24.33-.25.33-.26.33-.27.31-.29.31-.3.3-.31.29-.32.28-.33.27-.34.25-.35.25-.36L19,12.4l.22-.37.19-.38Zm-2.51-1.16-.08.26-.1.25-.1.25-.12.24-.12.23-.12.23-.14.21-.13.21-.15.2-.15.2-.16.19-.16.18-.17.18-.17.17-.18.16-.19.16-.2.16-.2.15-.2.14L14,14l-.22.12-.22.13-.22.11-.23.11-.23.1-.24.09-.24.08-.24.07-.24.07-.24,0-.25,0-.24,0-.24,0h-.72L10,15l-.23,0-.23,0-.23-.05-.22-.07-.22-.07-.22-.09L8.5,14.6l-.21-.11-.2-.13-.19-.13L7.61,14l-.19-.18-.17-.18-.18-.21-.16-.21L6.75,13l-.16-.25-.14-.27-.14-.29-.13-.3-.12-.33L6,11.2l-.1-.36-.11-.49L5.67,10l0-.27,0-.26,0-.26,0-.25V8.19L5.6,8l0-.23.07-.47,0-.21,0-.21,0-.2.05-.2.06-.19L6,6.05l.08-.19.08-.19.08-.18.2-.36L6.54,5l.25-.36.13-.18.15-.18.15-.18.17-.18.27-.28A1.65,1.65,0,0,0,8.09,3l.16-.09.25-.11.21-.09.22-.08.23-.06.23-.05.23,0,.24,0,.24,0h.76l.26,0,.26,0,.26.05.25,0,.26.07.26.08.26.09.25.1.25.11.25.11.25.13.24.14.24.14.23.16.23.16.22.16.21.18.2.18.2.19.19.2.19.2.17.2.17.21.15.22.15.22.13.22.13.22.11.23.1.23L17,7l.08.23.07.23.06.24,0,.23,0,.23,0,.23v.46l0,.22,0,.24-.05.24-.07.28Z"/><path d="M22.54,19.15l1.11.89.42.22,1.09.5.71.34.69.36.68.39.67.4.66.43,1,.68,2,1.42.36.23,1.53,1a.92.92,0,0,0,.55.19,1.24,1.24,0,0,0,.86-.39,1.27,1.27,0,0,0,.38-.86.86.86,0,0,0-.17-.53l-.34-.52-.51-.7L34,22.8l-.3-.35-.29-.31-.31-.31-.3-.28-.32-.3L32.12,21l-.33-.27-.34-.27-.34-.25-.34-.25-.35-.24-.7-.46L29,18.8l-.72-.43-.74-.4-.38-.2-.39-.19-.4-.18L26,17.22l-.5-.17L24.92,17l-.49-.06-.49,0h-.15l-.2,0a1.55,1.55,0,0,0-1.15.64,1.25,1.25,0,0,0-.29,1.12A.9.9,0,0,0,22.54,19.15Z"/><path d="M23.86,11.55l1,.72.56.44.3.24.33.24.32.21.92.57.45.29.6.4.6.41.58.42.58.43.57.43.57.45.56.46.55.47.55.47.54.49.55.49L38,23l1.13,1,1.15,1,1.16.94.56.44a.85.85,0,0,0,.59.22,1.27,1.27,0,0,0,.86-.38,1.07,1.07,0,0,0,.18-1.44L42.29,23l-.95-1.19-1-1.13-1-1.11-.78-.81L38,18.21l-.54-.54L37,17.15l-.54-.52-.56-.51-.55-.5-.56-.5-.57-.5-.57-.48L33,13.66l-.59-.47-.6-.46-.61-.46-.61-.44L30,11.4l-.8-.51-.33-.2-.36-.21-.38-.2-.4-.17L27,9.84l-.78-.25-.39-.12-.4-.11-.14,0a1,1,0,0,0-.34-.06,1.54,1.54,0,0,0-1.12.6,1.3,1.3,0,0,0-.33,1.1A.91.91,0,0,0,23.86,11.55Z"/><path d="M61.63,32.69l0-.51-.05-.5-.07-.5-.08-.49-.1-.49-.12-.48L61,29.24l-.14-.47-.16-.47-.18-.46-.18-.46-.2-.45L60,26.48,59.74,26l-.24-.43-.25-.42L59,24.77l-.27-.42-.29-.4-.29-.4-.31-.39-.31-.38-.32-.37L56.86,22l-.34-.36-.35-.35L55.81,21l-.37-.33-.38-.32L54.68,20l-.4-.3-.4-.29-.4-.29-.42-.27-.42-.26-.42-.26-.43-.24-.44-.23-.45-.22-.44-.2-.46-.2-.46-.18-.46-.17-.5-.16-.49-.13-.49-.11-.49-.09-.5-.09-.49-.06-.5-.06-.5,0-.5,0h-1l-.5,0-.5,0-.5.06-.5.07-.18,0a1.71,1.71,0,0,0-1.21.89,1.09,1.09,0,0,0,0,1.09,1,1,0,0,0,.83.45h1.44l.39,0,.4.05.4.06.4.06.4.09.4.09.4.11.39.11.4.13.83.31.41.14.4.16.4.16.4.18.4.19.39.19.4.21.38.21.38.23.38.23.37.25.37.25.36.26.35.27.35.28.34.29.33.3.33.3.32.31.31.32.3.32.29.33.28.34.28.35.26.35.26.36.24.36.24.37.22.37.21.38.2.38.19.39.18.39.17.4.15.4.14.4.13.41.11.4.1.42.09.41.07.42.06.42,0,.42,0,.42v1.27l0,.43,0,.43,0,.38-.05.34-.13.68-.08.34-.16.67-.18.67-.21.66-.23.66L57.1,41l-.26.66-.28.64-.36.8-.31.64-.33.63-.33.63-.34.62-.36.62-.32.55-.11.16-.2.29-.22.27-.22.25-.24.25L53,48.2l-.4.34-.29.22-.15.11-.38.26-.33.21-.34.2-.36.21-.37.19-.37.2-.39.19-1,.47-1.66.77-.64.3-.43.2-.42.22-.43.22-.42.24-.42.24-.42.26-.41.26-.2.15-.46-.43-.58-.54-.6-.54-.62-.51-.62-.5-.63-.49-1-.72L37.41,49l-1.3-.92-2.58-1.81-1-.69-1.26-.93-1.25-.94-.62-.48-.61-.49L27,41.24l-.67-.52-.69-.45L25,39.84l-1.06-.71,0-.28v-1l0-.79,0-.52,0-.25.07-.62.08-.52.09-.5.11-.51.12-.51.12-.51.14-.51.15-.5.15-.51.17-.5.18-.5.19-.5.19-.5.21-.5.42-1L27,26.65l.22-.5.2-.51.27-.88.16-.57a1.05,1.05,0,0,0,0-1,.94.94,0,0,0-.81-.43h-.18a1.69,1.69,0,0,0-1.13.86l-.43.66-.63,1-.28.51-.25.51-.22.5-.45,1-.22.52-.21.53-.21.54-.21.55-.19.54-.19.56-.18.56-.18.57-.16.57-.15.58-.13.58-.11.57-.09.58-.07.58,0,.57,0,.44v.85l0,.29,0,.29,0,.29,0,.27.05.27.06.27.07.26.08.27.08.26.09.26.1.25.14.32a.87.87,0,0,0,.29.39l.15.2.49.66.51.64.56.67.63.59.62.53.26.21a1.62,1.62,0,0,0-.88.52,1.39,1.39,0,0,0-.39,1.08.88.88,0,0,0,.28.55l.31.36.72.8.85.68.14.1-.27.21-.31.26-.51.46-.18.17-.57.56-.6.64-.43.48-.21.26-.4.52-.3.4-.38.55-.38.57-.28.44-.37.6-.34.6-.32.61-.3.61-.14.31-.13.31-.13.31-.11.31-.11.3-.09.31-.09.31-.07.31-.06.3-.05.3,0,.31,0,.3v.3l0,.29,0,.22.05.29,0,.14.08.28.05.14.06.14.13.26.16.25.08.12.1.11.1.12.1.1.11.11.12.09.12.1.26.17.28.15.29.13.15.05.32.11.34.08.24,0,.3,0,.3,0,.3,0H24l.29,0,.3,0,.29,0,.29,0,.29-.08.29-.08.29-.09.28-.11.28-.12.28-.12.28-.14.26-.15.27-.16.27-.16.25-.18.26-.18.25-.19.24-.2.24-.2.23-.2.23-.21.22-.22.43-.44.41-.45.39-.46.27-.35.35-.46.34-.48.33-.47.31-.48.29-.48.27-.47.26-.47.49-.9.57-1.13,1,.56.94.46.94.45.44.2a.91.91,0,0,0,.43.1,1.27,1.27,0,0,0,.91-.44,1.15,1.15,0,0,0,.33-.91.88.88,0,0,0-.15-.4l1.61,1,1.65,1a.87.87,0,0,0,.52.16,1.26,1.26,0,0,0,.89-.42,1.21,1.21,0,0,0,.35-.88l.16-.09.35-.19.36-.19.37-.17.38-.17.77-.33.59-.25L49,53.15l.63-.25.42-.18.43-.19.43-.2.44-.21.44-.22.43-.24.43-.26.32-.2.43-.29.43-.32.42-.34.42-.37.21-.19.2-.2.4-.42.38-.44.19-.24.18-.23.17-.25.17-.24.16-.25L57,47l.4-.67.39-.68.38-.7.37-.7.35-.7.26-.54.33-.73.31-.73.3-.74.27-.76.13-.38.24-.76L61,38.1l.1-.39.09-.39.09-.39.08-.39.07-.39.06-.39.07-.48.05-.53,0-.52,0-.52V33.2ZM22.76,61l.12-.28-.23.2.11-.3-.07-.07-.06-.08-.09-.16-.06-.15,0-.11,0-.21v-.45l0-.17,0-.18,0-.19,0-.2.06-.2.14-.43.09-.22.19-.45.22-.47.25-.48.27-.49.29-.49.38-.59.32-.48.33-.47.59-.81.59-.84.28-.38.26-.34.24-.31.22-.27.38-.43a1.62,1.62,0,0,0,.49-.59l.63.43,1.22.85,1.63,1.16,1.21.81-.67,1.06-.54.84-.56.85-.29.42-.58.82-.29.39-.29.38-.3.37-.38.44-.3.32-.29.3-.3.27-.28.26-.29.22-.29.21-.29.18-.29.17-.3.14L26,61l-.16,0-.33.08-.16,0-.18,0-.17,0h-.75l-.2,0-.33,0L23.51,61,23.25,61l-.14-.07-.21.23.09-.29Z"/></svg>