<svg xmlns="http://www.w3.org/2000/svg" width="64" height="64" viewBox="0 0 64 64" fill="#1FA28F"><path d="M39.39,47.31l-1.24-.07-1.65-.07-.83,0h-.84l-1.26,0-1.68,0-1.69.06-1.69.07-2.83.14v0l.21-.82.26-.93.29-.94.46-1.43.33-1,.36-.95.37-1,.4-1,.41-.94.44-.94.23-.46.23-.46.48-.92.5-.89.26-.44.26-.44.27-.43.27-.42.28-.42.28-.41.29-.41.29-.39.3-.39.31-.39.3-.37.31-.37.32-.36.32-.34L35,29l.32-.34.34-.32L36,28l.43-.38L37,27.2l.53-.41.54-.39.56-.37,1-.6.4-.23.4-.22.41-.21.64-.3.44-.18.53-.21a1.39,1.39,0,0,0,.85-.81.82.82,0,0,0-.08-.79.77.77,0,0,0-.65-.33l-.21,0-.61.15-.49.13-.48.16-.48.17-.47.19-.48.2-.47.23-.26.13-.23.13-.46.28-.46.29-.46.31-.44.32-.44.34-.43.34-.42.36-.52.46-.4.37-.4.39-.39.4-.39.41-.37.41-.37.42-.36.43-.35.43-.35.45-.34.44-.33.45-.32.46-.32.47-.31.46-.3.48-.3.47-.29.48-.28.49-.27.48-.27.5-.26.49-.25.49-.25.5-.23.5-.23.5-.23.5-.21.51-.21.5-.2.5-.37,1-.18.5-.33,1-.16.49-.15.5-.14.5-.24-.7-.21-.59-.22-.57-.23-.56-.24-.56-.25-.55L23,39.66l-.27-.55-.27-.54L22.15,38l-.29-.53L21.57,37l-.3-.53L21,35.94l-.32-.51-.32-.51-.33-.5-.34-.5-.35-.48L19,33l-.36-.47L18.22,32l-.37-.47-.39-.45-.38-.45-.4-.45-.4-.44-.41-.43-.42-.43L15,28.48l-.43-.42-.43-.4-.45-.4-.45-.39-.45-.38-.47-.38-.47-.36-.47-.36L10.92,25l-.49-.35-.5-.33L9.43,24l-.51-.31-.52-.31-.53-.29-.54-.29-.67-.34-.56-.27L5.51,22l-.3-.11-.59-.2-.6-.2-.92-.27-.93-.24-.63-.15-.42-.08a1,1,0,0,0-.24,0,1.26,1.26,0,0,0-.94.52,1,1,0,0,0-.2.92.74.74,0,0,0,.46.48l.68.27.53.22.53.24.52.24.77.37.8.42.52.24.77.39.89.47.5.28L7.2,26l.49.29.48.31.48.31.47.32.46.33.46.34.45.34.44.35.44.36.43.37.42.37.42.39.42.38.4.4.4.4.39.41.39.42.38.42.37.43.37.44.36.44.35.45.35.45.34.46.34.47.33.47.32.47.32.48.62,1,.3.5.58,1,.28.5.28.51.4.77-.19-.16-.34-.26-.35-.24-.37-.23-.19-.11-.39-.2-.2-.1-.22-.09-.25-.09-.29-.06-.48-.06-.49,0h-.65a1.28,1.28,0,0,0-1,.57,1,1,0,0,0-.15.93.71.71,0,0,0,.43.42l.36.19.3.16.33.21.21.12.33.15.32.16.32.17.3.18.3.2.29.21.28.21.28.24.4.37.33.32.25.27.25.29.25.29.25.31.49.61,1,1.32-.91,0-1.26,0-1.68,0H16.27l-.89,0-.88.06-2.21.12a1.27,1.27,0,0,0-1,.62,1,1,0,0,0-.09.94.79.79,0,0,0,.61.41l.39.06L13,50l.81.1.86.1.86,0H18.1l1.72-.05,1.28,0,1.71-.07,2-.1a.75.75,0,0,0,.26,0,.87.87,0,0,0,.35-.07l2.49-.14,3.41-.21,3-.19,2.6-.19,2.14-.15a1.08,1.08,0,0,0,.87-.54.84.84,0,0,0,0-.84A.72.72,0,0,0,39.39,47.31Z"/><path d="M48.41,30.38l-.78.08-.47.06-.46.07-.48.08-.48.09-.47.11-.48.12-.47.13-.48.14-.48.15-.47.16-.48.17-.47.18-.47.19-.47.2-.47.2-.46.21-.46.22-.46.23-.46.24-.45.24-.45.26-.45.26-.44.27-.44.29L36,35l-.44.32-.46.35-.4.37-.39.39-.37.38-.14.15a1.06,1.06,0,0,0-.33,1.26.77.77,0,0,0,.69.39,1.14,1.14,0,0,0,.69-.26l.55-.37.37-.24.41-.25.74-.51.37-.25.37-.25.38-.24.39-.23.39-.23.4-.22.4-.21.4-.21.42-.2.41-.2.42-.18.43-.18.87-.35.88-.34.9-.32.45-.15,2.35-.77,1.15-.36a1.1,1.1,0,0,0,.76-.62.83.83,0,0,0,0-.78A.75.75,0,0,0,48.41,30.38Z"/><path d="M64.27,20.5l0-.32,0-.32-.08-.32,0-.15,0-.16L64,19.08l-.07-.15-.08-.15-.07-.12-.16-.24-.21-.29-.22-.28-.23-.28-.23-.26-.24-.26-.24-.24L62,16.57l-.25-.22-.26-.22-.26-.21-.27-.2-.27-.19-.27-.17-.27-.17L59.83,15l-.28-.15-.28-.14L59,14.6l-.28-.12-.29-.11-.29-.11-.28-.09-.29-.09L57,13.94l-.29-.06-.29-.05-.29,0-.29,0-.28,0h-.84l-.28,0-.28,0-.27,0-.27.05-.26.06-.26.07-.26.08-.26.09-.5.22-.24.13-.24.14-.23.15-.22.17-.17.13-.11.1-.21.19-.2.21-.19.22-.17.23-.15.24-.14.24-.07.14-.14.19-.21.31-.2.32-.19.33-.86,1.75-.15.33-.28.67-.14.34-.12.35-.12.36-.14.47-.1.38-.08.39-.07.41-.06.41,0,.45,0,.44v.65l0,.41,0,.2.08.4,0,.19.11.38.13.36.15.35.16.33.09.16.19.32.21.29.23.29.24.27.25.25.13.12.27.23.29.22.29.2.31.19.31.18.33.16.33.14.34.13.34.11.36.11.36.08.36.08.74.1.47,0h.76l.38,0,.39,0,.38-.05.38-.06.49-.1.38-.1.39-.12.38-.14.38-.15.38-.17.38-.19.38-.2L59.8,30l.36-.25.36-.27.35-.29L61,29l.34-.32.33-.34L62,28l.29-.38.27-.39.26-.4.23-.41.11-.21.21-.44.09-.22.17-.45.15-.46.07-.24.12-.48.1-.49.1-.66,0-.34,0-.59V20.9ZM50.69,18.61v-.15l0-.13.07-.16,0-.1,0-.1.05-.1,0-.09.06-.1,0-.08.11-.17.06-.09.06-.08.07-.08.06-.07.07-.08.07-.08.15-.14.08-.08.08-.07.09-.07.08-.07.1-.08.09-.07.2-.13.15-.11.23-.13.24-.14.11-.06,0,0-.12.2-.11.21-.09.2-.08.21-.06.2,0,.21,0,.19,0,.2v.39l0,.18,0,.19,0,.18.05.18.06.18.06.17.08.17.08.17.09.17.09.17.1.16.11.16.11.15.12.16.12.15.13.15.13.15.19.23.27.29.28.28.28.28.29.28.55.54.26.27.26.26.18.19.12.13.11.12.1.13.1.12.1.12.09.12.08.12.07.11.07.11.06.11,0,.11,0,.1,0,.1,0,.09,0,.1v.52l0,.08,0,.07h0l0,0-.07,0-.09,0-.05,0h-.06l-.12,0-.16,0h-.44l-.16,0-.12,0-.15,0-.08,0-.07,0-.14-.06-.07,0-.07,0-.13-.07-.06-.05-.06,0-.06-.05-.05,0-.06-.05-.05-.05,0-.06,0-.06-.05-.06L55,24.85l-.22-.34-.25-.36L54.36,24l-.14-.18-.14-.19-.15-.18-.15-.18-.16-.18-.16-.18-.17-.18-.17-.17-.18-.16-.18-.16-.2-.15-.2-.14-.24-.14-.22-.1-.23-.09-.23-.08-.18-.05-.12,0-.12,0-.13,0-.12,0h-.66l-.13,0h-.14l-.14,0-.14,0-.07,0,.06-.17.1-.29.11-.29.12-.29.13-.3.13-.31.19-.43a.76.76,0,0,0,.35-.58Zm-1.13,4.61.14,0,.07-.29,0,.33.1-.28,0,.33.12-.27v.33l.09.05.13.08.13.09.32.27.15.11.29.25.29.28.28.3.27.32.26.33.37.5.58.84.14.17.19.2.1.09.21.16.22.15.23.13.24.11.25.09L55,28l.26.05.19,0,.26,0h.53l.25,0,.2,0,.14,0,.28-.07.27-.09.27-.11.28-.13.29-.17.28-.2.15-.12.28-.26.13-.15.12-.15.12-.16.11-.16.1-.17.08-.16.07-.17.07-.16,0-.17,0-.16,0-.16,0-.16v-.48l0-.3,0-.2,0-.19-.06-.19-.07-.17-.07-.18-.09-.16-.09-.16-.1-.16-.21-.31L59,22.32,58.77,22l-.25-.29-.35-.34-.28-.27-.29-.27-1.17-1-.55-.51-.19-.19-.36-.38-.22-.24-.29-.36-.15-.23-.12-.21-.1-.2-.07-.19,0-.18v-.26l0-.17,0-.08,0-.09,0-.1.05-.1.06-.1.1-.16.1-.15.33,0,.45.07.23,0,.46.12.24.07.23.07.24.09.23.1.47.21.24.12.23.12.46.28.23.15.23.16.22.17.22.17.22.18.22.19.21.2.21.21.2.21.2.23.19.23.19.24.19.25.18.26.13.21.26-.15-.2.28.28-.12-.23.26,0,.19,0,.2,0,.34,0,.29v.26l0,.5,0,.25,0,.43-.08.54-.06.33-.09.37-.1.35-.11.34-.12.31-.13.3-.14.28-.15.26-.15.24-.16.23-.16.21-.27.3-.18.18-.29.26-.31.24-.22.15-.23.15-.37.19-.25.12-.4.17-.41.14-.43.11-.35.08-.29.05L56,29l-.3,0h-.9l-.23,0L54.14,29l-.43-.07-.43-.1-.41-.13-.4-.15-.38-.17-.25-.13-.23-.14-.34-.23L51,27.58l-.19-.18-.19-.19L50.4,27l-.16-.2-.15-.22L50,26.37l-.12-.24-.11-.24-.1-.26-.08-.26-.07-.27,0-.29,0-.29,0-.3V23.9l0-.32,0-.26,0-.22,0,.11,0-.3Z"/></svg>