<svg xmlns="http://www.w3.org/2000/svg" width="64" height="64" viewBox="0 0 64 64" fill="#1FA28F"><path d="M58.56,33.63v-.09l0-.15-.05-.21L58.4,33l-.07-.19-.09-.19-.09-.18L58,32.24l-.11-.17-.12-.17-.13-.17-.13-.17-.14-.16-.15-.16L57,30.93l-.34-.3-.36-.28-.37-.28-.4-.27-.4-.26-.42-.24-.43-.23-.44-.22-.57-.26-.45-.18-.34-.13-.23-.08-.45-.14-.45-.13-.46-.1-.45-.09-.45-.06-.22,0h-.88l-.23,0-.22,0-.23,0-.23.05-.23.07-.25.09-.25.11-.25.13-.27.17-.27.2-.26.24-.23.22-.33.34-.31.35-.31.35-.3.35-.58.71-.42.54-.5-.08-1.57-.21L40,31.26l-1.63-.06-2.87,0h-.83l-.83,0-.89,0-.92.11-1,.24-.39.11a1.55,1.55,0,0,0-1.06.78s-.05.1-.07.16a1.52,1.52,0,0,0-.75.64l-.26.36-.22.3-.23.31-.26.31-.27.33-.29.34-.3.35-.67.75-.85,1-.64.72-.77.85-1.23,1.32-.86.91L21,42,19,44.14,16.13,47,14.49,48.7l-.92.95-.9.94L11.38,52l-.83.91-.78.89-.83,1-.35.42-.49.63-.6.8L7.22,57,7,57.37l-.25.37-.23.37-.21.35L6,59l-.17.33-.15.33L5.51,60a.89.89,0,0,0,.07.84.81.81,0,0,0,.69.36.91.91,0,0,0,.23,0l.11,0h0l.62-.06.48,0,.49,0,.63,0h1.59l1.11,0,1.15.05,1.19.08,1.21.1,3.16.29,4.3.33,1.35.1,1.35.08,1,.06,1.35.07,1.35.06,1.33,0H33l.64,0,.65,0,.64,0,.63,0,.63-.05.62-.07.61-.07.46-.06.61-.08.89-.16.59-.12.58-.13.57-.14.56-.16L42.2,61l.54-.19.54-.21.53-.22.52-.24.52-.27.5-.28.38-.23.32-.22.32-.25.23-.18.28-.26.29-.28.26-.28.25-.29.24-.3.22-.3.21-.3.19-.31.18-.31.16-.3.16-.31.15-.31.13-.31.13-.31.12-.31.12-.36.21-.44.56-1.17L51,51.05l.65-1.49.5-1.19.48-1.19.7-1.78,1.62-4.11.81-2,.8-1.91.05-.09.15-.22L57.52,36l.31-.45.27-.42.16-.3.08-.17.08-.18.06-.19.05-.2,0-.24Zm-4.14,2.62-.15.24-.15.26L54,37l-.36.87-.24.59-.58,1.46-.45,1.17-.45,1.18-1.39,3.79,0-.26,0-.34-.07-.33-.07-.32-.08-.33-.09-.32-.1-.32-.11-.32-.12-.31-.13-.32-.13-.31-.15-.3L49.23,42l-.17-.3-.17-.3-.18-.3-.2-.29-.2-.3-.21-.29-.22-.28-.18-.23-.12-.13-.12-.13-.14-.13-.13-.12-.14-.11L46.9,39l-.14-.1-.15-.09-.16-.09-.15-.08L46,38.46l-.34-.12-.16-.05-.34-.08-.34-.07-.35,0-.36,0h-.6l-.38,0-.35,0-.36,0-.35.05-.19,0,.71-.88.56-.73.52-.72,1.47-2.09.36-.49.48-.64.48-.62.49-.58.25-.29.25-.27.27-.28-.1-.28.22.25.2,0h.51l.31,0,.34.05.35.06.37.08.37.1.39.12.48.18.4.15.29.13.58.28.38.2.36.2.35.22.34.23.31.23.29.23.27.24.24.23.21.23.18.23.14.21.11.2.06.13-.18.28-.81,1.13ZM47.53,51.56l-.09.51-.11.51-.13.5-.15.5-.16.48-.18.46-.2.43-.21.41-.22.36-.12.17-.11.16-.11.15-.12.14-.12.12-.12.12-.13.12-.17.15-.14.1-.15.1-.3.17-.37.2-.39.19-.41.18-.43.17-.44.16-.46.15-.48.14-.49.13-.76.17-.26.06-.79.14-.55.09-.69.09-.57.06-.58.06-.59,0-.6,0-.6,0-.62,0-.61,0H31.9l-1.29,0-1.31-.05L28,59.23l-1.66-.09L25,59.05l-4-.29-1.67-.12-.67,0L16,58.52l-1.28,0H12.25l-1.2,0-.58,0-.58,0-1,.08-.47.05.39-.5.27-.33.43-.53L9.83,57,11,55.66l.84-.91.79-.84,1.7-1.76,1.35-1.37,5.66-5.72,1.4-1.43.92-1L25,41.29l1.27-1.37.79-.88.47-.55.37-.43.37-.45.63-.85.29-.41.28-.41.26-.4.25-.39.23-.37.21-.38.22-.43.69.13.86,0,2.44-.07h4.54L40.93,34l1.17-.12-1.19,1.72-.45.68-.56.83-.46.64-.47.62-.25.3-.24.29-.25.29-.39.43a1.64,1.64,0,0,0-.28.37l-.16.12-.41.34-.27.24-.26.24-.25.24-.24.24-.24.24-.22.25-.21.24-.2.25-.2.25-.18.24-.17.25-.16.25-.14.25-.14.25-.13.24-.11.25-.1.24-.1.24-.08.24-.07.24-.06.24-.05.23,0,.23,0,.22,0,.23v.65l0,.21,0,.21,0,.2,0,.2.05.2,0,.19.07.19.07.19.08.18.08.17.09.18.09.17.1.16.11.17.23.31.24.3.27.28.28.26.29.26.31.23.32.22.33.21.34.19.35.18.36.16.36.14.28.1.37.12.38.1.38.08.39.07.38.05.28,0h.78l.39,0,.38,0,.38-.07.39-.09.38-.11.19-.07.19-.08.19-.08.19-.1.18-.1.19-.11.19-.12.19-.13.18-.14.18-.16.18-.16.17-.17.16-.18L45.6,51l.15-.2.13-.2.12-.2.11-.21.1-.21.09-.21.08-.21.07-.22.06-.22.05-.22,0-.22,0-.23,0-.23,0-.23v-.72l0-.24,0-.25-.09-.57-.12-.5-.09-.32-.1-.3-.11-.28L46,44.49l-.14-.26L45.7,44l-.16-.22-.16-.21-.18-.19L45,43.19l-.15-.13-.19-.15-.21-.13-.21-.12-.22-.1-.22-.08-.22-.07-.22-.06-.23,0-.23,0h-.68l-.22,0-.23,0-.22,0-.22.06-.22.07-.21.08-.21.09-.21.1-.21.11-.2.12-.19.12-.2.14-.18.14-.19.16-.17.16-.17.17-.16.17-.15.19-.14.19-.12.2-.12.2-.1.21-.09.21L38,45.5l-.06.22,0,.22,0,.22v.22l0,.23,0,.21L38,47l.07.21.1.2.11.2.13.19.15.18.16.17.13.12.11.09a.83.83,0,0,0,.55.2,1.14,1.14,0,0,0,.8-.38,1.11,1.11,0,0,0,.34-.81.86.86,0,0,0-.27-.57l-.07-.07-.14-.14-.06-.09-.06-.07L40,46.32l0-.17-.3.06h0L40,46l-.3,0h0l.31-.15-.3,0,.33-.1-.28-.08.34,0-.28-.12h0l.35,0-.25-.15.34,0,.11-.13.14-.13.16-.13.18-.12.2-.1.21-.09.23-.07.23,0,.23,0h.45l.11,0,.11,0,.11,0,.1,0,.1.06.11.06.1.07.1.08.09.09.21-.22h0l-.13.3.1.12.14.2.25-.16h0l-.17.3.09.16.08.18.11.31.09.33.08.39.07.43,0,.35v.7l0,.29-.05.27-.06.23-.07.2-.08.16.27.14h-.34l.25.16h0l-.31-.08-.12.14.21.21L43.6,50l.2.23L43.51,50l.17.25-.29-.17.15.26-.29-.19-.18.07-.19.06-.21.06-.23,0-.25,0-.26,0h-.54l-.35,0-.29,0-.29-.06-.29-.07-.29-.08-.3-.1L39.36,50l-.28-.12-.41-.2-.27-.15L38,49.29,37.66,49l-.22-.19-.22-.2-.19-.2-.18-.21L36.69,48l-.15-.22-.12-.23-.11-.22-.09-.24,0-.11-.06-.24,0-.24,0-.24V46l0-.25,0-.25.06-.25.08-.26.1-.26.13-.26.16-.27.18-.28.22-.29.25-.3.3-.32.34-.32.38-.34.34-.28.12-.09.13-.09.16-.09.17-.1.2-.1.2-.09.22-.09.23-.09.24-.09.24-.07.26-.07.26-.07.26,0L41.6,41l.26,0,.27,0h1l.24,0,.36.06.22.05.22.06.2.07.19.09.18.09.17.11.16.12.14.13.14.14.32.42.18.25.18.26.16.25.3.51.14.26.13.25.12.26.12.26.1.26.1.27.09.26.09.27.07.27.07.27.06.27.1.55,0,.28,0,.28,0,.29,0,.28v1.49l-.05.62,0,.32-.07.52Z"/><path d="M7.87,15.24l0,.14,0,.12,0,.1.12.2.12.18.14.19.23.29.16.2.42.46.61.65.32.32.94.93,1.31,1.27.35.37.22.23.44.44.44.42.46.41.47.4.48.39.49.37.5.35.5.35.52.33.66.4.53.3.54.29.55.27.55.26.56.25.57.24.57.23.58.21L23,27l.58.19.6.18.6.16.61.15.61.13.61.12.61.12.61.1.61.09.12,0,.21.08h0a.83.83,0,0,0,.82.65,1,1,0,0,0,.59-.19l.78-.54a1.07,1.07,0,0,0,.47-.3l.65-.45.28-.2.21.05.33.07.33.07.33.05.34,0,.34,0,.33,0,.35,0h1l.35,0,.34,0,.36,0,.35,0,.35-.07.35-.07.34-.08.36-.09.34-.09.35-.11.35-.11.35-.11.34-.13.35-.13.68-.29.68-.3.33-.17.34-.17.66-.36.65-.38.64-.41.63-.42.61-.44.59-.47.58-.47.29-.25.55-.5.53-.52.5-.53.49-.54.23-.27.23-.28.22-.28.42-.56.15-.23h0l.13-.2.15-.22h0l.28-.49.33-.61.22-.45.36-.74.22-.48.23-.57.13-.37.09-.32,0-.18,0-.2,0-.24v-.28l0-.11L52.9,13l-.07-.13,0-.08-.1-.13-.15-.15-.17-.11-.17-.1L52,12.27l-.16-.06-.17,0-.16,0-.35,0h-.53l-.39,0-.4,0-.41,0-.43.06-.68.13-.47.1-.35.08-.48.12-.48.13-.48.14-.48.16-.48.16-.5.19-.35.15-.69.33-.61.32.13-.41.1-.34.19-.7.13-.55.05-.27,0-.44.06-.74.06-.82,0-.61,0-.78,0-.78V6.62l0-.6,0-.37,0-.23,0-.3-.05-.23,0-.13-.06-.13-.07-.13-.12-.18-.21-.17L42.93,4l-.1,0-.14,0-.18,0h-.73L41.6,4l-.18,0-.18,0-.18,0-.18.06-.17.06-.35.15L40,4.55l-.26.14-.32.2-.31.21-.31.22-.3.23-.29.23L37.93,6l-.56.49-.28.26-.49.49L35.52,8.38l-.19.19L35.21,8l-.1-.4L35,7.23l-.13-.4-.14-.4L34.57,6l-.17-.39-.18-.39L34,4.85l-.26-.39-.26-.33L33.2,3.8l-.29-.33-.3-.31-.33-.32-.34-.3-.13-.11a.87.87,0,0,0-.62-.25L31,2.2l0-.05a.89.89,0,0,0-.78-.45,1.43,1.43,0,0,0-1.13.68l-.22.29-.42.6L28,3.89l-.3.47-.4.65-.19.34L26.84,6l-.3.65-.3.72-.6-.86-.48-.65-.27-.34-.27-.3-.29-.3-.28-.28-.29-.28-.3-.27-.29-.26-.3-.24-.23-.17-.16-.11-.31-.21-.32-.18-.33-.16-.17-.07-.17-.07-.18,0-.18-.05-.18,0-.19,0-.19,0h-.41l-.22,0-.22,0-.22.06-.1,0-.17.07-.23.12L18.4,3l-.26.24-.22.25-.17.24-.11.2-.09.18-.06.16,0,.15-.07.26,0,.25,0,.24,0,.41v.48l0,.5,0,.5.07.75.12.93.19,1.38.14,1.06.1.69.11.69.12.69.14.7.15.69.17.68.13.52.1.34.2.68.22.68.23.66.26.66.27.65.29.64.32.63.16.31.34.61.18.3.38.59.2.3.2.28.36.48-.69-.34-.5-.26-.5-.27-.49-.28-.49-.29L19.43,22l-.7-.47-.47-.32-.67-.51-.45-.35L16.71,20l-.42-.37-.42-.39-.4-.39-.39-.41-.33-.36L13,16.3l-.51-.51-.57-.61.38,0,.55.07.54,0,.54.06.79.12.52.08,1.53.26a.65.65,0,0,0,.2,0,1.42,1.42,0,0,0,1.08-.6,1.14,1.14,0,0,0,.23-1,.85.85,0,0,0-.52-.53l-.9-.37-.45-.18L15.9,13l-.5-.17-.52-.17-.55-.15L14,12.38l-.29-.05-.29,0-.3,0-.29,0-.3,0h-.6l-.3,0-.31,0-.3,0-.31,0-.3.07-.23.07-.32.11-.33.13-.32.16L9,13l-.19.14-.41.36L8,14.09l-.16.44,0,.31,0,.23Zm17.16-4-.13.68-.12.67-.09.68-.07.68-.05.68,0,.68v1l0,.35,0,.34,0,.34,0,.35,0,.34.06.34.06.34.06.34.08.34.08.34.09.34.09.34.11.34.11.34.12.33.13.33.14.34.15.33.15.33.16.33.33.61.14.27.19.42-.37-.37-.43-.46-.42-.48-.2-.24-.39-.5-.37-.51-.18-.26-.34-.54-.33-.55L23.62,20l-.29-.57-.28-.59-.26-.59-.25-.61L22.31,17l-.22-.62-.3-1-.18-.64-.2-.8-.16-.65-.14-.66L21,12l-.11-.66-.1-.65-.1-.66-.12-1-.14-1-.1-.84,0-.44L20.2,6V5.75l.19.13.3.22.25.2.26.22.26.23.26.25.27.26.55.56.82.78L25,10.17l.27.25Zm2.48,1.8.07-.6.1-.59.12-.59.13-.59.16-.59.17-.58.19-.58.2-.58.22-.57.23-.57.25-.57.4-.87.12-.29L30.1,5l.18-.41.21.38.18.35.17.36L31,6l.17.39.17.39.16.34.15.33.14.34.13.33.12.34.11.34.1.34.09.34.08.34.08.35.06.35.06.35,0,.35,0,.35,0,.36,0,.36,0,.36v1.46l0,.37-.07.74,0,.37-.11.75-.12.76-.14.76-.2.94-.17.76-.19.76-.19.75-.21.75-.41,1.5-.53,1.95-.13-.15-.13-.2L30,24.69l-.11-.23-.13-.33-.1-.28-.21-.65-.12-.33-.12-.34-.14-.34-.27-.63-.13-.31-.23-.62-.11-.3-.2-.62-.17-.61-.14-.62-.13-.61-.09-.61-.08-.6-.05-.61,0-.6,0-.6,0-.6,0-.6Zm7.83,2.8.06-.42.1-.83,0-.41,0-.41,0-.42,0-.41,0-.42V11.3l0-.32.16-.09.35-.26.23-.17.53-.43L38.1,9l.5-.41.48-.41.44-.37.42-.32.2-.14.18-.12.18-.1.18-.1L40.87,7l0,.6V9.39l0,.74,0,.57-.05.78,0,.4,0,.5,0,.18-.1.46-.16.6-.18.58-.2.57-.21.55-.22.53-.24.53-.26.5-.27.5-.28.49-.29.47L38,18.8l-.33.46-.33.45-.34.44-.37.43-.56.65-.49.52-.41.43-.42.41L34.3,23l-.45.41-.82.74.29-.79.28-.78.26-.8.26-.8.24-.81.23-.82.21-.81.14-.62.09-.41.17-.83ZM42.69,17l.39-.19.47-.19.51-.19.7-.23.4-.14.42-.13.42-.14.42-.12.42-.11.42-.11.71-.16.38-.07.37-.06.51-.07.31,0h.36l-.16.37-.26.56-.34.7-.22.41-.27.51-.24.34-.31.41-.33.42-.35.41-.38.41-.4.4-.43.4-.44.39-.46.39-.48.37-.5.37-.51.35-.52.34-.54.33-.55.31-.57.3-.57.27-.58.26-.59.24-.6.22-.6.19-.6.18-.61.14-.62.13-.61.1-.3,0-.62.06-.44,0,.3-.24.51-.44.5-.45.5-.47.48-.46.58-.61.47-.5.45-.51.44-.52.42-.54.42-.55.19-.28.39-.57.37-.59.29-.48a1.61,1.61,0,0,0,.94-.83l0,0,.2-.14Z"/></svg>