<svg xmlns="http://www.w3.org/2000/svg" width="64" height="64" viewBox="0 0 64 64" fill="#2E343D"><path d="M29.51,59.83l-.89,0-.89-.06-.9-.08-.88-.1-.89-.13-.88-.16-.88-.19-.66-.16-.44-.11-.43-.12-.86-.26-.43-.14-.43-.15L19.63,58l-.42-.16-.42-.17-.42-.18L18,57.31l-.41-.19-.41-.2-.41-.2-.41-.21-.4-.22-.4-.22-.4-.24-.7-.42-.19-.14L14,55.12,13.85,55l-.18-.16-.16-.16-.23-.24-.85-.92-.2-.2-.73-.68-.35-.35-.35-.35-.33-.37-.32-.36-.32-.38-.3-.38L9.24,50,9,49.64l-.27-.39-.26-.41-.25-.4L7.94,48l-.23-.41-.22-.42-.21-.43-.2-.43-.19-.43-.18-.44L6.54,45l-.16-.44-.15-.45-.14-.45L6,43.22l-.12-.46-.11-.46-.11-.46-.09-.47-.08-.46-.08-.47L5.31,40l-.06-.47,0-.48,0-.48,0-.48,0-.48V35.63l0-.49,0-.49,0-.48,0-.49.06-.49.06-.49.07-.49.08-.49.09-.49.09-.49.11-.49.11-.48L6,29.28l.12-.49.14-.48.14-.49.15-.48.16-.48.16-.48.17-.48.18-.47L7.45,25l.19-.47L7.85,24l.2-.47.22-.46.22-.46.23-.46L9,21.7l.24-.45.26-.45.25-.45.27-.44.27-.44.28-.44.29-.43.29-.43.3-.43.31-.41.31-.42.32-.41.32-.4.34-.4.33-.39.35-.39.35-.38.35-.38.36-.37.37-.36.37-.36.38-.34.38-.35.38-.33.4-.33.39-.32.4-.31.41-.3.41-.3.41-.28.42-.28.42-.27.43-.26.43-.25.43-.25.44-.23.44-.22.45-.22L23,8l.45-.2.46-.18.45-.18.46-.16.46-.16L25.7,7l.47-.14.47-.12.47-.12.48-.1.48-.09.48-.08L29,6.29l.49-.06L30,6.18l.59,0a1.38,1.38,0,0,1,.13-.28A1.78,1.78,0,0,1,32.05,5h1.07l.48,0,.63.06.64.07.64.1.65.13.64.15.65.17.65.19.65.22.64.23.65.26.65.27.64.3.64.31.64.33.64.35.64.37.63.38.62.39.63.42.61.42.61.44.61.46.6.47.59.48.58.49.57.53.56.53L51,14l.53.55.52.56.51.58.5.58.49.58.48.6.46.6.45.61.43.61.43.63.4.62.39.63.38.64.36.63.34.64.33.65.31.64.29.65.27.64.25.65.23.65.21.65.2.65.17.65.14.65.13.64.1.65.08.64,0,.64,0,.49v1.28l0,.31,0,.32-.06.48-.11.72-.08.48-.09.47-.1.47-.11.47-.11.47-.13.46-.13.46-.14.45-.15.45-.15.45-.17.45-.17.44-.18.44-.18.43-.2.43L58,43l-.21.42-.22.42-.22.42-.23.41-.24.41-.25.4-.25.4-.26.4-.27.39-.28.39-.27.39-.29.37-.3.38-.3.37-.3.36-.31.36-.32.36-.33.35-.32.34-.34.34-.34.33-.34.33-.35.32-.35.31-.36.31-.36.3-.37.3-.37.29-.37.29-.38.27-.38.28-.39.26-.77.51-.4.25-.39.24-.8.46-.81.44-.41.21-.41.2-.41.2-.42.19-.84.37-.42.17-.84.32-.43.16-.64.22-.85.27-.87.24-.88.23-.88.19-.88.18-.88.15-.89.12-.89.1-.89.07-.9.05-.9,0ZM32.7,7.36a1.26,1.26,0,0,1-1,.59L31,8l-.47,0-.47,0-.46,0-.46.07-.45.07-.45.08-.45.09-.44.1-.44.11-.44.12-.43.13L25.65,9l-.43.15-.41.15-.42.17-.4.17-.41.18-.4.18-.39.19-.39.21-.39.2-.38.22-.37.22-.37.23-.37.24-.36.24-.35.25-.35.25-.35.26-.34.27-.34.27-.33.28-.32.29-.32.29-.32.29-.31.3-.31.31-.3.31-.3.32-.58.65-.56.67-.27.34-.53.7-.26.36-.25.36-.25.37-.48.74L12.5,20l-.23.38-.44.78-.21.39-.21.4-.2.4-.38.82-.19.41-.35.83-.16.42-.32.84-.14.43-.15.43L9.39,27l-.25.87L9,28.27l-.11.44-.1.44-.1.44L8.64,30l-.16.88-.12.89,0,.44-.05.45,0,.44,0,.44,0,.45v1.76l0,.44,0,.44,0,.44,0,.43.05.44.05.43.07.43.07.43.09.42.09.42.09.43L8.9,41l.12.41.12.41.13.41.14.41.15.41.16.4.17.39.18.4.18.39.2.38.2.38.22.38.22.37.23.37.24.37.25.36.26.35.27.35.28.35.29.34.3.34.31.33.31.32.33.32.76.7.23.23.85.91.21.2.26.24.13.11.13.1.13.09.62.38.37.21.76.42.38.19.38.19.39.18.39.18.39.17.79.31.39.15.8.28.4.13.4.13.81.22.4.11.61.14L26,56l.82.14.82.12.83.1.82.08.83,0,.82,0h.83l.82,0,.82,0,.81-.07.82-.09.8-.12.81-.13.79-.16.79-.18.78-.2.77-.22.77-.24.56-.19.75-.28.73-.29.72-.31.7-.34.69-.34.68-.37.66-.38.65-.4.62-.42.62-.43.59-.45.58-.46.56-.47.54-.5.53-.5.5-.53.5-.53.23-.28.47-.56.45-.58.43-.6.41-.62.2-.32.38-.64.19-.33.18-.34.34-.68.17-.35.16-.36.15-.36.15-.36.28-.75.13-.38.13-.38.11-.39.12-.4.1-.39.1-.41.1-.4.08-.42.08-.41.07-.43L57,36l.05-.51,0-.52v-.79l0-.4,0-.56L57,32.66l-.09-.57-.12-.57-.13-.58-.16-.59-.17-.59-.2-.59-.21-.6-.24-.6-.25-.61-.28-.6-.29-.61-.3-.6-.33-.61-.34-.6-.35-.6-.38-.6-.38-.59-.4-.59-.42-.59-.43-.59-.44-.57-.45-.58-.47-.56-.47-.56L49.17,18l-.49-.54-.51-.54-.51-.52-.53-.52-1.06-1-.53-.5L45,13.84l-.54-.48-.55-.46-.55-.44L42.8,12l-.56-.42-.57-.4-.57-.38-.57-.37L40,10.11l-.58-.33-.57-.32-.58-.29-.57-.28-.58-.26-.57-.23-.57-.22L35.38,8l-.57-.17-.56-.15-.55-.13-.55-.11Z"/><path d="M30.69,38.64a1.36,1.36,0,0,1-.36,0l-.06,0-.35-.25-.13-.23-.07-.18,0-.15,0-.28,0-.31-.05-.75,0-1.2,0-2.17,0-.33,0-.6L29.64,31l.05-1.15,0-1.15,0-1.16V25.19l-.1-5.3L29.69,18l.11-1.28.12-1.26.14-1.26.07-.64A1.77,1.77,0,0,1,31,12.33a1.29,1.29,0,0,1,.64-.2.76.76,0,0,1,.54.22.71.71,0,0,1,.21.54l.5,3.74L33,18.36l.06,2.39,0,1.78v3.59l0,1.2,0,1.2L33,29.71l-.09,1.2,0,.61v1l1-1.14.69-.76,1.1-1.18.57-.6.78-.8.8-.8.82-.78.62-.56.81-.73.8-.67.78-.63.38-.29.37-.28.36-.25.45-.31.43-.27a1.06,1.06,0,0,1,.55-.18.66.66,0,0,1,.67.58,1.25,1.25,0,0,1-.6,1.07l-.45.36-.51.44L42.9,25l-.64.6-.67.66-.68.71-.87.92-1.43,1.56-.71.79-1.19,1.35L35.48,33l-1.22,1.49-.51,1.08-.29.58-.15.28-.21.37-.22.34-.14.19-.18.23-.27.27-.39.33-.58.32-.4.11Z"/></svg>