<svg id="Layer_1" data-name="Layer 1" xmlns="http://www.w3.org/2000/svg" viewBox="0 0 85 85"><defs><style>.cls-1{fill:#5d697a;}</style></defs><title>icon-velankani</title><path class="cls-1" d="M41,70.26c-3-9-7.87-15.87-17.17-18.69H76.27c-6.82,1.11-13.68,1.93-20,5A33.57,33.57,0,0,0,41,70.26Z"/><path class="cls-1" d="M11.56,49.33c2.9-1,5.79-1.73,8.63-2.63,8.08-2.55,13-7.92,15.11-16.11A87.09,87.09,0,0,0,37.9,16a3.1,3.1,0,0,1,.74-2.37c0,3.73,0,7.09,0,10.46,0,4.8.32,9.61-.25,14.4C37.53,45.62,34.13,49,27,49.28,21.89,49.52,16.72,49.33,11.56,49.33Z"/><path class="cls-1" d="M41.39,22.13q2.72,24,26.63,26.93c-5.93.07-11.66.86-17.32-.09-6.54-1.1-9.47-4.39-9.79-11.08-.25-5.15,0-10.32,0-15.48Z"/></svg>