<svg id="Layer_1" data-name="Layer 1" xmlns="http://www.w3.org/2000/svg" viewBox="0 0 85 85"><defs><style>.cls-1{fill:#5d697a;fill-rule:evenodd;}</style></defs><title>icon-tata</title><polygon class="cls-1" points="17.73 51.78 29.62 51.78 29.62 55.44 26.21 55.44 26.21 64.15 21.23 64.15 21.23 55.44 17.73 55.44 17.73 51.78 17.73 51.78"/><polygon class="cls-1" points="35.69 56.77 33.18 64.15 28.41 64.15 33.09 51.78 38.26 51.78 43.06 64.15 38.19 64.15 35.69 56.77 35.69 56.77"/><polygon class="cls-1" points="41.88 51.78 53.83 51.78 53.83 55.44 50.4 55.44 50.4 64.15 45.45 64.15 45.45 55.44 41.88 55.44 41.88 51.78 41.88 51.78"/><polygon class="cls-1" points="59.89 56.77 57.3 64.15 52.55 64.15 57.3 51.78 62.48 51.78 67.27 64.15 62.41 64.15 59.89 56.77 59.89 56.77"/><path class="cls-1" d="M60,29.14a11.18,11.18,0,0,0-1.71-2.49,17.52,17.52,0,0,0-6.7-4.23,26.24,26.24,0,0,0-9-1.57,26.84,26.84,0,0,0-9.1,1.57,18.19,18.19,0,0,0-6.67,4.23A10.31,10.31,0,0,0,25,29.14,77.9,77.9,0,0,1,40.29,27a1.28,1.28,0,0,1,1.13.49,5.62,5.62,0,0,1,.3,2.32h0l-.18,15.71,1,0c.3,0,.65,0,1,0h0l-.12-15.71a5.88,5.88,0,0,1,.21-2.32,1.36,1.36,0,0,1,1.2-.49A78,78,0,0,1,60,29.14Z"/><path class="cls-1" d="M60.75,31.21a65.54,65.54,0,0,0-12.07-1.59c-3-.18-3,.9-2.71,2.92V33c1,5.92,2.3,11,2.53,11.91C55.76,43.24,61,38.63,61,33.23a6.78,6.78,0,0,0-.22-2Z"/><path class="cls-1" d="M39.09,32.54c.29-2,.23-3.1-2.76-2.92a66.56,66.56,0,0,0-12.1,1.59,11.07,11.07,0,0,0-.2,2,9.57,9.57,0,0,0,2.72,6.55A18,18,0,0,0,33.42,44a20.42,20.42,0,0,0,3.1.9c.2-.8,1.5-6,2.5-12.08a1.55,1.55,0,0,1,.07-.31Z"/></svg>