<svg id="Layer_1" data-name="Layer 1" xmlns="http://www.w3.org/2000/svg" viewBox="0 0 85 85"><defs><style>.cls-1{fill:#5d697a;}</style></defs><title>icon-siemens</title><path class="cls-1" d="M14.43,37.25v2.08a9.65,9.65,0,0,0-2.95-.55c-1.06,0-1.66.33-1.66.91,0,.38.26.63,1,1l2,.9c1.6.72,2.41,1.78,2.41,3.15,0,2.11-1.82,3.44-4.72,3.44A16.77,16.77,0,0,1,7,47.7V45.54a13.54,13.54,0,0,0,3.38.54c1.2,0,1.84-.34,1.84-1,0-.37-.25-.65-.83-.9l-2.2-1c-1.63-.73-2.38-1.71-2.38-3.11,0-2,1.76-3.27,4.53-3.27a14.13,14.13,0,0,1,3.14.39Z"/><polygon class="cls-1" points="16.82 37.08 20.07 37.08 20.07 47.92 16.82 47.92 16.82 37.08 16.82 37.08"/><polygon class="cls-1" points="30.63 37.08 30.63 39.06 25.72 39.06 25.72 41.51 30.01 41.51 30.01 43.31 25.72 43.31 25.72 45.84 30.69 45.84 30.69 47.92 22.57 47.92 22.57 37.08 30.63 37.08 30.63 37.08"/><polygon class="cls-1" points="45.97 37.08 45.97 47.92 42.83 47.92 42.83 40.78 39.75 48.01 37.77 48.01 34.71 40.78 34.71 47.92 32.54 47.92 32.54 37.08 36.5 37.08 39.31 43.67 42.1 37.08 45.97 37.08 45.97 37.08"/><polygon class="cls-1" points="56.54 37.08 56.54 39.06 51.63 39.06 51.63 41.51 55.91 41.51 55.91 43.31 51.63 43.31 51.63 45.84 56.6 45.84 56.6 47.92 48.47 47.92 48.47 37.08 56.54 37.08 56.54 37.08"/><polygon class="cls-1" points="67.98 37.08 67.98 47.92 64.52 47.92 60.62 40.97 60.62 47.92 58.45 47.92 58.45 37.08 62 37.08 65.82 43.94 65.82 37.08 67.98 37.08 67.98 37.08"/><path class="cls-1" d="M77.41,37.25v2.08a9.59,9.59,0,0,0-2.93-.55c-1.08,0-1.68.32-1.68.91,0,.38.25.61,1,1l2,.9c1.62.73,2.42,1.78,2.42,3.16,0,2.1-1.83,3.43-4.72,3.43a16.69,16.69,0,0,1-3.58-.44V45.54a13.4,13.4,0,0,0,3.36.54c1.19,0,1.85-.34,1.85-.94,0-.4-.23-.66-.83-.92l-2.19-1c-1.64-.74-2.38-1.7-2.38-3.1,0-2,1.76-3.28,4.52-3.28a14.13,14.13,0,0,1,3.14.39Z"/></svg>