<svg id="Layer_1" data-name="Layer 1" xmlns="http://www.w3.org/2000/svg" viewBox="0 0 85 85"><defs><style>.cls-1{fill:#5d697a;}</style></defs><title>icon-wipro</title><path class="cls-1" d="M48.5,37.85a4.76,4.76,0,1,0,4.63,4.75,4.68,4.68,0,0,0-4.63-4.75m0,7.27a2.51,2.51,0,1,1,2.38-2.51A2.45,2.45,0,0,1,48.5,45.12Z"/><path class="cls-1" d="M23.85,46.7a.4.4,0,0,1-.39.41H21.74a.39.39,0,0,1-.39-.41V38.51a.4.4,0,0,1,.39-.4h1.72a.39.39,0,0,1,.39.4Z"/><path class="cls-1" d="M31,37.85a4.15,4.15,0,0,0-3,1.34h0l-.31-.83a.42.42,0,0,0-.36-.25h-.79a.38.38,0,0,0-.39.39V51.44a.39.39,0,0,0,.39.4h1.71a.4.4,0,0,0,.4-.4V47a7.29,7.29,0,0,0,2.38.39,4.77,4.77,0,0,0,0-9.5m-.47,7.27a3.7,3.7,0,0,1-1.91-.51V41.22a2.25,2.25,0,0,1,1.91-1.12,2.52,2.52,0,0,1,0,5Z"/><path class="cls-1" d="M41.66,37.85a3.43,3.43,0,0,0-2.61,1.34l-.31-.83a.42.42,0,0,0-.36-.25h-.79a.39.39,0,0,0-.4.4V46.7a.4.4,0,0,0,.4.4H39.3a.39.39,0,0,0,.39-.4V41a2.19,2.19,0,0,1,2.54-.7.38.38,0,0,0,.53-.19l.59-1.34c.16-.31-.05-.88-1.69-.88"/><path class="cls-1" d="M46.51,69.3a2,2,0,1,0,2-2A2,2,0,0,0,46.51,69.3Zm-6.75-1.39A1.83,1.83,0,1,0,42,66.6a1.34,1.34,0,0,0-.48-.08A1.83,1.83,0,0,0,39.76,67.91Zm15.12-1.57a2.22,2.22,0,1,0,.54,0A3.29,3.29,0,0,0,54.88,66.34ZM33.59,64.82a1.71,1.71,0,1,0,2.34-.62,1.51,1.51,0,0,0-.85-.23A1.7,1.7,0,0,0,33.59,64.82Zm27.18-1A2.23,2.23,0,1,0,63,67.64a2.22,2.22,0,0,0,.83-3,2.24,2.24,0,0,0-2-1.13A2.39,2.39,0,0,0,60.77,63.78Zm-13.6-2a1.31,1.31,0,0,0,1.31,1.34,1.33,1.33,0,1,0,0-2.65A1.3,1.3,0,0,0,47.17,61.75Zm-4.84-1a1.2,1.2,0,0,0,.85,1.45,1.19,1.19,0,0,0,1.45-.83A1.15,1.15,0,0,0,43.8,60a2.73,2.73,0,0,0-.31-.06A1.19,1.19,0,0,0,42.33,60.79ZM28.4,60.3a1.54,1.54,0,1,0,1.11-.48A1.62,1.62,0,0,0,28.4,60.3Zm24.68-.59a1.45,1.45,0,0,0-1,1.79,1.46,1.46,0,0,0,2.82-.77,1.46,1.46,0,0,0-1.4-1.08A2,2,0,0,0,53.08,59.71Zm12.7,0a2.39,2.39,0,0,0,0,3.39,2.39,2.39,0,1,0,3.36-3.39,2.38,2.38,0,0,0-1.68-.68A2.31,2.31,0,0,0,65.78,59.76ZM37.92,58.62a1.06,1.06,0,1,0,1.85,1.05,1,1,0,0,0-.4-1.43.94.94,0,0,0-.54-.13A1.06,1.06,0,0,0,37.92,58.62Zm19.41-.79a1.58,1.58,0,1,0,1.6,2.73,1.55,1.55,0,0,0,.56-2.17,1.55,1.55,0,0,0-2.16-.56ZM34.19,55.44a1,1,0,0,0,0,1.31.93.93,0,0,0,1.31-1.31.89.89,0,0,0-.65-.29A1,1,0,0,0,34.19,55.44Zm13.37.46a.9.9,0,0,0,.91.91.93.93,0,0,0,.94-.91,1,1,0,0,0-.94-.95A.93.93,0,0,0,47.56,55.9Zm-3.38-.69a.82.82,0,0,0,.6,1,.83.83,0,0,0,1-.6A.82.82,0,0,0,45,54.55.88.88,0,0,0,44.18,55.21Zm7.51-.74A1,1,0,0,0,51,55.69a1,1,0,0,0,1.2.68,1,1,0,0,0,.71-1.2,1,1,0,0,0-1-.73A.74.74,0,0,0,51.69,54.47Zm9.23.45a1.71,1.71,0,1,0,2.41,0,1.61,1.61,0,0,0-1.19-.52A1.76,1.76,0,0,0,60.92,54.92Zm-36.38-.31a1.45,1.45,0,1,0,2,.52,1.51,1.51,0,0,0-1.28-.72A1.37,1.37,0,0,0,24.54,54.61Zm16.57-.93a.77.77,0,0,0,.28,1.08.79.79,0,0,0,1.08-.29.82.82,0,0,0-.28-1.08.86.86,0,0,0-.41-.12A.72.72,0,0,0,41.11,53.68Zm28.31.91A2.64,2.64,0,1,0,74,57.23a2.64,2.64,0,0,0-2.28-4A2.68,2.68,0,0,0,69.42,54.59Zm-14.77-1.4A1.05,1.05,0,0,0,55.71,55a1.05,1.05,0,0,0-.51-2A1.26,1.26,0,0,0,54.65,53.19ZM31.4,51.4a.76.76,0,0,0-.29,1.08.77.77,0,0,0,1.08.31.79.79,0,0,0,.29-1.08.82.82,0,0,0-.68-.4h0A.84.84,0,0,0,31.4,51.4Zm7.08,0a.73.73,0,1,0,1,0,.72.72,0,0,0-.52-.23A.79.79,0,0,0,38.48,51.42Zm18.65-.29a1.19,1.19,0,1,0,1.68,0,1.18,1.18,0,0,0-.83-.34A1.32,1.32,0,0,0,57.13,51.13Zm-9.25.21a.6.6,0,0,0,.6.57.58.58,0,0,0,.6-.57.58.58,0,0,0-.6-.6A.6.6,0,0,0,47.88,51.34Zm-2.2-.46a.55.55,0,0,0,.37.66.58.58,0,0,0,.66-.41.54.54,0,0,0-.4-.62.23.23,0,0,0-.12,0A.51.51,0,0,0,45.68,50.88Zm4.93-.48a.65.65,0,0,0-.48.79.69.69,0,0,0,.82.49.7.7,0,0,0,.46-.83.66.66,0,0,0-.62-.49A.53.53,0,0,0,50.61,50.4Zm13,.83a1.86,1.86,0,0,0,.67,2.53,1.91,1.91,0,0,0,2.54-.68,1.86,1.86,0,0,0-.68-2.53,1.7,1.7,0,0,0-.91-.26A1.83,1.83,0,0,0,63.59,51.23ZM43.66,49.89a.43.43,0,0,0,.17.62.44.44,0,0,0,.62-.17.46.46,0,0,0-.17-.62.86.86,0,0,0-.23-.06A.45.45,0,0,0,43.66,49.89Zm8.88-.38a.73.73,0,0,0-.25,1,.72.72,0,1,0,.63-1.08A.79.79,0,0,0,52.54,49.51Zm-16-.93a.65.65,0,0,0-.23.91.64.64,0,0,0,.89.23.66.66,0,0,0-.31-1.23A.76.76,0,0,0,36.55,48.58ZM42,48.43A.36.36,0,0,0,42,49a.4.4,0,0,0,.54,0,.37.37,0,0,0,0-.56.33.33,0,0,0-.26-.11C42.13,48.33,42,48.35,42,48.43Zm12.24-.25a.81.81,0,0,0,0,1.14.77.77,0,0,0,1.1,0,.81.81,0,0,0,0-1.14.79.79,0,0,0-.56-.23A.76.76,0,0,0,54.2,48.18Zm4.77.37a1.28,1.28,0,0,0,.49,1.79,1.31,1.31,0,0,0,1.31-2.28,1.38,1.38,0,0,0-.66-.17A1.29,1.29,0,0,0,59,48.55Zm12.65.15a2.88,2.88,0,0,0,2,3.55,2.9,2.9,0,1,0,1.51-5.6,2.58,2.58,0,0,0-.77-.12A2.86,2.86,0,0,0,71.62,48.7Zm-16.2-2.2a.83.83,0,0,0,.31,1.16.87.87,0,0,0,1.16-.31.83.83,0,0,0-.31-1.16.88.88,0,0,0-.43-.12A.83.83,0,0,0,55.42,46.5Zm9.79.48a2,2,0,0,0,1.42,2.42,2,2,0,1,0,1-3.81,1.65,1.65,0,0,0-.52-.08A2,2,0,0,0,65.21,47Zm-5.16-1.39a1.46,1.46,0,0,0,1,1.79,1.45,1.45,0,0,0,.73-2.81,1.51,1.51,0,0,0-.36-.06A1.44,1.44,0,0,0,60.05,45.59Zm-3.9-1a.9.9,0,0,0,.66,1.1A.92.92,0,0,0,58,45a.91.91,0,0,0-.66-1.1,1.14,1.14,0,0,0-.25-.06A1,1,0,0,0,56.15,44.57Zm.21-2a1,1,0,0,0,2,0,1,1,0,0,0-1-1A1,1,0,0,0,56.36,42.52Zm4,0a1.55,1.55,0,0,0,3.1,0A1.56,1.56,0,0,0,61.92,41,1.54,1.54,0,0,0,60.38,42.52Zm5.14,0a2.28,2.28,0,1,0,2.28-2.28A2.25,2.25,0,0,0,65.52,42.52Zm6.64,0a3.18,3.18,0,1,0,3.18-3.19A3.18,3.18,0,0,0,72.16,42.52ZM56.81,39.33a1,1,0,1,0,.23,0A.48.48,0,0,0,56.81,39.33Zm4.27-1.71a1.46,1.46,0,0,0-1,1.79,1.45,1.45,0,0,0,1.76,1,1.43,1.43,0,0,0,1-1.79,1.45,1.45,0,0,0-1.39-1.06A2.33,2.33,0,0,0,61.08,37.62Zm-5.35-.28a.84.84,0,0,0-.31,1.16.81.81,0,0,0,1.16.31.84.84,0,0,0,.31-1.16.81.81,0,0,0-.74-.42A.78.78,0,0,0,55.73,37.34ZM42,36a.37.37,0,0,0,0,.57.35.35,0,0,0,.54,0,.38.38,0,0,0,0-.57.47.47,0,0,0-.26-.11A.45.45,0,0,0,42,36Zm24.67-.39a2.06,2.06,0,1,0,.51-.05A1.84,1.84,0,0,0,66.63,35.6Zm-12.43.08a.81.81,0,0,0,0,1.14.8.8,0,0,0,1.1,0,.81.81,0,0,0,0-1.14.9.9,0,0,0-.56-.23A.81.81,0,0,0,54.2,35.68Zm-17.88-.17a.65.65,0,0,0,.23.91.68.68,0,0,0,.91-.25.66.66,0,0,0-.25-.89.53.53,0,0,0-.31-.08A.69.69,0,0,0,36.32,35.51Zm23.14-.85A1.28,1.28,0,0,0,59,36.45a1.31,1.31,0,1,0,1.14-2A1.26,1.26,0,0,0,59.46,34.66Zm-15.63-.17a.43.43,0,0,0-.17.62.44.44,0,0,0,.62.17.46.46,0,0,0,.17-.62.44.44,0,0,0-.4-.25A.32.32,0,0,0,43.83,34.49Zm8.46,0a.75.75,0,0,0,.25,1,.73.73,0,0,0,1-.29.71.71,0,0,0-.25-1,.66.66,0,0,0-.37-.11A.7.7,0,0,0,52.29,34.49Zm-31,.4a1.36,1.36,0,0,0,1,1.68,1.38,1.38,0,1,0,.7-2.67,2.14,2.14,0,0,0-.35-.06A1.35,1.35,0,0,0,21.26,34.89Zm24.79-1.43a.53.53,0,0,0-.37.66.5.5,0,0,0,.63.37.54.54,0,0,0,.4-.62.55.55,0,0,0-.52-.41Zm4.08.35a.65.65,0,0,0,.48.79.62.62,0,0,0,.79-.46.7.7,0,0,0-.46-.83h-.17A.66.66,0,0,0,50.13,33.81Zm-2.25-.12a.6.6,0,0,0,.6.57.58.58,0,0,0,.6-.57.58.58,0,0,0-.6-.6A.6.6,0,0,0,47.88,33.69Zm25.78-.94a2.9,2.9,0,1,0,3.56,2,2.94,2.94,0,0,0-2.82-2.14h0A3.83,3.83,0,0,0,73.66,32.75Zm-35.18-.2a.74.74,0,0,0,0,1,.72.72,0,0,0,1,0,.74.74,0,0,0,0-1,.73.73,0,0,0-.52-.19A.79.79,0,0,0,38.48,32.55Zm-7.37,0a.76.76,0,0,0,.29,1.08.81.81,0,0,0,1.08-.31.79.79,0,0,0-.29-1.08,1.05,1.05,0,0,0-.4-.08A.78.78,0,0,0,31.11,32.52Zm26-.33a1.2,1.2,0,0,0,0,1.68,1.16,1.16,0,0,0,1.68,0,1.19,1.19,0,1,0-1.68-1.68Zm7.15-.91a1.81,1.81,0,0,0-.68,2.51A1.86,1.86,0,1,0,65.21,31,1.64,1.64,0,0,0,64.28,31.28Zm-22.9-1a.77.77,0,0,0-.29,1.08.79.79,0,0,0,1.09.29.83.83,0,0,0,.28-1.08.79.79,0,0,0-.68-.4A.83.83,0,0,0,41.38,30.24Zm12.9.12a1.06,1.06,0,0,0,.37,1.45,1.09,1.09,0,0,0,1.45-.37A1.07,1.07,0,0,0,55.69,30a.76.76,0,0,0-.51-.14A1,1,0,0,0,54.28,30.36Zm-9.5-1.59a.84.84,0,0,0-.6,1.06.87.87,0,0,0,1.06.6.84.84,0,0,0,.59-1.06.77.77,0,0,0-.82-.62A.32.32,0,0,0,44.78,28.77Zm6.23.54a1,1,0,1,0,1.9.51,1,1,0,0,0-.71-1.2,1.22,1.22,0,0,0-.26-.06A1,1,0,0,0,51,29.31Zm-3.45-.2a.93.93,0,0,0,.91.95,1,1,0,0,0,.94-.95.91.91,0,0,0-.94-.9A.88.88,0,0,0,47.56,29.11Zm-13.37-.86a1,1,0,0,0,0,1.31.93.93,0,1,0,1.31-1.31.9.9,0,0,0-.65-.25A1,1,0,0,0,34.19,28.25Zm-10.25.12a1.46,1.46,0,0,0,2.53,1.45,1.45,1.45,0,0,0-.54-2,1.59,1.59,0,0,0-.71-.2A1.55,1.55,0,0,0,23.94,28.37Zm37-.72a1.71,1.71,0,1,0,2.41,0,1.64,1.64,0,0,0-1.19-.51A1.75,1.75,0,0,0,60.92,27.65Zm9.47-.85A2.64,2.64,0,1,0,73,31.38a2.63,2.63,0,0,0-1.31-4.92A2.8,2.8,0,0,0,70.39,26.8ZM38.31,24.93a1,1,0,1,0,1,1.81,1,1,0,0,0,.4-1.42,1.07,1.07,0,0,0-.94-.54A1,1,0,0,0,38.31,24.93ZM56.75,25a1.6,1.6,0,0,0,.57,2.16,1.55,1.55,0,0,0,2.16-.56,1.57,1.57,0,0,0-.56-2.17,1.79,1.79,0,0,0-.8-.23A1.59,1.59,0,0,0,56.75,25ZM43.18,22.76a1.2,1.2,0,0,0-.85,1.45,1.24,1.24,0,0,0,1.48.85,1.21,1.21,0,0,0-.31-2.37Zm8.88.74a1.46,1.46,0,0,0,2.82.77,1.5,1.5,0,0,0-1-1.79,1.58,1.58,0,0,0-.37,0A1.47,1.47,0,0,0,52.06,23.5Zm-23.66-1a1.57,1.57,0,1,0,2.23,0A1.58,1.58,0,0,0,29.51,22,1.63,1.63,0,0,0,28.4,22.48Zm18.77.77a1.3,1.3,0,0,0,1.31,1.31,1.33,1.33,0,1,0,0-2.65A1.31,1.31,0,0,0,47.17,23.25Zm18.61-1.4a2.39,2.39,0,0,0,3.36,3.39,2.45,2.45,0,0,0,0-3.39,2.37,2.37,0,0,0-1.68-.67A2.22,2.22,0,0,0,65.78,21.85Zm-31.57-4a1.71,1.71,0,1,0,2.34.62,1.67,1.67,0,0,0-1.48-.85A1.57,1.57,0,0,0,34.21,17.84ZM60,18.15A2.25,2.25,0,1,0,63,17.34a2,2,0,0,0-1.1-.31A2.32,2.32,0,0,0,60,18.15Zm-18.9-3.3a1.84,1.84,0,0,0,1,3.55,1.82,1.82,0,0,0,1.32-2.24,1.86,1.86,0,0,0-1.8-1.37A1.38,1.38,0,0,0,41.05,14.85Zm12.32,1.22A2.12,2.12,0,1,0,56,14.56a5,5,0,0,0-.54-.06A2.13,2.13,0,0,0,53.37,16.07Zm-6.86-.37a2,2,0,1,0,2-2A2,2,0,0,0,46.51,15.7Z"/><path class="cls-1" d="M13.13,41.65,16,47.13a.48.48,0,0,0,.39.23h.25a.39.39,0,0,0,.35-.25l2.78-8.62a.27.27,0,0,0-.27-.38H17.77a.39.39,0,0,0-.34.25L16,42.72l-2.42-4.63a.48.48,0,0,0-.39-.23h-.17a.49.49,0,0,0-.4.23l-2.41,4.63-1.4-4.36a.41.41,0,0,0-.35-.25H6.79a.27.27,0,0,0-.28.38L9.3,47.11a.37.37,0,0,0,.34.25h.25a.46.46,0,0,0,.39-.23Z"/></svg>