<svg id="Layer_1" data-name="Layer 1" xmlns="http://www.w3.org/2000/svg" viewBox="0 0 85 85"><defs><style>.cls-1{fill:#5d697a;}</style></defs><title>icon-hp</title><path class="cls-1" d="M58.37,35.18H54.2L48.35,51.24h4.17l5.85-16.06ZM42.5,69.45l-.78,0L47.08,54.7h7.38a3.61,3.61,0,0,0,3.16-2.22l5.82-16c1-2.62-.54-4.76-3.33-4.76H49.87l-8.59,23.6h0L36.41,68.73a26.24,26.24,0,0,1-1-50.79l-5,13.81h0L22,54.7H27.6l7.1-19.5h4.18l-7.1,19.5h5.55L44,36.51c1-2.62-.54-4.76-3.32-4.76H36L41.32,17c.39,0,.78,0,1.18,0a26.24,26.24,0,0,1,0,52.48Z"/></svg>