<svg id="Layer_1" data-name="Layer 1" xmlns="http://www.w3.org/2000/svg" viewBox="0 0 85 85"><defs><style>.cls-1{fill:#5d697a;fill-rule:evenodd;}</style></defs><title>icon-hcl</title><polygon class="cls-1" points="6.2 48.94 14.08 48.94 15.77 45.07 23.49 45.07 21.75 48.94 29.73 48.94 34.1 39.24 26.07 39.24 24.63 42.51 16.92 42.51 18.38 39.24 10.58 39.24 6.2 48.94"/><path class="cls-1" d="M51.57,42.54H59c0-1.63-1.62-2.76-4.74-3.21-6.16-.9-12.81-.52-17.55,2.1-3.74,2.07-4,5.2-.3,6.73,3.13,1.27,9.71,1.4,14.42.61,3-.52,5.38-1.52,6.68-3H49.92a6.2,6.2,0,0,1-3.78,1.15c-4.27,0-4.84-1.27-4.09-2.76.89-1.75,2.74-2.71,5.58-2.79,2.23-.05,3.34.44,3.94,1.19Z"/><polygon class="cls-1" points="70.92 39.24 67.61 46.62 78.8 46.62 77.76 48.93 58.51 48.93 62.85 39.24 70.92 39.24"/></svg>