<svg id="Layer_1" data-name="Layer 1" xmlns="http://www.w3.org/2000/svg" viewBox="0 0 85 85"><defs><style>.cls-1{fill:#5d697a;}</style></defs><title>icon-biocon</title><path class="cls-1" d="M18.29,29.05A2,2,0,0,1,20.7,31a3.51,3.51,0,0,1,0,.56,3.9,3.9,0,0,0,.21,1.4,3.74,3.74,0,0,0,1.28,1.73,4.37,4.37,0,0,0,1.08.54,2.09,2.09,0,0,1,1.33,1.57,2,2,0,0,1-.24,1.42,2.07,2.07,0,0,1-2.1,1,3.88,3.88,0,0,0-2.09.4,3,3,0,0,0-1.48,1.61,2.77,2.77,0,0,0-.11,1,2.68,2.68,0,0,0,.56,1.53h0A3.94,3.94,0,0,0,20.75,45a6.59,6.59,0,0,1,.73.3,2.06,2.06,0,0,1,1,1.83,2,2,0,0,1-2,2,6,6,0,0,0-1.63.1A3.58,3.58,0,0,0,17,50.49a3.39,3.39,0,0,0-.64,1.18A2.07,2.07,0,0,1,15,53.05a2.23,2.23,0,0,1-1.06,0,2.06,2.06,0,0,1,.58-4,4.18,4.18,0,0,0,2.21-.3h0l.07,0h0a3.14,3.14,0,0,0,1.37-1.28h0A2.8,2.8,0,0,0,18,44.62h0a4.18,4.18,0,0,0-1.67-1.45,4.66,4.66,0,0,1-.73-.3A2,2,0,0,1,14.82,40,2.07,2.07,0,0,1,16.9,39a4.52,4.52,0,0,0,1.75-.27,3.16,3.16,0,0,0,1.64-1.37,2.67,2.67,0,0,0,.09-2.26A3.87,3.87,0,0,0,17.91,33a2,2,0,0,1-1.26-1.52,2,2,0,0,1,.13-1.24A2.1,2.1,0,0,1,18.29,29.05Z"/><path class="cls-1" d="M13.8,34.53a2.05,2.05,0,0,1,1.33-.89,2.12,2.12,0,0,1,1.86.62,2,2,0,0,1,.55,1.35,2.05,2.05,0,0,1-1.71,2.09c-.4,0-.81,0-1.21,0a4.91,4.91,0,0,0-.77.1l-.09,0A3.58,3.58,0,0,0,12,39.07a2.5,2.5,0,0,0-.37,2.17,3.86,3.86,0,0,0,1.44,2,3.75,3.75,0,0,0,1,.5,2.08,2.08,0,0,1,1.38,1.57,2.46,2.46,0,0,1-.09,1.08A2.08,2.08,0,0,1,14,47.61a2.34,2.34,0,0,1-1,.08,5,5,0,0,0-1.16.09l-.09,0-.23.07h0l-.12,0h0a3.82,3.82,0,0,0-.46.21h0a2.9,2.9,0,0,0-1.45,1.73,2.53,2.53,0,0,0,.1,1.63,3.8,3.8,0,0,0,2,2h0a6.59,6.59,0,0,1,.73.3,2.05,2.05,0,0,1,1.05,1.63,2.1,2.1,0,0,1-.48,1.5,2.08,2.08,0,0,1-1.59.73A2,2,0,0,1,9.79,57a2.06,2.06,0,0,1-.53-1.56,4,4,0,0,0-.16-1.61A3.81,3.81,0,0,0,7.73,52a3.88,3.88,0,0,0-1-.48A2.13,2.13,0,0,1,5.39,50a3,3,0,0,1,0-.89,2.07,2.07,0,0,1,1.29-1.45,2.44,2.44,0,0,1,1.23-.09,3.9,3.9,0,0,0,2.5-.82,2.74,2.74,0,0,0,1-1.64,2.66,2.66,0,0,0-.3-1.68,3.84,3.84,0,0,0-2.23-1.86,2.08,2.08,0,0,1-1.4-1.71,2.06,2.06,0,0,1,.15-1.07,2.08,2.08,0,0,1,1.45-1.21,5.62,5.62,0,0,1,1.16,0,3.61,3.61,0,0,0,3.09-2C13.51,35.26,13.58,34.86,13.8,34.53Z"/><path class="cls-1" d="M38.7,37.06h3c-.13.73-.3,1.46-.44,2.19h-3C38.37,38.52,38.52,37.79,38.7,37.06Z"/><path class="cls-1" d="M27.92,37.73c1.78,0,3.55,0,5.32,0a3.36,3.36,0,0,1,2.27.84,2.16,2.16,0,0,1,.67,1.32,2.77,2.77,0,0,1-.32,1.81,3.18,3.18,0,0,1-2,1.45c-.17.06-.35.06-.51.13a2.74,2.74,0,0,1,1.65.86,2.1,2.1,0,0,1,.46,1.39,3.28,3.28,0,0,1-.54,1.85A3.69,3.69,0,0,1,33,48.74a7.14,7.14,0,0,1-1.78.37c-1,0-2,0-2.92,0s-1.86,0-2.79,0c.78-3.83,1.58-7.64,2.37-11.46m2.59,2.19c-.15.78-.32,1.56-.48,2.33a7.89,7.89,0,0,0,2.17-.16,1.33,1.33,0,0,0,.9-.81,1,1,0,0,0-.16-1A1.35,1.35,0,0,0,32.1,40c-.53-.06-1.06,0-1.59,0m-.92,4.41c-.15.75-.31,1.5-.47,2.24a1.54,1.54,0,0,0-.06.43,9.78,9.78,0,0,0,1.21,0,3.32,3.32,0,0,0,1.35-.3,1.34,1.34,0,0,0,.71-.87,1.36,1.36,0,0,0-.17-1,1.73,1.73,0,0,0-1.26-.4A11.47,11.47,0,0,0,29.59,44.33Z"/><polygon class="cls-1" points="13.76 37.84 13.85 37.81 13.84 37.84 13.8 37.86 13.76 37.84"/><path class="cls-1" d="M46.16,40.45a6.43,6.43,0,0,1,1.52,0,4.54,4.54,0,0,1,2.13.83A3.44,3.44,0,0,1,51,42.9a4.77,4.77,0,0,1,.2,2,4.93,4.93,0,0,1-1.07,2.85,4.8,4.8,0,0,1-2.81,1.54,8.16,8.16,0,0,1-1.84.14,5.2,5.2,0,0,1-2.2-.49,3.28,3.28,0,0,1-1.38-1.2,3.68,3.68,0,0,1-.54-1.47,5.36,5.36,0,0,1,0-1.2A5,5,0,0,1,42,42.85a4.59,4.59,0,0,1,1.71-1.68,5.92,5.92,0,0,1,2.5-.72m.2,2.09a2.07,2.07,0,0,0-1.28.77,3.49,3.49,0,0,0-.69,1.59,2.86,2.86,0,0,0,.18,1.56,1.43,1.43,0,0,0,.91.77,2,2,0,0,0,1.61-.31,2.4,2.4,0,0,0,.83-1.2,4.88,4.88,0,0,0,.2-1.82,1.63,1.63,0,0,0-.52-1.06A1.61,1.61,0,0,0,46.36,42.54Z"/><path class="cls-1" d="M56.46,40.47a7.18,7.18,0,0,1,3.45.52c-.19.69-.43,1.37-.62,2.06a2.24,2.24,0,0,1-.5-.16,4.43,4.43,0,0,0-1.25-.27,2.76,2.76,0,0,0-1.83.53,2.8,2.8,0,0,0-.91,2.3,1.74,1.74,0,0,0,.51,1.16,2,2,0,0,0,1.45.58,4.69,4.69,0,0,0,1.92-.37c-.09.75-.27,1.49-.41,2.24a8,8,0,0,1-2.58.32,4.07,4.07,0,0,1-2.49-.8,3.74,3.74,0,0,1-1.41-2.43,4.83,4.83,0,0,1,2.13-4.79,5.61,5.61,0,0,1,2.54-.89Z"/><path class="cls-1" d="M64.35,40.45a6.08,6.08,0,0,1,2.61.3,3.72,3.72,0,0,1,1.77,1.33,3.51,3.51,0,0,1,.58,1.36,7.82,7.82,0,0,1,0,1.45,5.28,5.28,0,0,1-.64,2.2A4.22,4.22,0,0,1,67,48.74a6.49,6.49,0,0,1-2.25.61,6.84,6.84,0,0,1-2.91-.3,3.4,3.4,0,0,1-1.71-1.3,4,4,0,0,1-.62-2.3,5.16,5.16,0,0,1,.5-2.32,4.5,4.5,0,0,1,1.69-1.85,5.77,5.77,0,0,1,2.68-.83m.2,2.09A2.26,2.26,0,0,0,63,43.74a3.28,3.28,0,0,0-.32,2.45,1.56,1.56,0,0,0,.92,1,2,2,0,0,0,2.17-.75,3.78,3.78,0,0,0,.58-2.25,1.65,1.65,0,0,0-.56-1.39,1.63,1.63,0,0,0-1.2-.28Z"/><path class="cls-1" d="M75.29,40.76a4.16,4.16,0,0,1,1.43-.34,3,3,0,0,1,1.49.26,2.44,2.44,0,0,1,1.15,1.22,3.47,3.47,0,0,1,.28,1.49,4.87,4.87,0,0,1-.1,1.2l-.9,4.6H75.58c0-.37.15-.74.22-1.12.24-1.16.48-2.32.71-3.48a2,2,0,0,0,0-1.15.9.9,0,0,0-.7-.5,1.85,1.85,0,0,0-1.35.29,2.82,2.82,0,0,0-1.06,1.67c-.32,1.43-.6,2.87-.92,4.3-1,0-2,0-3,0,.43-2,.83-4,1.25-6a22.9,22.9,0,0,0,.43-2.61h2.75c-.05.47-.15.94-.22,1.41a4.92,4.92,0,0,1,1.58-1.25Z"/><path class="cls-1" d="M37.94,40.6h3c-.43,2.11-.87,4.21-1.3,6.32-.16.76-.3,1.52-.48,2.27-1,0-2,0-3,0C36.76,46.33,37.34,43.46,37.94,40.6Z"/><path class="cls-1" d="M19.11,43.75h0Z"/><path class="cls-1" d="M17.94,44.61h0Z"/><path class="cls-1" d="M18.16,47.37h0Z"/><polygon class="cls-1" points="11.74 47.81 11.83 47.78 11.82 47.82 11.78 47.84 11.74 47.81"/><path class="cls-1" d="M11.5,47.89h0Z"/><path class="cls-1" d="M11.37,47.93h0Z"/><path class="cls-1" d="M10.9,48.15h0Z"/><path class="cls-1" d="M16.78,48.66h0Z"/><path class="cls-1" d="M16.7,48.7h0Z"/><path class="cls-1" d="M11.55,53.55h0Z"/></svg>