<svg id="Layer_1" data-name="Layer 1" xmlns="http://www.w3.org/2000/svg" viewBox="0 0 85 85"><defs><style>.cls-1{fill:#5d697a;}</style></defs><title>icon-infosys</title><path id="path161" class="cls-1" d="M6.2,31.9V29.07H9V52.4H6.2V31.9"/><path id="path163" class="cls-1" d="M34.55,43.9c.07,4.24,2.69,7.63,5.86,7.57s5.67-3.53,5.6-7.77-2.7-7.63-5.86-7.58S34.48,39.66,34.55,43.9Zm23.09-5.12-.1-.24Zm1.9,17.55c.12-.22.3-.56.51-1Zm.16-19a1.88,1.88,0,0,0,.12.3l.94,2.31ZM48,49a7.48,7.48,0,0,0,5.26,2.38c2,0,3.83-1,3.83-2.9,0-1.61-1.41-2.55-3.94-3.62-2.14-.93-3.73-1.59-4.57-2.94a10.78,10.78,0,0,1,.16,1.81c0,5.21-3.76,9.43-8.39,9.43S32,48.9,32,43.69a9.87,9.87,0,0,1,3.46-7.63H29.78V52.4H27.26V36.06H25v-1.7H27.3c.29-3.43,2.4-5.37,5.32-5.37a8.86,8.86,0,0,1,3.54.48V31.8c0,.17,0,.28,0,.28h-.09a5,5,0,0,0-3.91-1.47c-1.68,0-2.78,1.37-2.4,3.76h9.43a7.85,7.85,0,0,1,1.19-.09A8.39,8.39,0,0,1,48,39.7c0-.18,0-.37,0-.56,0-3.35,3.22-4.77,6.57-4.76h.37a16.56,16.56,0,0,1,3.88.64l2,4.9,2.83,7L63.93,48l.37-1.12L67.88,38c.67-2.46,3.29-3.53,6.18-3.52a10.28,10.28,0,0,1,3.78.62v2.7c-1.57-1.15-2.7-1.81-4.48-1.81-1.56,0-3.44.69-3.44,3,0,1.74,1,2.06,4,3.58,2.51,1.09,4.82,2.3,4.83,5.1,0,4.66-4.56,5.47-6.79,5.48a7.89,7.89,0,0,1-4.81-1.34V48.69l.16.13c1.81,1.7,3.4,2.58,5.46,2.58s3.84-1,3.84-2.91c0-1.61-1.42-2.54-3.94-3.62s-4-1.75-4.65-3.49c-1,2.42-5.57,13.64-6.65,16H59l1.12-2.1c.62-1.23,1.52-3.15,2.32-5L57.64,38.78c0-.07-.11-.25-.27-.61a3.11,3.11,0,0,0-1.73-2,5.51,5.51,0,0,0-1.82-.29c-1.57,0-3.57.7-3.57,3,0,1.74,1.13,2.06,4.18,3.58,2.5,1.09,4.81,2.3,4.83,5.09,0,4.67-4.57,5.47-6.79,5.48A8.51,8.51,0,0,1,48,52V49"/><path id="path165" class="cls-1" d="M14.19,34.54l0,2v.13h0a1,1,0,0,1,.11-.21,6.45,6.45,0,0,1,5.39-2.2,5,5,0,0,1,4.91,4.09v14H22.15V39.55a3.58,3.58,0,0,0-3.83-3.4c-1.74,0-4,1.59-4.06,3.19V52.4H11.74V34.54h2.45"/></svg>